<svg xmlns="http://www.w3.org/2000/svg" viewBox="0 0 91 91">
  <path d="M55.733 39.663c-1.456-1.457-3.39-2.292-5.3-2.292-1.612 0-3.093.6-4.17 1.68-2.254 2.26-2.18 6.06.04 8.82-1.36-1.15-3.024-1.8-4.657-1.8-1.468 0-2.808.536-3.777 1.504-1.14 1.14-1.68 2.8-1.46 4.548.19 1.6.98 3.156 2.21 4.39 1.44 1.44 3.31 2.264 5.15 2.264 1.46 0 2.81-.54 3.77-1.505 1.14-1.14 1.67-2.796 1.452-4.545-.17-1.37-.79-2.69-1.733-3.82 1.404 1.223 3.16 1.93 4.91 1.93 1.61 0 3.09-.6 4.164-1.67 1.216-1.218 1.815-2.96 1.644-4.79-.16-1.72-.96-3.388-2.265-4.688zM44.806 54.49c-.3.3-.722.362-1.025.362-.8 0-1.69-.42-2.4-1.122-.61-.612-1.01-1.38-1.1-2.108-.04-.324-.05-.926.35-1.32.3-.3.72-.362 1.03-.362.8 0 1.7.42 2.41 1.122.61.612 1.016 1.38 1.105 2.108.04.323.05.926-.344 1.32zm8.796-8.11c-.44.44-1.01.532-1.414.532-.89 0-1.82-.422-2.55-1.154-1.244-1.242-1.53-3.06-.625-3.964.44-.44 1.013-.53 1.418-.53.89 0 1.82.42 2.55 1.15.65.65 1.07 1.486 1.14 2.29.04.397.02 1.14-.51 1.676zm-3.554-30.993c-1.32 0-2.652.12-3.963.355-4.443.8-7.973 3.67-9.936 8.084-1.44 3.225-1.86 6.956-1.29 10.39-1.67-.69-3.36-1.035-5.09-1.035-7.11 0-12.69 5.98-13.98 11.75-1.52 6.81.66 14.53 5.99 21.18 5.44 6.8 13.14 11.02 20.1 11.02.89 0 1.79-.07 2.65-.2 5.65-.89 11.21-4.89 13.52-9.74 1.24-2.59 1.564-5.3.985-7.99 1.047.22 2.1.33 3.15.33 7.5 0 14.115-5.722 15.385-13.32 1.01-6.03-1.825-14.042-7.223-20.42-5.58-6.6-12.983-10.39-20.31-10.39zM73.752 45.55c-.83 4.95-5.37 10.07-11.544 10.07-1.863 0-3.753-.47-5.624-1.4-.77-.382-1.7-.214-2.285.41-.59.628-.7 1.564-.27 2.31 1.67 2.897 1.85 5.776.52 8.558-2 4.192-6.86 6.983-10.62 7.576-6.22.976-13.83-2.796-19.12-9.398-4.588-5.727-6.496-12.25-5.23-17.896.933-4.188 5.09-8.706 10.172-8.706 2.522 0 5.05 1.1 7.52 3.265.727.63 1.81.64 2.544.02.733-.63.9-1.69.393-2.51-2.085-3.35-2.3-8.47-.53-12.45 1.42-3.2 3.93-5.27 7.07-5.84 1.08-.2 2.18-.3 3.27-.3 6.177 0 12.5 3.28 17.347 9.004 4.618 5.452 7.17 12.39 6.36 17.26zm15.656-.07a43.785 43.785 0 0 1-43.786 43.784A43.785 43.785 0 0 1 1.837 45.48 43.785 43.785 0 0 1 45.622 1.693 43.785 43.785 0 0 1 89.408 45.48z"/>
</svg>