<svg xmlns="http://www.w3.org/2000/svg" viewBox="0 0 100 100">
  <path d="M52 23.6c0 1.2-.8 2-2 2s-2-.8-2-2 .8-2 2-2 2 .8 2 2zm.7-9.6c-9.3.3-17 7.5-20.6 16.3-3 8.7-4 17.4-1.3 26.3C32 61 34.7 64 35 69.8c.5 4.3-.6 9.7 2 10.6 2.7 1.4 5.6-1.2 8.4-1 2.2 0 4.2 2 6.3 1.5 2-1 3.2-3 5-4 3-1.4 9.3 2.5 9.3-2-.7-3.4 1-3 3.4-3 3.6-1 2.3-4 2-6.4-.6-2.5 3-6 .3-8.4C68 55.6 64 58 61 60c-2.8 1.7-5.7 5-9 3.2-2.7-1.4-4.5-3.8-4.7-6.4-.2-2.2-1.2-6.8 3-6 3 .4 6.3.4 9.3-1 2.3-1-2-4.6-3-5-3-1-9.7-.5-10.4-4.2-.4-2.2 2.3-5 4.8-4.8 3.4-.6 7.4 0 9.8-2.8 5-5.6 3-16.2-4.6-18.3-1.3-.4-2.6-.6-4-.6zM98 49.8c0 26.5-21.5 48-48 48S2 76.3 2 49.8s21.5-48 48-48 48 21.5 48 48z"/>
</svg>
