<svg xmlns="http://www.w3.org/2000/svg" viewBox="0 0 24 24">
  <path d="M10.41 1.125c1.743-.265 3.53-.11 5.185.463 2.096.73 3.972 2.118 5.295 3.906 1.103 1.523 1.83 3.332 2.03 5.208.287 2.295-.176 4.7-1.346 6.708-1.17 2.096-3.023 3.773-5.23 4.7-2.228.97-4.787 1.147-7.148.53-2.36-.62-4.478-2.05-5.956-3.99-1.28-1.66-2.052-3.71-2.206-5.81-.177-2.42.44-4.896 1.787-6.904 1.7-2.582 4.53-4.39 7.6-4.81zM8.598 6.068c-.86.905-1.413 2.052-1.743 3.244-.354 1.388-.376 2.848-.11 4.258.308 1.434.97 2.846 2.03 3.884.727.728 1.676 1.28 2.713 1.39 1.147.176 2.34-.22 3.243-.905 1.33-1.02 2.17-2.56 2.54-4.15.47-2.14.22-4.48-.84-6.42-.48-.8-1.1-1.57-1.87-2.1s-1.7-.82-2.62-.8c-1.28.02-2.47.66-3.332 1.59zm.287 1.964c.662-1.037 1.83-1.677 3.023-1.92-.86.53-1.59 1.258-2.162 2.096-.64.993-1.08 2.074-1.434 3.177l-.088.066c-.11-1.16 0-2.42.66-3.42z"/>
</svg>