<svg xmlns="http://www.w3.org/2000/svg" viewBox="0 0 422 183">
  <path fill="none" stroke="#6d6d6d" stroke-miterlimit="10" d="M164.427 71.44s-50.392 19.61-72.492 15.71c-22.1-3.9-39.2-4.8-52.6-1.4-13.4 3.4-38.1-.2-38.1-.2s12.1 14.3 25.9 13.9c20.2-.5 33.133 2.057 69.733 14.757m24.66 7.943c10.988 3.27 19.332 4.645 25.407 2.9" class="st18"/>
  <path fill="none" stroke="#6d6d6d" stroke-miterlimit="10" d="M103.035 109.65s-7.6 4.1-13.1 13.8c-5.5 9.7-6.3 13.2-1.7 10.5 4.6-2.7 8.5-6 11.4-1.1.4 2.3 3.1 5.4 4.1-1.2" class="st18"/>
  <path fill="none" stroke="#6d6d6d" stroke-miterlimit="10" d="M111.635 98.95s2.9 6.5 7.1 7.1c-1.8 2.7-1 6.1-.2 8.2.8 2.1 6.6 17 5.3 21.6-1.3 4.6-5.5 12.5-8 14.4-2.5 1.9-4.9 4.1-7.5-3.4-2.6-7.5-13.1-46.1 3.3-47.9z" class="st19"/>
  <path fill="#7d7d7d" d="M112.035 147.55s.1-.6.2-1.7c.2-1.1.3-2.7.4-4.7.2-4 .1-9.6-.5-15.7s-1.5-11.6-2.3-15.5c-.8-3.9-1.4-6.3-1.4-6.3l2.2 22c.6 6.1 1 11.6 1.2 15.5.1 2 .1 3.6.1 4.7.1 1.1.1 1.7.1 1.7z" class="st20"/>
  <path fill="none" stroke="#6d6d6d" stroke-miterlimit="10" d="M123.435 137.15s3.4 10.2 4.8 18.1c1.5 7.9 5.1 25.5 5.1 25.5s1 3.8-2.5.2c-3.5-3.6-16.7-18.8-19.1-28.8m-26.5-17.8s-6.6 11.6-7.2 24.3c-.6 12.8-.5 14.9-.5 14.9s1 8.6 4.4-3.4c3.4-12 6.1-17.4 9.3-21.8 3.1-4.4 9.7-10.2 9.6-13.2" class="st18"/>
  <path fill="#7d7d7d" d="M120.335 103.25s.2-.1.5-.4c.3-.3.8-.7 1.2-1.5.4-.8.5-2-.1-3.1-.3-.5-.6-1-1.1-1.5-.2-.2-.5-.4-.7-.6l-.1-.1-.2-.2c-.1-.1-.3-.3-.4-.3-.6-.4-1.4-.6-2-.6-.7 0-1.3.2-1.8.4-1 .4-1.8 1.1-2.4 1.6-1.2 1.1-1.7 1.9-1.7 1.9s.8-.6 2.1-1.3c.7-.4 1.5-.8 2.4-1 .9-.2 1.9-.3 2.6.2.1 0 .2.1.3.2l.4.3c.2.1.4.3.6.4.4.3.7.7.9 1 .5.7.6 1.5.5 2.2-.2.7-.5 1.2-.7 1.6-.2.6-.3.8-.3.8z" class="st20"/>
  <path fill="#7d7d7d" d="M117.635 110.15h2c.6 0 1.4-.1 2.2-.4.8-.3 1.8-.7 2.5-1.8.3-.5.4-1.1.4-1.7 0-.6-.2-1-.4-1.5-.4-.8-.9-1.4-1.4-1.9-.9-.9-1.6-1.2-1.6-1.2s.5.6 1 1.7c.5 1 1.3 2.7.6 3.8-.3.6-1 1-1.7 1.4-.7.4-1.3.6-1.9.8-.9.6-1.7.8-1.7.8z" class="st20"/>
  <path fill="none" stroke="#6d6d6d" stroke-miterlimit="10" d="M150.135 105.15c-6.9-6.1-25-10.7-29.4-12-4.4-1.3-4.2 2.6-4.2 2.6" class="st18"/>
  <path fill="none" stroke="#6d6d6d" stroke-miterlimit="10" d="M281.09 130.65s9.745 4.4 15.345 4.9c1.68.15 4.584-.155 7.023-.57m10.24-2.087c1.62-.298 3.55-.665 4.537-.642 4.3.2 27.6 3.8 27.6 3.8s4 .2 0-3.3 9.3-6 9.3-6 7.7-4.1 3.1-5.5c-4.6-1.4-14.9-4.1-21.2-4.5-6.3-.5-13.1-.2-13.1-.2"/>
  <path fill="#7d7d7d" d="M123.535 109.75s.4.1 1 .2 1.5.4 2.6.7c2.2.7 5.1 1.8 8.3 3.2 6.4 2.7 11.6 5.2 11.6 5.2s-1.1-.9-3-2.2c-1.9-1.3-4.7-2.9-8-4.3s-6.4-2.2-8.7-2.5c-1.2-.1-2.1-.2-2.8-.2-.6-.1-1-.1-1-.1zm48.782-47.997c-1.714 1.674-3.77 3.76-5.182 5.498-3.9 4.7-6.9 9.5-9 13.6-2.2 4.1-3.5 7.6-4.4 10-.9 2.4-1.2 3.8-1.2 3.8s.4-1.4 1.4-3.7c1-2.4 2.6-5.8 4.9-9.8 2.3-4 5.3-8.6 9.3-13.1 1.348-1.55 3.095-3.422 4.652-4.93m22.2-14.25c2.248-.93 3.674-1.14 5.848-1.813 5.8-1.8 11.2-2.6 15.8-2.9 4.6-.3 8.3.1 10.9.4 2.4.4 3.8.8 3.8.8s-1.3-.5-3.9-1c-2.5-.5-6.3-1-10.9-.9-4.6.1-10.2.7-16.1 2.4-2.435.702-4.22 1.24-6.747 2.27" class="st20"/>
  <path fill="none" stroke="#6d6d6d" stroke-miterlimit="10" d="M212.835 43.95s14.1-7.3 32.4-1.1" class="st18"/>
  <path fill="none" d="M212.535 64.55s-11.2-12.4-16.3-15.4c-5.1-3-10.6-5.5-14.3-3.5-3.7 2-8.5 4-9.1 7.3-.6 3.3-3.4 7.1 2.7 14.2 6.1 7.2 11.9 14 11.9 14s1.3-7.3 8.4-4.8c7.1 2.4 10.2-3.1 10-4.7-.1-1.6-1.9-7.7 7.4-6.5" class="st8"/>
  <path fill="none" stroke="#6d6d6d" stroke-miterlimit="10" d="M212.535 64.55s-8.8-9.8-11.4-11.6c-2.6-1.8-8.4-5.8-11.3-6.9-3-1-5.7-2.3-9.8.3-4.1 2.6-7.3 4.5-8.4 9-1.1 4.5 3.8 12.4 3.8 12.4l11.1 12.8s3.6-5.2 7.2-4.2 12.2.9 12.1-4c-.1-4.9-.5-5.9 6.3-6.9.9-.2.4-.9.4-.9z" class="st18"/>
  <path fill="none" stroke="#6d6d6d" stroke-miterlimit="10" d="M213.235 65.15s-6.7-8.7-13.3-13.6c-6.6-4.8-13.6-8.4-19.3-5.4-5.8 3.1-12 8.9-6.7 18s13.4 16.3 13.4 16.3" class="st18"/>
  <path fill="none" stroke="#6d6d6d" stroke-miterlimit="10" d="M276.365 100.53s15.37 4.72 23.77 13.62c8.4 8.8 16.7 24.1 17.5 28 .8 3.9 3.1 8.9-1.6 3.5s-16.5-14-18.3-15.4c-1.8-1.4-10.1-4.9-11-6.3-1-1.4-2.6-1.5-9.3-.4" class="st21"/>
  <path fill="none" stroke="#6d6d6d" stroke-miterlimit="10" d="M257.135 31.65s-13.7 4.7-18 31.4c-1.9 3.4-4.8 8.7-4.4 15.7m-89 57s2.8-23.5 3.3-26.9c.6-3.4 1.2-7.5 4.5-4.4 3.3 3.1 5.8 3.5 7.2 2.8 1.4-.8 7.3-3.3 9 .1 1.8 3.4 3.9 4.4.9 9.3-2.9 4.9-4.6 5.2-5.1 8.8-.5 3.6-2.5 12.2-3 14.8-.5 2.5.3 14-3.3 8.3-3.6-5.7-5.5-12.4-12.8-4.8-.6-3-.7-8-.7-8z" class="st18"/>
  <path fill="#7d7d7d" d="M204.87 95.747s-2.735-1.896-5.735-3.596c-1.5-.9-3.3-2-5.4-3.3-1-.7-2.1-1.4-3.2-2.2-1.1-.8-2.3-1.8-2.9-3.1-.6-1.3-.2-2.8.8-4.1.9-1.3 2.3-2.4 3.9-2.8 1.6-.4 3.5-.2 5.2.5 1.1.3 2.1.3 3.2.1 1-.2 2.1-.4 3.1-1 1-.5 1.9-1.4 2.4-2.5.4-1.2.3-2.5-.1-3.5-.3-.9-.3-1.7.2-2.4s1.5-1.1 2.5-1.4c2-.6 4.2-.7 6.4-.5 1.1.1 2.2.3 3.1.7.1.1.2.1.3.2.1.1.2.1.3.2.2.2.4.3.7.5.4.4.9.7 1.3 1.1l5.1 4.8c.4.4.9.8 1.4 1.1.2.2.5.4.7.5l.8.4c.9.5 1.8 1.2 2.7 1.8 3.6 2.6 7 5.2 10.4 7.5 1.7 1.2 3.4 2.3 5.2 3.1 1.8.8 3.6 1.5 5.3 2.1 3.5 1.2 6.7 2.1 9.7 3 1.5.4 2.9.8 4.2 1.2.7.2 1.3.4 1.9.6l.9.3c.3.1.6.3.8.4 2.2 1 3.8 2.5 4.8 3.8 1.1 1.3 1.6 2.6 1.9 3.5.3.9-.48-.04-.48-.04s.78.84.48-.06c-.3-.9.78-1.28-.32-2.68-1-1.4-4.08-3.92-6.28-5.02-.3-.1-.6-.3-.8-.4-.3-.1-.6-.2-.9-.4-.6-.3-1.3-.5-1.9-.7-1.3-.4-2.7-.9-4.2-1.4-2.9-.9-6.2-1.9-9.6-3.2-3.4-1.3-6.9-2.8-10.1-5.2-3.3-2.4-6.7-5-10.3-7.6-.9-.7-1.8-1.3-2.9-1.9-1-.5-1.8-1.2-2.6-1.9-1.7-1.5-3.3-3.1-5.1-4.7-.4-.4-.9-.8-1.3-1.2-.2-.2-.5-.4-.7-.6-.1-.1-.3-.2-.4-.3-.2-.1-.3-.2-.5-.2-1.2-.5-2.4-.7-3.6-.8-2.4-.2-4.7-.1-7 .6-1.1.4-2.3.8-3.2 1.9-.4.5-.7 1.2-.7 1.9-.1.7.2 1.3.3 1.8.3.9.4 1.9.1 2.7-.3.8-.9 1.4-1.7 1.9-.8.5-1.7.7-2.6.9-.9.1-1.9.2-2.6 0-1.9-.7-4-.9-5.8-.4-1.9.5-3.4 1.8-4.4 3.3-.5.7-.9 1.5-1.1 2.4-.2.9 0 1.8.4 2.5.8 1.5 2.1 2.4 3.2 3.2 1.2.8 2.3 1.5 3.3 2.1 2.1 1.2 4.037 2.25 5.537 3.15 3.1 1.6 5.9 3.35 5.9 3.35z" class="st20"/>
  <path fill="#7d7d7d" d="M282.835 135.05c8.07 10.66 17.94 19.82 26.7 29.9.85 2.28-4.95-1.27-6.42-.78-4.54-.2-8.7-1.96-12.37-4.58-8.2-5.48-16.4-11.25-23.5-18.24-4.3-5.75-10.9-9.1-17.3-11.95-9-5.33-17.8-11-26-17.45-6.9-7.25-15.2-12.85-22.3-19.95-2-2.08-6-7.02-6.7-7.75 4.3 6.5 9.7 12 15.8 16.73 5.1 4.02 9.5 8.63 14.3 12.94 8.4 6.24 17 12.36 26.2 17.33 6.6 2.42 12.3 7 16.7 12.4 8.3 7.55 17.5 14.3 27.2 19.84 4.3 2.22 9.4 1.6 13.9 3.36 4.3.97 1.5-3.83-.3-4.9-8.5-9.3-17.9-18-25.7-27.9-.482-3.168-4.517-7.027-4.1-8.2-4.1-48.03-.13-.45-1.588-2.94-.742 4.38 4.374 8.207 5.478 12.14z"/>
  <path fill="none" stroke="#6d6d6d" stroke-miterlimit="10" d="M160.835 150.25s2.7 17 5.5 22 1.6 5.4-1.1 3.4c-2.7-2-7.5-7.4-9.4-10.4-1.9-3-8.2-10.5-9.3-21.5m4.1-39.8s-2-3.7-.5-5.8c1.5-2.1 4.2-5.4 4.6-6.6.4-1.2 3.3-7 8.4-2 5.1 5 9.9 10.9 7.5 18.4" class="st18"/>
  <path fill="none" stroke="#6d6d6d" stroke-miterlimit="10" d="M161.15 87.904s7.785 1.447 9.585 3.647c1.9 2.2 4.2 3.8 5.9 5 1.8 1.2 8.7 6.6 12.5 8 3.8 1.4 20.5 9.5 23.5 13.1 3 3.6 5.3 7.1 2.2 10.5-3.1 3.4-7.6 5.1-13.3 2.4-5.7-2.7-14.3-9.4-19.5-13-5.1-3.6-10.6-8.8-10.6-8.8" class="st18"/>
  <path fill="#7d7d7d" d="M165.935 126.65s.2.4.7 1c.4.6 1.1 1.5 2 2.6.9 1 2 2.3 3.7 3.3.8.5 1.8.9 3 .9 1.1.1 2.3-.3 3.3-.7.5-.2 1-.5 1.4-.7.5-.2.8-.4 1.3-.6 1-.5 1.8-1 2.5-1.6 1.5-1.1 2.6-2.3 3.6-3.3 1.9-2 3-3.3 3-3.3s-1.3 1.1-3.5 2.8c-1.1.8-2.4 1.8-3.8 2.8-.7.5-1.5.9-2.4 1.3-.4.2-1 .4-1.4.6-.5.2-.9.4-1.4.6-.9.4-1.8.7-2.6.7s-1.7-.2-2.4-.6c-1.5-.7-2.7-1.8-3.8-2.7-1-.9-1.8-1.7-2.3-2.2l-.9-.9z" class="st20"/>
  <path fill="#7d7d7d" d="M179.235 132.75s0 .1.1.2.1.3.3.5c.3.4.8 1 1.7 1.5.9.4 2.1.6 3.3.6 1.3-.1 2.6-.5 3.9-1.1 1.3-.6 2.5-1.5 3.3-2.4.8-.9 1.4-1.9 1.8-2.7.8-1.7.9-2.8.9-2.8s-.5 1-1.6 2.4-2.7 3.1-5.1 4.1c-2.4 1.1-4.7 1.6-6.4 1.2-1.5-.5-2.2-1.6-2.2-1.5z" class="st20"/>
  <path fill="none" stroke="#6d6d6d" stroke-miterlimit="10" d="M210.835 116.45s2.7-3.7 10.1-1.5" class="st18"/>
  <path fill="#7d7d7d" d="M205.835 132.25s-.1.5.2 1.4c.1.4.4 1 .9 1.4.5.5 1.1.9 1.9 1.2.8.3 1.7.5 2.7.5.5 0 1.1 0 1.6-.1s1-.2 1.5-.2c2-.2 4.3-.2 6.8-.2 1.3-.1 2.6-.4 3.7-1.1 1.1-.7 1.9-1.6 2.5-2.5 1.3-1.8 2.1-3.5 2.8-4.9.7-1.4 1.2-2.7 1.2-3.6 0-.5-.1-.8-.2-1-.1-.2-.3-.2-.3-.2s.1.1.2.3c.1.2.1.6 0 1-.2.8-.8 2-1.6 3.3-.9 1.3-1.9 3-3.2 4.5-.7.8-1.4 1.5-2.3 2-.9.5-1.9.8-3 .9-2.4.1-4.8.1-6.9.5-.5.1-1.1.2-1.5.4-.5.1-.9.2-1.3.2-.9.1-1.7 0-2.4-.2s-1.4-.5-1.8-.9c-.5-.4-.8-.8-1-1.2-.5-1-.5-1.5-.5-1.5z" class="st20"/>
  <path fill="none" stroke="#6d6d6d" stroke-miterlimit="10" d="M190.935 132.75s5.2 3.9 10.1 4.7c4.9.8 10.2.3 14.9.6 4.7.3 12.2 3.9 17.4 3.9 5.2.1 23.5 1.4 27.4-4.7" class="st18"/>
  <path fill="none" stroke="#6d6d6d" stroke-miterlimit="10" d="M249.435 142.15s-5.1 13-7.2 15.8c-2.1 2.8-4.3 4.4-3.2-.7 1.1-5.1 2.3-15.2 2.3-15.2" class="st18"/>
  <path fill="#7d7d7d" d="M277.735 77.85s-4.5-3-10.4-5.8c-.7-.4-1.5-.7-2.2-1-.6-.3-1.2-.6-1.6-1.1-.9-.9-1.5-2-2-3s-.7-1.8-.9-2.3l-.3-.9v.9c.1.6.2 1.5.5 2.6s.8 2.3 1.8 3.6c.5.6 1.2 1.2 1.9 1.6.7.4 1.4.7 2.2 1.1 5.8 2.7 11 4.3 11 4.3z" class="st20"/>
  <path fill="#7d7d7d" d="M288.835 100.75c6.44-4.5 12.85-9.1 19.78-12.84 2.12-.94 4.12-2.23 5.44-4.2 3.15-4.45 3.66-10.15 3.48-15.45.24-3.8 2.68-7 5.4-9.6-3.73 2.5-6.57 6.7-6.54 11.3-.34 5-1.2 10.5-4.8 14.3-2.07 2.1-5.02 2.8-7.34 4.6-5.4 3.7-10.52 7.7-15.42 12z"/>
  <path fill="none" stroke="#6d6d6d" stroke-miterlimit="10" d="M308.135 87.75s-8.9 6.5-10.4 9.6c-1.5 3.1-3.6 5.3-7.5 9.4" class="st18"/>
  <path fill="none" stroke="#6d6d6d" stroke-miterlimit="10" d="M298.535 96.35s3.6 7.3 7.8 6.5c4.2-.8 8-.9 11.2 1.8 3.2 2.7 5.6 4.6 3.7 8.7-1.9 4.1-4.6 8.4-16 6.6" class="st18"/>
  <path fill="none" stroke="#6d6d6d" stroke-miterlimit="10" d="M309.535 102.25s5.7-10.2 10.3-12.1c4.6-1.9 10.5-4.1 16.2-7.8 5.7-3.7 30.2-8.5 31.7-8.6 1.5-.1 6.9-4.3 8.6.3 3.1 1 4.9 2.1 9 3.3 4.1 1.2 15.3 8.8 16.9 13.4m-82.6 26.1s3.2.7 7-1.4c3.8-2.1 12.2-4.5 17.5-3.9 5.3.6 24-1.5 27.3-4.1" class="st18"/>
  <path fill="#7d7d7d" d="M376.935 79.75l.2-.2c.1-.1.2-.3.3-.6.2-.5.4-1.4.3-2.2-.1-.8-.5-1.5-.8-2-.3-.5-.6-.7-.6-.7s-.1.4-.1.9 0 1.3.1 2 .3 1.4.5 1.9c0 .6.1.9.1.9zm-13.5 3.6l.2-.4c.1-.3.3-.7.5-1.1.4-1 1-2.2 1.7-3.6s1.3-2.6 1.8-3.5c.5-.9.9-1.5.9-1.5s-.6.3-1.5 1c-.8.7-1.9 1.9-2.6 3.4-.7 1.5-1 3-1.1 4.1-.1.5 0 1 0 1.3.1.2.1.3.1.3z" class="st20"/>
  <path fill="#7d7d7d" d="M367.135 92.15c.17 4.92 1.15 9.92 3.44 14.3.42 2.6 5.13 2.2 4.78 1.35-2.8 1.38-4.13-2.36-4.7-4.4-1.1-3.77-2.35-7.5-3.52-11.25zm5.3 2.8c-.9-6.92.33-13.9 1.6-20.7-3.3 6.25-4.47 14.08-1.6 20.7zm-51.2 2.7c6.53-2.02 12.84-4.8 18.6-8.5 6-3.15 12.28-5.66 18.5-8.3-7.3 1.9-14.66 4.18-21.16 8.1-5 3.46-10.54 5.97-15.94 8.7z"/>
  <path fill="none" stroke="#6d6d6d" stroke-miterlimit="10" d="M378.935 131.65s-5-8.4-4.1-16.3c.9-7.8 1.8-11.9 6.7-16.3s21.3-13 27.4-5.7c6.1 7.3 14.2 19.9 12 36.9-2.1 17-7.9 35-19.6 43-11.6 8-16.1 8.1-16.1 8.1s-8.3-.6-1.9-5.4c6.4-4.8 13.2-25.2 11.9-32.8" class="st18"/>
  <path fill="#7d7d7d" d="M380.835 109.35c-1.9 2.82-1.93 6.48-2 9.77-.1 3.3.73 6.56.7 9.83-1.07 5.57-4.9 10.1-6.7 15.4-1.93 7.6-.44 15.53 1.37 23 1.06 2.95 1.3 6.43 3.53 8.8 3.32 1.25 3.1-4.3 3.6-6.4.75-5.83 3.23-11.3 5.7-16.6 1.9-4.5 6.1-7.3 9.14-11 2.43-2.76 4.58-6.07 4.55-9.88.8-5.3 3.9-9.86 5.2-15.02.7-3.62-2.4-7-5.8-7.5-3.3-1.23-5.4-4-7.8-6.4-2.7-2.3-6.8-2.5-9.7-.56-2.7 1.53-4.8 3.82-6.6 6.26 2.7-3.6 6.7-7.34 11.6-7 2.4.23 4.4 1.86 5.7 3.8 2.1 2.33 4.5 4.74 7.7 5.33 2.7 1.03 4.4 4.17 3.4 6.97-1.9 5.5-5.2 10.66-5.4 16.65-1.5 5.22-6.1 8.55-9.6 12.45-3.9 4-5.7 9.4-7.7 14.45-1.3 3.33-2.1 6.8-2.4 10.35-.1 1.58-1 5-2 1.6-2.5-6.7-4-13.76-4.4-20.88-.2-4.37.5-8.86 2.73-12.68 1.67-3.66 4-7.24 4.36-11.33-.6-5.8-1.9-12 0-17.7.47-.6.5-1 .4-1.6zm23.2 34.7c-1.6-2-2.06-4.64-3.46-6.78-.63-1.66-.45 1.35-.33 2.02.4 1.9 1.5 3.96 3.4 4.56l.3.17.1.03zm-16.6 33.7c5.24-2.77 9.42-7.17 12.93-11.88 3.23-4.67 6.02-9.7 7.77-15.12-4.62 8.3-9.8 16.38-16.38 23.28-1.37 1.32-2.77 2.6-4.32 3.72z"/>
  <path fill="none" stroke="#6d6d6d" stroke-miterlimit="10" d="M347.535 135.55s6.8-1.7 7.6-3.3c2.3.3 5.2-.4 5.2-.4s4.8 15.7 9.6 19.5c.9 5.2 2.5 12.1 2.5 12.1s1.1 3.9 1.3-2.1m1-21.3s-6.1-11.7-8-13.8c-1.9-2.1-4.5-3.1-7.7-2.4" class="st18"/>
  <path fill="#7d7d7d" d="M253.635 51.85c-1.62-2.07-2.06-5.17-.7-7.47.48-.68 1.2-.98 1.93-1.32 1.9-1.3 3.05-3.5 3.65-5.7.28-1.1-.36-3.2 1.47-3.1 1.57 0 3.25.4 4.72-.4 1.88-.9 3.56-2.3 4.93-4-1.98 1.5-4.07 3.1-6.58 3.4-1.76 0-3.78-1-5.34.3-1.17 1.2-.3 3-1.04 4.4-.7 2-1.73 4.1-3.78 4.9-1.54 1.4-1.72 3.6-1.47 5.5.2 1.5 1 2.9 2.2 3.9z"/>
  <path fill="none" stroke="#6d6d6d" stroke-miterlimit="10" d="M257.835 35.65s-2.6-7 1.8-8.5 8.8-2.7 11.8-5l3-2.3m-1.9 6.9s1.5-3.3 2.3-4.1c.8-.8.5-2.6.5-2.6s-.8-2.6 1.1-4.1c1.9-1.5 3.9-2.3 3.9-2.3s.5-1 6.1-.1 9.4 2.6 9.4 2.6" class="st18"/>
  <path fill="#7d7d7d" d="M300.735 10.55s-.1-.1-.5-.4c-.3-.2-.8-.5-1.5-.7-1.3-.4-3.3-.5-5.3-.1-.5.1-1 .2-1.5.4s-.9.4-1.4.6c-.8.4-1.5.9-2 1.4-1 .9-1.5 1.6-1.5 1.6s.7-.4 1.9-1c.6-.3 1.3-.6 2.1-.9.4-.1.8-.2 1.2-.4l1.4-.3c1.9-.4 3.6-.7 4.9-.7.6 0 1.2.1 1.5.2.4.2.7.3.7.3z" class="st20"/>
  <path fill="none" stroke="#6d6d6d" stroke-miterlimit="10" d="M293.835 9.55s0-3 2.2-3.6c2.2-.6 5.6-.8 6.6-.7 1 .1 5.1.6 7.3 2.9s3 4.96 3 4.96" class="st18"/>
  <path fill="#7d7d7d" d="M326.635 13.65s-1.1 0-2.8-.1c-1.7-.1-4.1-.2-6.8-.3-5.3-.1-9.7.2-9.7.2s4.3 1.1 9.6 1.3c2.7.1 5.1-.2 6.9-.4 1.8-.4 2.8-.7 2.8-.7z" class="st20"/>
  <path fill="#7d7d7d" d="M287.835 43.25c6-.27 11.8-2.65 16.56-6.28 4.68-2.1 10.04-1.8 14.77-3.8 5.93-2.16 12.16-4.45 16.55-9.2 3.04-3.2 6.95-5.44 11.2-6.58 3.92-1.33 7.97-2.17 11.92-3.34 2.92-1 2.92-4.68 1.68-7-1-3.34-4.28-5.15-7.47-5.92-2.5-.83-5.6-1.8-7.9.1-2.1 1.77-4.9.88-7.3.72-5.8.23-9.8 6.16-9.9 11.66 0 1.38.2 4.35.1 1.3-.1-5.5 3.7-11.66 9.5-12.06 2.4.06 4.7 1.14 7 0 2.5-2.35 5.9-1.56 8.7-.37 2.7.64 5.3 2.35 6.2 5.12 1.2 2.25.4 5.4-2.5 5.45-6.1 1.6-12.6 2.84-18.1 6.36-3.8 2.7-6.5 6.75-10.9 8.62-5.6 2.84-11.5 5.44-17.7 6.4-3.5.48-6.7 2.02-9.4 4.38-3.8 2.5-8.2 4-12.7 4.44z"/>
  <path fill="#7d7d7d" d="M314.935 47.95c-6.86 3.08-13.18 7.2-19.4 11.4-5.6 3.84-11.9 6.46-18.23 8.85-4.94 1.55-10.42-.47-13.8-4.25-2.94-2.86-6-5.64-9.26-8.1-1.9-1.3-.9-3.23.9-3.82 5.6-3.54 11.5-6.7 17.8-8.83 2.5-.7 5.2-1.6 7.8-1.1 2.7 1.46 5.5 2.98 8.7 2.92 6-.42 11.4-3.3 16.6-6.07l3.3-1.92c-5.3 2.9-10.8 5.8-16.9 6.98-3.1.72-6.4-.17-9.1-1.87-2.6-2.1-6.1-1.2-9.1-.6-7.1 1.9-13.5 5.6-19.8 9.3-1.2.7-2.7 1.9-2.1 3.6.9 2.9 4.1 3.8 6.1 5.9 3.9 3.3 7.3 7.7 12.6 8.9 4 1.1 8.1-.3 11.7-2 5.8-2.4 11.3-5.4 16.3-9.2 5.25-3.8 10.6-7.4 16.35-10.4zm3.1 12.2c5.16-1.72 9.98-4.56 14-8.25 3.3-3.8 6.4-7.9 10.63-10.8 4.25-3.4 7.3-8.1 9.82-12.86.9-3.2 3.44-5.4 5.34-8 1.7-1.6 2.9-4.8-.1-5.6-.8-.3-2.7-.8-.8-.2 2.6.6 3 3.5.7 4.9-2.3 2.7-5.2 5.2-6.6 8.6-2.4 4.3-5.3 8.5-9.1 11.7-4.5 2.9-7.7 7.2-10.8 11.3-3.4 3.6-7.6 6.2-11.9 8.4l-1.4.6z"/>
  <path fill="none" stroke="#6d6d6d" stroke-miterlimit="10" d="M335.735 10.95c1.6-.48 3.68 1.02 1.86 2.4-.65.67-1.4 1.25-2.16 1.8"/>
  <ellipse cx="-42.983" cy="280.434" fill="none" stroke="#6d6d6d" stroke-miterlimit="10" class="st18" rx="2.9" ry="1.4" transform="rotate(-94.665)"/>
  <path fill="#7d7d7d" d="M254.935 47.35c1.55-2.23 4.1-3.44 6.42-4.67 2.6-1.34 5.45-2.18 7.95-3.7 1.82-1.02 3.95-1.27 6-1 3.2.37 6.42-.62 9.33-1.93-3.22.76-6.63 1.48-9.9.6-2.43-.5-4.93.06-7.1 1.2-3.2 1.62-6.54 3.08-9.44 5.26-1.35 1.03-2.64 2.24-3.46 3.74.07.16.17.32.2.5z"/>
  <path fill="none" stroke="#6d6d6d" stroke-miterlimit="10" d="M292.335 17.95s-3.1-.1-4.2-.5c-1-.4-1.6-1.4-4.2-1.2-2.5.3-4.8.6-6 1.6-1.1 1-1.2 4.7 1.1 5.4 2.3.7 5.8 1 8-1.1s3.4-4 3.4-4" class="st18"/>
  <path fill="#7d7d7d" d="M238.535 77.55c.3-1.85.77-3.67 1.13-5.5.3-1.76.48-3.53.57-5.3-.48.64-.8 1.4-1.15 2.1-.64 1.46-1.04 3.03-1.13 4.63-.04.87-.02 1.75.1 2.6.12.4.13.88.4 1.22.04.07.07.16.08.25z"/>
  <path fill="#7d7d7d" d="M276.335 24.55s0 .1.1.2c.1.2.2.4.4.7.2.3.4.7.8 1 .4.3 1.1.8 2 .5h.2c1.6.1 4-.2 6.3-1.1 1.4-.6 2.7-1.3 3.7-2.2.5-.5.9-1 1.2-1.5.2-.3.3-.6.3-.8 0-.2.2-.4.3-.5.6-.6 1.3-1.1 1.7-1.3.5-.3.7-.4.7-.4s-.3 0-.8.2-1.3.4-2.1 1c-.2.2-.4.4-.6.7-.2.3-.2.4-.4.6-.3.4-.7.8-1.2 1.1-.9.7-2.1 1.3-3.5 1.8-2.2.9-4.3 1.4-5.9 1.6-.1 0-.2 0-.2.1-.1 0-.2.1-.2.1-.3.2-.9.1-1.2-.1-.4-.2-.7-.5-.9-.8-.2-.2-.4-.4-.5-.6-.1-.2-.2-.3-.2-.3z" class="st20"/>
  <path fill="#7d7d7d" d="M312.935 34.55c2 2.18 4.07 4.27 6.2 6.3-.08-2.54-.3-5.07-.6-7.6-.1 1.93-.2 3.86-.2 5.8-1.8-1.5-3.54-3.08-5.4-4.5zm5.8-1.8c1.52 1.7 3.22 3.17 4.9 4.7.23-.4.03-1.3.1-1.9.02-1.6-.07-3.2-.3-4.8-.26 1.7-.26 3.4-.4 5.1-1.38-1.1-2.86-2.08-4.3-3.1zm5-2.1c1.52 1.7 3.22 3.17 4.9 4.7.25-1.57.07-3.53-.02-5.25-.07-.76-.2-2.08-.3-.6-.26 1.3.02 3.17-.4 4.16-1.34-1-2.8-2-4.18-3zm5.3-2.6c1.48 1.24 3.1 2.33 4.8 3.2-.2-1.8-.38-3.62-.8-5.4-.13 1.33-.1 2.66-.1 4-1.22-.74-2.56-1.32-3.9-1.8zm4.2-2.5c1.5.8 3.07 1.5 4.7 2-.15-1.95-.42-3.9-.9-5.8-.14 1.56-.1 3.13-.1 4.7-1.2-.35-2.45-.72-3.7-.9zm4-4.3c1.5 1.15 3.04 2.22 4.7 3.1-.03-1.87.1-3.74-.1-5.6-.36 1.4-.5 3.06-.65 4.4-1.2-.78-2.6-1.38-3.95-1.9zm5.8-3.1c1.37 1.48 3 2.66 4.6 3.9.24-1.88.35-3.76.3-5.66-.03-.62-.43 2.03-.56 2.54-.2.87.15 2.2-.88 1.02-.97-.97-2.22-1.33-3.46-1.8zm5.3-2.1c1.2 1.44 2.34 2.9 3.7 4.2.17-1.96.47-3.92.4-5.9-.54 1.24-.6 3.15-.97 4.13-1-.88-1.98-1.78-3.13-2.43zm4.5-.7c.78 1.1 1.92 2.47 2.8 3.1.1-1.4.18-2.8 0-4.2-.56.98-.3 3.8-1.65 2-.45-.22-.7-.67-1.15-.9z"/>
</svg>
