<svg xmlns="http://www.w3.org/2000/svg" viewBox="0 0 1440 350" id="svg5743">
  <style id="style5745">
    .st0{display:none;} .st1{display:inline;} .st2{display:inline;fill:#E5E5E5;} .st3{opacity:0.3;fill:#FFFFFF;} .st4{fill:#CCCCCC;} .st5{fill:#CECECE;} .st6{fill:#D3D3D3;} .st7{fill:#D6D6D6;} .st8{fill:#C9C9C9;} .st9{fill:#D8D8D8;} .st10{fill:#8D8D8D;} .st11{fill:#9F9F9F;} .st12{fill:#969696;} .st13{fill:#BFBFBF;} .st14{fill:#EAEAEA;} .st15{fill:#BCBCBC;} .st16{fill:#D1D1D1;} .st17{fill:#C4C4C4;} .st18{fill:none;stroke:#6D6D6D;stroke-miterlimit:10;} .st19{fill:#D1D1D1;stroke:#6D6D6D;stroke-miterlimit:10;} .st20{fill:#7D7D7D;} .st21{fill:#E0E0E0;stroke:#6D6D6D;stroke-miterlimit:10;} .st22{fill:#EFEFEF;stroke:#828282;stroke-width:0.75;stroke-miterlimit:10;} .st23{fill:#E8E8E8;} .st24{fill:#E5E5E5;} .st25{fill:#B8B8B8;} .st26{fill:none;stroke:#898989;stroke-width:0.75;stroke-miterlimit:10;} .st27{fill:#C1C1C1;stroke:#6D6D6D;stroke-width:0.6;stroke-miterlimit:10;} .st28{fill:#A5A5A5;} .st29{fill:none;stroke:#6D6D6D;stroke-width:0.6;stroke-miterlimit:10;} .st30{fill:none;stroke:#6D6D6D;stroke-width:0.2;stroke-miterlimit:10;} .st31{fill:#C1C1C1;} .st32{fill:none;stroke:#6D6D6D;stroke-width:0.5;stroke-miterlimit:10;} .st33{fill:#C9C9C9;stroke:#6D6D6D;stroke-width:0.8;stroke-miterlimit:10;} .st34{fill:#BFBFBF;stroke:#6D6D6D;stroke-miterlimit:10;} .st35{fill:#C9C9C9;stroke:#727272;stroke-miterlimit:10;} .st36{fill:#6D6D6D;} .st37{fill:#9B9B9B;stroke:#6D6D6D;stroke-width:0.8;stroke-miterlimit:10;} .st38{fill:#B5B5B5;stroke:#6D6D6D;stroke-width:0.8;stroke-miterlimit:10;} .st39{fill:#C9C9C9;stroke:#6D6D6D;stroke-width:0.6;stroke-miterlimit:10;} .st40{fill:#BABABA;stroke:#6D6D6D;stroke-width:0.6;stroke-miterlimit:10;} .st41{fill:#BFBFBF;stroke:#6D6D6D;stroke-width:0.8;stroke-miterlimit:10;} .st42{fill:#6E6E6E;} .st43{fill:#BFBFBF;stroke:#898989;stroke-width:0.7;stroke-miterlimit:10;} .st44{fill:#C9C9C9;stroke:#898989;stroke-width:0.7;stroke-miterlimit:10;} .st45{fill:#929292;} .st46{fill:#E0E0E0;} .st47{opacity:0.5;} .st48{fill:#FFFFFF;} .st49{fill:#777777;}
  </style>
  <g id="Laag_3" class="st0">
    <path class="st2" id="rect5751" d="M3 0h1437v350H3z"/>
  </g>
  <g id="Laag_5">
    <path class="st4" d="M675 188.5s25.5 5.5 62 4.5 61.3-2.75 61.3-2.75 8.2-12.25 14.2-13.75 25-13.5 32.5-19 22.5-20.5 37-25 39-11 44.5-11.5 21-1.5 42.5 6.5 32 11.5 32 11.5 18.3 7.74 29.5-3.03c1.28-1.23 26.5-5.15 26.5-5.15s6-1.32 11 2.18 10.5 5 10.5 5 8.08-12.84 23.08-15.84c15-3 32.42-8.66 36.42-11.16s8-7.5 8-7.5-14.7-11.5-24.8-16.8c0 0-7.8-3-10.8-3.3-3-.3-8.7-4.3-10.2-5.7-1.5-1.3-5.7-2-5.7-2s-14 0-20.7-3c-6.7-3-11.7-7-20.7-5.7-9 1.3-12.8 2.2-21.7-1.5-8.8-3.7-17-8.8-29.3-6.3-12.3 2.5-20.5 8.7-23.8 14.2-9.2-2.2-18.2-2.2-25.3 4.2-6.8 3.8-17.8 7.2-17.8 7.2l-12 1.5-24.7 12.3s-5 4.2-16 2.5c-11-1.7-23.7-4.7-23.7-4.7s-7.3-4.2-20.5-.3c-13.2 3.8-40.3 14.5-48 20-7.7 5.5-44.7 31.8-44.7 31.8l-36.97 24.6s-15.33 12.7-33.13 15.9" id="path5757" fill="#ccc"/>
    <path d="M1230.5 61.5c15.07-4.4 31.9-17.6 40.5-25.66 9.38-1.8 17.92-4.36 25.87-10.57 9.17-4.28 14.37 8.6 30.12-1.6 9-7.5 20.6-13.55 32.6-10.37 14.5 1.07 23.2 9.28 35.3 12.3 10.4 2.17 21.8-5 31.3 1.92 5.6 4.35 12.8 9.9 13.7 17.28v83.7c-10.3-1.68-22.1-3.37-32.2-5.8-11.3-10.5-27.1-8.45-40-.75-10 1.15-18.9-10.74-28.7-12.85-11.7-.4-19.4-13.38-31.7-8.8-15.4 3.7-26.5 15.93-39.6 24.13-5.2 2.92-10.2 10.7-15.8 4.83-6.1-3.2-11.9-7.26-18.1-9.93-9.2.4-18.6.9-27.8-.2-9.6-1.15-16.8-7.02-22.8-14.08-7.9-3.2-2-6.3 1.8-9.5 11-9.04 21.4-18.92 33.6-26.34l11.43-7.7z" id="path5759" fill="#cecece"/>
    <path class="st6" d="M691.17 185.17S667 195 649 193s-53-8.5-71-5.5-104-2-118-2-72 3.5-88.5 2S297 184 297 184l-236.5-4S87 170.5 91 170s11.5-.5 16.5.5 16.5-1 23-2 22-6.5 37-6 42.5 0 58.5-5.5 31-12 43-7 18 13 38 6 37-14 45.5-16 26-6 30.5-3.5 14.5 0 14.5 0 10-7.5 32.5-5.5 54.5 9 54.5 9 24.5 1 31-1.5S532 131 532 131s8.5-2.5 15 2.5 22 6.5 22 6.5 8-4 13-4.5c4.5 4 7.5 7 13 5.5s10.5-4 16.5-.5 10 8 23 3S683 125 687 125s16-1.5 24-2.5 16-4.5 29.5-.5 27.5 10.5 27.5 10.5-42 29.5-45 31-31.83 21.67-31.83 21.67z" id="path5761" fill="#d3d3d3"/>
    <path class="st6" d="M795 191.8s53.3-2.2 128 5.2 132.7-.7 132.7-.7 122.7-9.3 150-4c27.3 5.3 86.7 14 114.7 10.7 28-3.3 119.7-2 119.7-2v-72.5s-11.8-1.4-15.2-2.1c-3.4-.7-14.8-3.9-14.8-3.9s-10.5-6.6-13.6-7.5c-3.1-.9-14.4-3.4-30.4 5.2-2-.4-8.2-3-8.2-3s-9.5-5.8-14.5-6.8-15.5-3.2-18.1-6.5c-2.6-3.3-6.4-8.8-30.6 1-18.1 13-37.2 27-37.2 27l-18.6-10.6s-5.1-4.6-12-1.5c-10.1.5-21.4-.2-27.2-3-5.8-2.8-10.6-6.4-15.1-11.1-4.5-4.7-13.8-12.5-24.4-10.2-7.9 2.1-9.1 3.4-14.5 9.1-7 5.4-10.8 8.4-16.6 9.8-5.8 1.4-21.6 4.8-21.6 4.8s-12.6 4.4-17.1 7.4c-4.5 3-10.8 7.9-12.4 11.4-5.5-2.1-9.2-4.4-9.2-4.4s-2.9-4.2-7.2-4.1c-4.3.1-18.3 0-27.8 4.6-9.5 4.7-12.5 7.2-20 6.8-7.5-.3-15-2-20.8-5.2-5.8-3.2-27-9.2-27-9.2s-8.2-6.2-22.3-5.7c-14.2.5-18-.8-28.8 3.3-11.2 2.3-23.38 3.12-43.38 12.42l-32.63 24.6s-17.6 13.4-28.7 15.36c-5.9 2.7-14.7 8.06-15.3 15.32z" id="path5763" fill="#d3d3d3"/>
  </g>
  <g id="Laag_2">
    <g id="g5766">
      <path class="st7" d="M677 350c-22.6-7-40.7-22.5-41.2-26s-7.5-11-16.1-15.5-6.5-6-8-12.5-22.1-16-38.2-22.5-15.6-20-27.1-29c-11.6-9-28.6-7-31.6-11.5s-27.6-12.5-39.7-13-30.2-3-37.8-5.7c-7-2.5-23.6-6.7-30.1-6.7s-30-8.2-33-11.7-24.6-5.5-34.7-4c-10 1.5-31.6-4.5-31.6-4.5l-10.5-3.5L0 180v170h677z" id="path5768"/>
    </g>
    <path class="st8" d="M1109.8 245.7s-2.6 7.6-7.8 7.1-11.1-.9-13.7 4.4c-2.6 5.3-.9 7.4-.9 7.4l1.7 1.8h-14.7l-16.4 2.3-8.4 2.5s-2.8 1.1.9 3.3 7.8 3.1 7.8 3.1 5.2 2.3 3.9 4c-1.3 1.7-3.7 4.7 1.2 3.8s24.4-3.5 24.4-3.5 16.9 2.4 19.5 3.3c2.6.9 11-1.4 11-1.4l9-3.6 7.4-11.1-.5-14.3-1.8-4.3c-.2-.1-17 8.5-22.6-4.8z" id="path5770"/>
    <path class="st9" d="M1183.5 286l18 .3 3.9-5.2-7.8-4.5.1-7.3 6.4-5.2 22.4-8.5 15.9-14.1 11.2 2.4.9-5.4-13.4-20.3-7.8-8.3-21.6-11.8-30.2-2.5-16.7 5.3 1.5 8 3.1 6.8 3.3 11.1.6 1.2 4.6-3.1 10.7-6.5 6-1.4 5.5.6.9 3.7s1.2 6.3 7.5 6.6c6.3.3 15.7.4 11 4.7-4.7 4.3-24.7 18.4-24.7 18.4l-28.1 22.5-17.8 10.9s-8.9.6 1.3 2.3 27 3 27 3 5.9-1.4 6.3-3.7z" id="path5772"/>
    <g id="g5774">
      <g id="g5776">
        <g id="g5778">
          <path class="st10" d="M1077 139.3s.3-.6 1-1.8c.3-.6.9-1.3 1.4-2.1.3-.4.7-.8 1-1.2.4-.4.8-.9 1.2-1.4 3.6-3.7 9.9-8.1 18.4-11.7 4.3-1.8 9.1-3.4 14.5-4.6 1.3-.3 2.7-.5 4.1-.7 1.4-.2 2.8-.4 4.2-.7 2.8-.6 5.7-1.3 8.5-2.4 2.8-1.1 5.6-2.5 8.1-4.3 2.6-1.8 5-3.9 7.4-6.2.6-.6 1.2-1.2 1.7-1.8.6-.6 1.3-1.2 1.9-1.8.3-.3.7-.6 1-.8l1.1-.8c.8-.5 1.6-.8 2.4-1.2 3.3-1.4 7.1-1.7 10.6-1.1 3.6.6 7 1.9 10 3.6 3.1 1.7 5.8 3.8 8.3 6.1 1.3 1.1 2.4 2.4 3.5 3.6l1.7 1.7.8.8.9.7c.6.5 1.2 1 1.9 1.4.7.4 1.3.8 2 1.2.6.4 1.3.7 2 1.1.7.3 1.4.7 2.1 1 5.6 2.2 11.3 3.3 16.7 3.6 2.7.2 5.3.2 7.8.1s4.8-.4 7.2-.9c1.3-.1 2.4.2 3.5.5s2.1.7 3 1.1c1.9.8 3.7 1.7 5.3 2.6 3.2 1.8 5.9 3.4 8.1 4.8 4.4 2.8 6.7 4.4 6.7 4.4s-2.4-1.6-6.8-4.2c-2.2-1.3-5-2.9-8.2-4.6-1.6-.8-3.4-1.7-5.3-2.5-1-.4-2-.8-3-1.1-1-.3-2.1-.5-3.2-.4-2.2.5-4.7.9-7.2 1.1-2.5.2-5.2.2-7.9.1-5.5-.2-11.3-1.2-17.1-3.5-.7-.3-1.4-.6-2.1-1-.7-.3-1.4-.7-2.1-1.1l-2.1-1.2c-.7-.5-1.3-1-2-1.5l-1-.7-.9-.9c-.6-.6-1.2-1.2-1.8-1.7-1.1-1.2-2.2-2.4-3.4-3.4-2.4-2.2-5.1-4.2-8-5.8-2.9-1.6-6.2-2.9-9.5-3.4-3.4-.5-6.8-.2-9.8 1-.7.4-1.5.7-2.2 1.1l-1 .7c-.3.2-.7.4-1 .7-.6.6-1.2 1-1.8 1.7l-1.8 1.8c-2.4 2.3-4.9 4.5-7.6 6.3-2.7 1.8-5.6 3.3-8.5 4.3-2.9 1.1-5.8 1.8-8.7 2.4-1.4.3-2.9.5-4.2.7l-4.1.6c-5.3 1-10.1 2.5-14.4 4.2-8.5 3.4-14.8 7.6-18.5 11.2-.5.4-.9.9-1.3 1.3s-.8.8-1.1 1.2c-.6.8-1.1 1.4-1.5 2-.5 1.2-.9 1.8-.9 1.8z" id="path5780"/>
        </g>
      </g>
    </g>
    <g id="g5782">
      <g id="g5784">
        <g id="g5786">
          <path class="st11" d="M1180 100.5s3-2.9 8.7-8c2.8-2.5 6.3-5.6 10.5-9.1 4.1-3.5 8.9-7.3 14.4-11.4 5.5-4 11.6-8.4 18.7-12 .5-.2.9-.4 1.4-.7.5-.2.9-.5 1.4-.6 1-.4 1.9-.7 2.9-1.1 1.9-.7 3.9-1.3 5.8-2.2 3.8-1.7 7.5-4.1 11-6.8s6.8-5.9 10.3-9.1c.9-.8 1.8-1.6 2.7-2.3 1-.7 2-1.5 3.2-2 .6-.2 1.3-.4 2.1-.3.6 0 1.2.1 1.7 0 1.2 0 2.3-.1 3.5-.4 4.7-.9 9.1-3.3 12.7-6.6 1-.9 2-1.7 3.2-2.3 1.2-.6 2.5-1.1 3.8-1.4 2.7-.6 5.4-.2 8 .4 1.3.3 2.5.7 3.8 1.2 1.2.4 2.3.6 3.6.7 2.4.2 4.9-.2 7.3-.8 4.7-1.3 9.1-3.8 12.1-7.5.8-1 1.9-1.9 3-2.5 1.1-.6 2.3-1.1 3.4-1.5 2.3-.8 4.7-1.2 7.1-1.5 4.7-.6 9.4-.6 13.9-.1s8.9 1.4 12.9 3c2 .8 3.9 1.8 5.7 3 .9.6 1.7 1.1 2.5 1.7.8.5 1.7 1 2.6 1.4 3.5 1.7 7.3 2.6 10.9 3.1 3.6.5 7.2.5 10.6.4 3.4-.1 6.6-.5 9.6-.8.8-.1 1.5-.2 2.3-.2.4 0 .7-.1 1.1-.1h1.2c1.5.1 2.8.6 4.1 1.1 2.5 1.1 4.6 2.6 6.4 4 1.8 1.4 3.4 2.9 4.7 4.2 2.7 2.7 4.6 4.9 5.9 6.5 1.3 1.5 1.9 2.4 1.9 2.4s-.6-.8-1.9-2.3c-1.3-1.5-3.3-3.7-6-6.3-1.4-1.3-2.9-2.7-4.8-4.1-1.8-1.4-3.9-2.8-6.4-3.9-1.2-.5-2.6-.9-3.9-1-1.4-.1-2.9.2-4.4.3-3 .4-6.3.7-9.7.9-3.4.2-7 .2-10.7-.2-3.7-.4-7.6-1.3-11.3-3-.9-.5-1.8-.9-2.7-1.5l-2.6-1.7c-1.7-1.1-3.5-2.1-5.5-2.8-3.9-1.5-8.2-2.4-12.6-2.8-4.4-.4-9-.4-13.6.2-2.3.3-4.6.7-6.8 1.5-2.2.7-4.4 1.7-5.8 3.5-3.2 3.9-7.9 6.6-12.8 8-2.5.7-5.1 1.1-7.8.9-1.3-.1-2.7-.4-4-.8-1.2-.4-2.4-.8-3.6-1.1-2.4-.6-4.9-.9-7.3-.4-1.2.2-2.3.7-3.4 1.2-1 .6-2 1.3-2.9 2.1-3.8 3.5-8.5 5.9-13.5 6.9-1.2.2-2.5.4-3.7.4-.6 0-1.3 0-1.9-.1-.5 0-1 .1-1.5.2-1 .4-2 1.1-2.9 1.8-.9.7-1.8 1.5-2.7 2.3-3.4 3.2-6.8 6.4-10.4 9.1-3.6 2.8-7.4 5.1-11.3 6.9-2 .9-4 1.6-5.9 2.2-1 .4-1.9.7-2.8 1.1-.5.2-.9.4-1.4.6-.4.2-.9.4-1.3.7-7.1 3.5-13.2 7.8-18.8 11.7-5.5 4-10.3 7.8-14.5 11.2-4.2 3.4-7.7 6.4-10.6 8.9-5.8 4.8-8.9 7.6-8.9 7.6z" id="path5788"/>
        </g>
      </g>
    </g>
    <g id="g5790">
      <g id="g5792">
        <g id="g5794">
          <path class="st11" d="M689 184.5s.1 0 .3-.1c.2-.1.5-.2.9-.3.8-.3 1.9-.9 3.4-1.7 2.9-1.6 7.2-4.2 12.5-7.7 10.7-7 25.9-17.5 44.5-30.8 9.3-6.6 19.5-14 30.3-21.9 10.9-7.9 23.6-15 37.8-20.5 7.1-2.7 14.5-5.2 22.3-6.7 2-.4 3.9-.7 6-.9 2-.2 4.1-.3 6.2 0 .5 0 1.1.2 1.6.3.5.2 1.1.4 1.5.5.9.4 1.9.7 2.8 1 1.9.6 3.9 1.1 5.9 1.5 4 .9 8.1 1.6 12.2 2.1s8.3 1 12.5 1c2 0 4-.6 6-1.3 2-.7 3.9-1.6 5.9-2.4 3.9-1.8 7.7-3.8 11.6-5.8 1.9-1 3.9-2 5.8-3 1-.5 2-1 3-1.4l1.5-.6c.5-.2 1.1-.4 1.8-.4 2.1-.1 4.2-.5 6.2-.9 2.1-.4 4.1-1 6.2-1.5 4.1-1.1 8.1-2.5 11.7-4.3l1.3-.7 1.2-.8c.4-.3.7-.6 1.1-1 .4-.4.8-.8 1.2-1.1 1.8-1.3 3.8-2.2 5.8-2.8 2-.6 4.1-1 6.2-1.2 2.1-.2 4.2-.1 6.2.1l1.5.3 1.5.4 1.5.6.7.4h.1l.6-.8.9-1.2c.6-.8 1.3-1.5 2-2.3 2.9-2.9 6.2-5.1 9.8-6.7 3.6-1.6 7.4-2.6 11.2-3.1 3.8-.5 7.6-.5 11.3 0 1.9.2 3.7.6 5.5 1.2.9.3 1.8.6 2.6 1 .9.4 1.6.9 2.4 1.2 3.2 1.6 6.5 2.7 9.8 3.7 3.3.9 6.6 1.8 9.9 2 .8 0 1.4-.1 2.3-.4.8-.2 1.6-.4 2.5-.6 1.6-.3 3.3-.5 4.9-.6 1.6-.1 3.3 0 4.9.1 1.6.2 3.2.4 4.7.9.8.2 1.5.5 2.3.7.7.3 1.4.6 2.2.9.7.4 1.4.8 2 1.1.7.4 1.3.8 2 1.1 2.6 1.3 5.4 2.2 8.2 2.9 5.5 1.4 11 1.8 16.1 1.9.6 0 1.3 0 2 .1s1.3.3 1.9.7c1.1.7 2 1.6 2.9 2.4 1.7 1.7 3.6 3 5.8 3.7 1 .4 2.1.7 3.2.9l1.6.3 1.6.3c.5.1 1 .3 1.5.4.5.2 1 .3 1.5.5.9.4 1.9.8 2.8 1.2 3.5 1.7 6.6 3.6 9.2 5.3 5.4 3.5 9.3 6.6 11.9 8.7 2.6 2.1 4 3.3 4 3.3s-1.3-1.1-4-3.2-6.6-5.1-12-8.5c-2.7-1.7-5.7-3.6-9.3-5.2-.9-.4-1.8-.8-2.7-1.1-.5-.2-1-.3-1.5-.5s-1-.3-1.5-.4l-1.5-.3-1.6-.3c-1.1-.2-2.2-.5-3.3-.9-2.2-.7-4.2-2.1-6-3.8-.9-.8-1.7-1.7-2.8-2.3-.5-.3-1.1-.5-1.7-.6-.6-.1-1.2-.1-1.9-.1-5.2 0-10.7-.4-16.3-1.7-2.8-.7-5.6-1.6-8.4-2.9-.7-.3-1.3-.7-2-1.1-.7-.4-1.3-.7-2-1.1l-2.1-.9c-.7-.2-1.4-.5-2.2-.7-1.5-.4-3-.6-4.6-.8-1.6-.1-3.2-.2-4.7-.1-1.6.1-3.2.3-4.8.6-.8.2-1.6.3-2.4.6-.4.1-.7.2-1.2.3-.5.1-.9.1-1.4.1-3.5-.2-6.8-1-10.2-1.9-3.4-1-6.7-2.2-10-3.7-.8-.4-1.7-.9-2.4-1.2-.8-.4-1.6-.7-2.4-.9-1.7-.5-3.5-.9-5.3-1.1-3.6-.4-7.3-.4-11 .1-7.4 1-14.8 4-20.2 9.5-.7.7-1.3 1.4-1.9 2.2-.3.4-.6.7-.9 1.2l-1.2 1.7c0 .1-.1.1-.1 0l-.2-.1-.3-.2-.6-.3-.6-.3-1.3-.5-1.4-.4c-.5-.1-1-.2-1.4-.3-3.9-.5-8-.2-11.8 1-1.9.6-3.8 1.4-5.3 2.6-.4.3-.7.6-1.1 1-.4.4-.8.8-1.2 1.1l-1.4.9-1.4.8c-3.8 2-7.9 3.3-12 4.5-2.1.6-4.1 1.1-6.3 1.5-2.1.4-4.2.9-6.5 1-.4 0-.9.2-1.4.4l-1.5.6c-1 .4-1.9.9-2.9 1.4-1.9 1-3.9 2-5.8 3-3.9 2-7.7 4-11.7 5.8-2 .9-4 1.8-6 2.5s-4.2 1.4-6.5 1.4c-4.3-.1-8.5-.5-12.7-1-4.2-.6-8.3-1.3-12.3-2.2-2-.5-4-1-6-1.6-1-.3-2-.6-2.9-1-.5-.2-.9-.3-1.4-.5l-1.4-.3c-1.9-.2-3.9-.2-5.9 0-2 .2-3.9.5-5.8.8-7.7 1.5-15.1 3.8-22.1 6.5-14.1 5.4-26.7 12.3-37.6 20.2-10.9 7.9-21.1 15.1-30.5 21.7-18.7 13.1-34.1 23.5-44.9 30.4-5.4 3.4-9.7 6-12.6 7.6-1.5.8-2.6 1.4-3.4 1.7-.4.2-.7.3-.9.3-.1-.2-.2-.2-.2-.2z" id="path5796"/>
        </g>
      </g>
    </g>
    <g id="g5798">
      <g id="g5800">
        <g id="g5802">
          <path class="st12" d="M795.2 191.5v-.9c.1-.6.3-1.5.9-2.5 1.1-2.1 3.5-4.7 7.1-7.4 1.8-1.3 3.9-2.7 6.2-4.1.1-.1.3-.2.5-.3h.6c.3 0 .7 0 1-.1.7-.1 1.4-.2 2.1-.4 1.4-.3 2.9-.9 4.3-1.5 5.8-2.5 11.8-6.6 18.2-11.4 6.4-4.8 13.1-10.4 20.5-16.2 3.7-2.9 7.6-5.9 11.8-8.7 4.2-2.8 8.8-5.2 13.8-7.2 5-1.9 10.2-3.5 15.6-4.6 2.7-.6 5.5-1.1 8.3-1.6 2.8-.5 5.6-1 8.4-1.6l1-.2 1-.3c.3-.1.7-.2 1-.4.3-.1.6-.2 1-.4 1.5-.7 3-.9 4.4-1.1 2.9-.4 5.9-.6 8.9-.7 6-.2 12 0 18.1.6 3.1.4 6.1.8 9.1 1.7.7.3 1.5.5 2.2 1 .7.4 1.2.8 1.9 1.1 1.3.7 2.7 1.2 4 1.7 5.5 2 11.2 3.6 16.6 5.5 2.7.9 5.4 1.9 8.1 3l2 .8 1.9.9 1.9.8c.6.3 1.3.5 1.9.7 5.2 1.7 10.6 2.1 15.8 1.8 2.6-.2 5.2-.5 7.6-1.2 1.2-.3 2.4-.8 3.4-1.3l.7-.5c.2-.2.5-.4.8-.6.6-.4 1.1-.7 1.7-1 2.3-1.1 4.6-2 7-2.7 2.3-.8 4.6-1.4 6.9-1.9 4.6-1.1 9.1-1.8 13.6-1.8 2.2 0 4.4.2 6.5.9 1 .4 2 .8 2.9 1.4.9.7 1.5 1.4 2.3 1.9 1.6 1.2 3.3 2 5 2.8 1.7.8 3.4 1.5 5.1 2.1 3.4 1.3 6.6 2.3 9.6 3.2 6.1 1.8 11.4 3 15.8 3.9 4.4.9 7.8 1.4 10.2 1.6 1.2.1 2.1.1 2.7.1.6 0 .9-.1.9-.1s-.3 0-.9.1c-.6 0-1.5 0-2.7-.1-2.4-.2-5.8-.6-10.2-1.4-4.4-.8-9.8-2-15.9-3.6-3.1-.9-6.3-1.8-9.7-3.1-1.7-.6-3.4-1.3-5.2-2.1-1.7-.8-3.5-1.7-5.2-2.9-.9-.6-1.6-1.4-2.3-1.9-.8-.6-1.7-.9-2.7-1.3-1.9-.6-4.1-.8-6.2-.8-4.3 0-8.8.8-13.3 1.9-2.3.6-4.6 1.2-6.8 2-2.3.8-4.6 1.6-6.8 2.7-.5.3-1.1.6-1.6.9-.5.4-1 .8-1.6 1.1-1.2.6-2.4 1.2-3.7 1.5-2.5.7-5.2 1.1-7.8 1.3-5.3.4-10.9-.1-16.3-1.8-.7-.2-1.3-.4-2-.7-.7-.3-1.3-.6-2-.9l-1.9-.9-1.9-.8c-2.6-1.1-5.3-2-8-2.9-5.4-1.8-11.1-3.4-16.7-5.4-1.4-.5-2.8-1.1-4.2-1.8-.7-.3-1.4-.8-2-1.2-.5-.4-1.2-.6-1.9-.9-2.8-.9-5.8-1.3-8.8-1.6-6-.6-12-.8-17.9-.7-2.9.1-5.9.3-8.7.7-1.4.2-2.9.5-4 1l-1 .4c-.4.2-.7.3-1.1.4l-1.1.3-1.1.3c-2.8.7-5.7 1.1-8.4 1.6-2.8.5-5.5 1-8.2 1.6-5.4 1.1-10.6 2.6-15.5 4.5s-9.5 4.2-13.6 6.9c-4.2 2.7-8 5.7-11.8 8.5-7.4 5.7-14.2 11.3-20.7 16-6.5 4.7-12.6 8.7-18.5 11.2-1.5.6-2.9 1.1-4.4 1.4-.7.2-1.5.3-2.2.4-.4 0-.7 0-1.1.1h-.5c-.1 0-.3.1-.4.2-2.4 1.3-4.5 2.7-6.3 4-3.6 2.6-6.1 5.2-7.2 7.2-.6 1-.8 1.9-.9 2.5-.1.3 0 .5-.1.7.3.5.2.6.2.6z" id="path5804"/>
        </g>
      </g>
    </g>
    <g id="g5806">
      <g id="g5808">
        <g id="g5810">
          <path class="st11" d="M54.5 181s.6 0 1.9-.3c1.2-.2 3.1-.6 5.4-1.3 4.8-1.2 11.4-4.1 20.4-6.9 2.2-.7 4.6-1.4 7.1-1.9 2.5-.6 5.2-1.1 8.1-1.2 1.4-.1 2.9 0 4.4.3.7.1 1.4.3 2.2.5.7.1 1.5.3 2.2.3 3 .4 6.2.4 9.5.2 6.6-.4 13.6-1.8 20.8-3.9 7.2-2.4 15.2-3.2 23.5-4 8.3-.7 17.1-1.2 26.2-1.3h6.9c2.3.1 4.6 0 6.9-.3 4.7-.5 9.4-1.4 14.2-2.4 9.6-2 19.4-4.6 29.2-8 1.2-.4 2.4-.9 3.7-1.4l1.9-.6 1-.3 1-.2 2-.4c.7-.1 1.4-.1 2-.1 1.4-.1 2.7 0 4.1.1 5.5.5 10.7 2.4 15.8 4.5 2.6 1.1 5.1 2.3 7.6 3.4s5.1 2.2 7.8 2.6c2.6.3 5.5-.2 8.2-.7 2.8-.5 5.5-1.3 8.3-2.1 5.5-1.6 11-3.6 16.4-5.8 2.7-1.1 5.4-2.2 8.1-3.5.7-.3 1.3-.6 2-1l1-.5c.4-.2.7-.4 1.1-.5 1.4-.6 2.9-1 4.3-1.5 5.8-1.7 11.7-2.9 17.8-4.1 6-1.1 12.1-2.1 18.3-2.7l4.7-.3h2.4c.8.1 1.6.1 2.5.4.5.1.8.3 1.1.4.4.2.7.3 1.1.4.7.2 1.4.5 2.1.5 1.4.2 2.9 0 4.3-.4 2.9-.9 5.8-2.2 8.7-3.4l2.2-.9c.7-.3 1.5-.6 2.2-.9.8-.3 1.5-.6 2.3-.8l2.4-.6c4.3-.9 8.7-1 13-1 4.3.1 8.6.4 12.8.9 8.4 1 16.6 2.7 24.6 4.8 3.9 1.2 7.9 1.9 11.8 2.4 4 .5 7.9.9 11.9 1.1 7.9.4 15.6.5 23-.3 3.7-.4 7.4-1 10.8-2.1.8-.3 1.6-.6 2.4-1l1.1-.7 1.2-.7c1.6-1 3.2-1.8 4.9-2.5 3.4-1.4 7-1.9 10.6-1.5 1.8.3 3.5.8 5 1.6 1.6.7 3 1.9 4.3 2.6 2.8 1.5 5.9 2.5 8.9 3.3 3 .8 6 1.4 9 1.9l2.2.3h.1l.4-.3c.3-.2.6-.5.9-.7 1.2-.9 2.6-1.6 4-2.1s2.8-.8 4.2-.9c.7-.1 1.4-.1 2.1-.1.4 0 .7 0 1.1.1.4 0 .6.1 1.3.2l.3.4.2.2.5.5c.3.3.7.6 1 .8.7.5 1.5.9 2.4 1.2 1.7.6 3.5.8 5.2.6.9 0 1.8-.2 2.6-.3.9-.2 1.8-.4 2.6-.6 1.8-.5 3.7-.6 5.5-.5 3.7.2 7.1 1.5 10.2 3.1 1.5.8 3 1.7 4.5 2.5.7.4 1.5.8 2.2 1.1.8.3 1.5.5 2.3.6 3.2.4 6.5-.6 9.5-1.6 3.1-1.1 6-2.3 8.9-3.6 5.8-2.5 11.6-4.7 17.1-6.7 5.6-2 10.9-3.9 16.2-5.6 2.6-.9 5.2-1.7 7.7-2.4 1.3-.4 2.5-.7 3.8-1 .6-.2 1.3-.3 1.9-.4h1c.3 0 .6.1.9.1 2.5 0 5-.2 7.4-.3 2.4-.2 4.7-.4 7-.7 4.6-.5 8.9-1 13-1.7 2-.3 4-.7 5.9-1.1.9-.2 1.9-.4 2.9-.5.5 0 .9-.1 1.4-.1h1.4c3.7.2 7 1 10.1 1.8 6.1 1.6 11.2 3.5 15.2 5 4 1.6 7.1 2.8 9.1 3.7l3.1 1.4s-1-.5-3.1-1.3c-2-.9-5.1-2.1-9.1-3.6-4.1-1.5-9.1-3.3-15.2-4.9-3.1-.8-6.4-1.5-10.1-1.7h-1.4c-.5 0-.9 0-1.4.1-.9.1-1.9.3-2.8.5-1.9.4-3.9.7-5.9 1.1-4.1.7-8.4 1.2-13 1.8-2.3.3-4.6.5-7 .7-2.4.2-4.9.4-7.4.4-.3 0-.7 0-1-.1h-.9c-.6.1-1.2.2-1.9.4-1.2.3-2.5.7-3.8 1-2.5.8-5.1 1.6-7.7 2.5-5.2 1.7-10.6 3.7-16.1 5.7-5.5 2.1-11.3 4.2-17 6.8-2.9 1.3-5.9 2.5-9 3.6-1.6.5-3.1 1-4.8 1.4-1.6.3-3.4.6-5.1.3-.9-.1-1.7-.3-2.6-.6-.8-.3-1.6-.7-2.3-1.1-1.5-.8-3-1.7-4.5-2.5-3-1.6-6.3-2.8-9.8-3-1.7-.1-3.5 0-5.2.5l-2.7.6c-.9.1-1.8.3-2.8.4-1.9.1-3.8-.1-5.7-.7-.9-.3-1.8-.7-2.6-1.3l-1.2-.9c-.2-.2-.4-.3-.5-.5l-.3-.3-.1-.1s-.4-.1-.7-.1c-.3 0-.7 0-1-.1-.7 0-1.3 0-2 .1-1.3.1-2.7.4-4 .9-1.3.5-2.6 1.1-3.7 1.9-.3.2-.6.4-.8.7l-.5.4c-.1.1-.2.3-.4.3l-.5-.1-2.2-.3c-3-.5-6-1.1-9.1-1.9-3.1-.8-6.2-1.8-9.2-3.4-1.5-.9-2.7-1.9-4.2-2.6-1.5-.7-3-1.2-4.7-1.4-3.3-.4-6.7.1-9.9 1.4-1.6.6-3.2 1.5-4.7 2.4l-.8 1-1.2.7c-.8.4-1.7.8-2.6 1.1-1.8.6-3.6 1-5.5 1.4-1.8.3-3.7.6-5.6.8-7.5.8-15.3.8-23.2.3-4-.2-8-.6-12-1.1-4-.5-8.1-1.3-12-2.4-7.9-2.1-16.1-3.7-24.4-4.8-4.2-.5-8.4-.9-12.6-.9-4.2-.1-8.5.1-12.6.9-3.1.6-5.9 1.8-8.8 3.1-2.9 1.2-5.8 2.5-8.9 3.4-.8.2-1.6.4-2.4.5-.8.1-1.7.1-2.5 0-1.7-.2-3.2-.9-4.6-1.4-.6-.2-1.4-.3-2.1-.3h-2.3c-1.5 0-3.1.1-4.6.3-6.1.6-12.2 1.5-18.2 2.6s-11.9 2.4-17.6 4c-1.4.4-2.8.9-4.2 1.4-.3.1-.7.3-.9.4l-1 .5c-.7.4-1.4.7-2 1-2.7 1.3-5.5 2.4-8.2 3.5-5.5 2.2-11 4.1-16.6 5.8-2.8.8-5.6 1.6-8.4 2.1-2.8.5-5.7 1-8.7.7-3-.4-5.6-1.6-8.1-2.7-2.6-1.1-5.1-2.3-7.6-3.4-5-2.2-10.2-4-15.4-4.5-1.3 0-2.6-.2-3.9-.1-.7 0-1.3.1-1.9.1l-1.9.3-1 .2-.9.3-1.8.6c-1.2.4-2.5.9-3.7 1.4-9.9 3.5-19.8 5.9-29.4 8-4.8 1-9.6 1.8-14.3 2.4-2.3.3-4.8.4-7.1.3-2.3-.1-4.6-.1-6.9-.1-9.1.1-17.8.5-26.1 1.2-8.3.8-16.2 1.5-23.4 3.9-7.2 2.1-14.3 3.4-20.9 3.8-3.3.2-6.5.2-9.6-.2-.8-.1-1.5-.2-2.3-.4-.7-.2-1.5-.4-2.2-.5-1.4-.3-2.9-.4-4.3-.3-2.8.1-5.5.6-8 1.1-2.5.5-4.9 1.2-7.1 1.9-8.9 2.7-15.6 5.5-20.4 6.7-2.4.6-4.2 1-5.4 1.3-1.6.1-2.2.1-2.2.1z" id="path5812"/>
        </g>
      </g>
    </g>
    <g id="g5814">
      <g id="g5816">
        <g id="g5818">
          <path class="st12" d="M676 349s-.4-.1-1-.3c-.7-.2-1.7-.6-3-1-2.6-.9-6.5-2.5-11.3-4.8-4.8-2.4-10.4-5.6-16.5-10.2-1.5-1.1-3-2.4-4.5-3.7-1.5-1.4-3-2.8-4.3-4.6-1.1-4.2-4.4-7.6-7.9-10.7-1.8-1.5-3.8-3-5.9-4.3-2.1-1.3-4.4-2.4-6.6-3.9-1.1-.8-2.1-1.7-2.7-2.9-.7-1.2-.8-2.6-1-4-.2-1.3-.4-2.7-.8-3.9-.5-1.2-1.4-2.3-2.4-3.2-2-1.9-4.4-3.5-6.8-5-2.5-1.5-5-2.9-7.7-4.2-5.3-2.7-10.9-5.2-16.7-7.6-1.5-.6-2.9-1.2-4.4-1.8-.7-.3-1.5-.7-2.2-1-.7-.3-1.4-.8-2.1-1.2-2.8-1.7-5.3-3.9-7.4-6.5-4.2-5.2-6.8-11.6-11.3-16.6-2.3-2.5-5-4.7-8-6.3-3-1.6-6.4-2.7-9.8-3.6-3.4-.9-6.9-1.4-10.4-2.1-1.8-.4-3.6-.8-5.3-1.6-.4-.2-.8-.5-1.2-.8-.4-.3-.7-.8-.9-1.1-.5-.6-1.3-1.1-2-1.6-3-1.9-6.4-3.2-9.7-4.5-3.3-1.2-6.7-2.3-10.1-3.3-3.4-.9-6.8-1.8-10.2-2.4-1.7-.3-3.4-.6-5.1-.7-1.7-.2-3.4-.2-5.1-.3-6.8-.5-13.5-1.3-20.1-2.3-3.3-.5-6.5-1.1-9.6-1.9-1.6-.4-3.1-.8-4.7-1.3l-4.5-1.5c-6-1.8-12-3.3-17.8-4.3-1.5-.3-2.9-.5-4.4-.7-.7-.1-1.4-.2-2.2-.2-.7 0-1.4-.1-2.2-.1-2.9-.3-5.7-1.1-8.4-1.8-5.4-1.6-10.5-3.4-15.3-5.4-2.4-1-4.7-2.1-6.9-3.5-.5-.3-1-.8-1.5-1.2-.4-.4-.9-.7-1.5-.9-1.1-.5-2.2-.9-3.4-1.2-4.6-1.2-9.1-1.6-13.4-2-4.3-.3-8.3-.4-12.1-.2-.9 0-1.9.1-2.8.2l-2.7.3c-.9.1-1.7 0-2.6.1-.8 0-1.7-.1-2.5-.1-3.2-.2-6.2-.7-8.8-1.1-5.2-.9-9.3-1.9-12-2.5-2.7-.7-4.1-1.1-4.1-1.1s1.4.4 4.1 1c2.7.6 6.8 1.6 12 2.4 2.6.4 5.6.8 8.8 1 .8 0 1.6.1 2.5.1.8 0 1.7 0 2.6-.1l2.7-.3c.9-.1 1.8-.2 2.8-.2 3.8-.2 7.8-.2 12.1.1 4.3.3 8.8.8 13.5 1.9 1.2.3 2.3.6 3.5 1.2.6.3 1.1.6 1.6 1s.9.8 1.4 1.1c2.1 1.3 4.4 2.4 6.8 3.4 4.8 2 9.9 3.8 15.3 5.3 2.7.7 5.4 1.5 8.3 1.8.7.1 1.4.1 2.2.1.7 0 1.5.1 2.2.2 1.5.2 2.9.4 4.4.7 5.9 1.1 11.9 2.5 17.9 4.3 1.5.4 3 .9 4.5 1.5 1.5.5 3 .9 4.6 1.3 3.1.7 6.3 1.3 9.6 1.9 6.5 1 13.2 1.8 20 2.2l5.2.3c1.7.2 3.5.4 5.2.7 3.4.6 6.9 1.4 10.3 2.4 3.4 1 6.8 2 10.2 3.3 3.4 1.3 6.7 2.6 9.9 4.6.8.5 1.6 1 2.2 1.8.4.4.5.7.8 1 .3.3.7.5 1 .7 1.5.8 3.3 1.1 5 1.5 3.5.7 7 1.3 10.5 2.2 3.4.9 6.8 2 10 3.7 3.1 1.6 5.9 3.9 8.2 6.5 4.7 5.2 7.2 11.6 11.3 16.7 2 2.5 4.4 4.7 7.2 6.4 2.7 1.7 5.7 2.7 8.6 4 5.8 2.4 11.4 5 16.7 7.7 2.7 1.4 5.2 2.8 7.7 4.3s4.9 3.1 6.9 5.1c1 1 2 2.1 2.5 3.4.4 1.4.6 2.7.8 4.1.2 1.3.3 2.7.9 3.8.6 1.1 1.5 2 2.6 2.8 2.1 1.5 4.4 2.5 6.5 3.9 2.1 1.3 4.1 2.8 5.9 4.4 1.8 1.6 3.5 3.2 4.9 5 .7.9 1.4 1.8 1.9 2.8.1.2.2.5.3.8.1.3.2.5.3.8.1.3.1.5.2.7.1.2.2.5.4.7 1.2 1.8 2.7 3.2 4.2 4.6 1.5 1.4 3 2.6 4.5 3.7 6 4.6 11.7 7.9 16.4 10.3 4.7 2.4 8.6 4 11.2 4.9 1.3.5 2.3.8 3 1 .7-.2 1-.1 1-.1z" id="path5820"/>
        </g>
      </g>
    </g>
    <path class="st13" d="M1173.3 228.6s1.1-8.9-4.4-15.6c-1.2-7.5-2.7-22-17.6-31.9-.5-2 .3-3.5-4.4-5.2-4.7-1.7-8.7-2.2-14-7.2-.5-1.9.5-6-11.4-5.6-3.2-2.1-7.2-3.6-7.2-3.6s.6-3.6-3-4.1c-3.6-.5-9.3-.9-12.4 2-3.1 2.9-4.6 5.6-4.6 5.6l-6.4.5-7.2-.1s.4-11.3-11.6-11.1c-2 .5-5.5.2-7.1-1.6-1.5-1.8-11.8 3.2-11.8 3.2s-3.7 6.2-1 8.4l2.1 1.2-2.5 2s-1.4.9.9 3.3 4.5 4.2 7.8 10.8c3.3 6.6 8.2 10.5 8.2 10.5s4.9 3.9 8.1 7.8c3.2 3.9 7.6 7.5 10.8 9.1 4.3 4.5 6.7 6.2 6.8 12.4.1 6.2.6 13.1 6.2 16.4 5.6 3.3 10.1 7.3 10.1 7.3s1.8 2.3 3.7 5.3c1.9 3 6.2 7.5 6.2 7.5l13.5-5.4 1.34-.1s2.56-4.6 6.66-5.9c4.1-1.3 20.3-6.7 20.3-6.7l6.8-4z" id="path5822" fill="#bfbfbf"/>
    <path class="st14" d="M1117.5 167.8l3.1-.7 2.1-1.1 3.9.5 3.9 1.2.5 1.9s.7 3.2-2.7 3.5c-3.5.3-4.7.3-4.7.3l-3-1.9-3.1-3.7z" id="path5824"/>
    <path class="st15" d="M1243.1 220.9s18.4 7.5 36.9 11.8c18.5 4.3 26.8 5.4 37.3 3.9 10.5-1.5 23.1-3 28.9-3.2 5.8-.2 13.6.5 19.8 1.6 6.2 1.1 12.4 2.8 25.1 1.8s15.5-1.1 15.5-1.1-6.9 8.1-12.6 10.5c-5.7 2.4-10 4-19.8 3-9.8-.9-31.7 4.6-31.7 4.6l-31.4 10.1-6-4.6s1-7.3-7.9-10.8c-3.2-2.4-5.7-2.5-5.7-2.5l-.2-1.9s1.3-2.5-5-.8-17.5 5.8-17.5 5.8l-10.2 5.6-.9-1.3 1.3-3.7s-1.2-2.7-2.5-4.2c-1.4-1.5-1-2.1-1-2.1s-5.9-16.8-12.4-22.5z" id="path5826"/>
    <path d="M1237.6 266.3c-.54-1.8-2.7-3.48-1.5-5.38 1.53-3.02-.9-.4-2.12.5-4.64 4.04-9.7 7.52-14.86 10.88-5.47 3.52-10.15 9.32-17.17 9.43-4.08-.73-11.03-2.73-9.65-8.13 3.53-7.9 11.8-12.12 19.23-15.73 6.36-3.3 13.37-5.6 18.84-10.37 3.34-2.43 6.48-5.17 9.7-7.7 3.02-.9 5.94-2.42 9.03-2.86 4.42 2.16 5.67 8.05 9.4 11.16.38 2.87-1.45 8.38 2.74 4.96 3.77-2.24 7.62-4.3 11.84-5.58 5.25-1.7 10.25-4.5 15.83-4.85 3.8.18 3.1 4.43 7 4.76 4.4 2.1 9.1 4.7 9.7 10.2 1 4.9 7.3 6.5 10.1 10.6 4.1 4.3 7.8 9.9 7.2 16.1-3.4-.1-7.2-5.2-11.6-4.2-2.6.8-3.5 8.4-6.2 2.9-1-5.4-1.2 3.9-2.3 5.7-1.6 4-2.5 13.8-8.3 11.9-4.6-4.5-9.4-9.7-9.5-16.5-1.5-3.9 3.2-10.5 1.5-12.4-7.8 1.7-15.7 5.3-23.9 3.1-2.4.7 1.1 7.7.2 11.2 0 3.5-.33 8.9-4.1 4.5-6.1-2.9-7.72 6.1-11.3 9-2.33-3.7-1.1-9.5-2.5-14-.8-4.6-1.72-9.2-2.73-13.7-1.4-2-3.2-3.7-4.1-5.9z" id="path5828" fill="#d1d1d1"/>
    <path class="st17" d="M1255.3 243.4s-3.3-14.1-19.7-31.8c.1-.8-14.5-11.2-29-15.7-10.7-1.7-11.4-2.3-11.4-2.3s-13.4-6.1-32.2-.8c3 5.9 3.9 10.2 3.9 10.2s8.7-4.1 15-5c-3.7 2.5-6.7 4.8-6.7 4.8s16.9-6.5 31.3-2.3c14.4 4.2 37.8 16.5 47.5 40.8l.9 1.4" id="path5830"/>
    <path class="st8" d="M1153.7 282.4s6.7 4.4 14.4 3.7c7.7-.7 16.3-1.2 16.3-1.2l7.7.5 4.9.9s5.1-.6 5.6-4.6c7.1-2.4 22.1-13.1 22.1-13.1l12.9-10.7s-2.7 2.8-1.1 5.8 3.1 6.6 4.6 7.7 2 4.5 2 4.5l-6.6 6.8s-4.7 2.3-7.5-.6c-1.5 2.2-3.1 4.8-11.5.1-4.1 3-12.5 7.2-22.5 5.5-5.1.6-10 1.9-10 1.9s-6.3 1.7-11.2 2.1-16.7-.4-16.7-.4-8-.5-9.8-5.1c5.8-3.3 6.4-3.8 6.4-3.8z" id="path5832"/>
    <path class="st16" d="M1187.2 217.4s4.1-2.8 6.9-2.8c2.8.1 6.6 1 7.4 1.8.8.7 2.3.9 1.3 4.5-1 3.6 2.3 6.4 5.4 5.8 3.1-.6 7.6-1.4 9.7.3 2 1.7 5.6 4.6 1.7 8-4 3.4-13.9 9.1-13.9 9.1l-11 9.5-10.8 10-13.3 9.3-13.4 8.4s-7.9 3-9.9 5-8.8 9.3-8.8 9.3l-17.8 13.4-8.3 5-15.3 2.8 3.1-4.8 22.8-23.6s3.5-5.25 4.1-8.45c.6-3.1 3.1-4.55 3.1-4.55s2.3-3.2-.4-8.9c-2.7-5.7-9.5-5.2-9-6 .6-.8 10.3-6.8 10.3-6.8s.8-6.1 9.5-9.9c6.3-1.2 13-3.5 13-3.5l9-4.3 5.5-3.9 5.1-2.9 6.2-4.5 3.4-3.1z" id="path5834" fill="#d1d1d1"/>
    <path class="st16" d="M1089.1 266.4s-6.8 1-10.2-2.5c-3.9-1.7-9.5-2.6-15-2.6s-24.8-1.4-27.4-4.4c-1.4 1.1-3.5 1.4-4.2.7-.8-.7-8.2-5.9-8.2-5.9s-6.2-.8-7.9 2.1c-1.7 2.9-5 6.1-8.1 6.6-3.1.5-6.1 3.8-4.8 6.6 1.3 2.8 4.6 10.7 4.5 12.9-.2 2.2 1.5 8.9 5.5 12.5-.4 5 3.8 21.6 6.4 25.9 2.7 4.2 6.4 8 6.4 8s3.5 4.8-4.2 4.7c-7.7-.1-22.3-15.2-22.3-15.2s-9.6-16-10.9-30c-2.98-15.26-2.1-22.9 4.6-33.2 6.7-10.3 8.3-13.2 13.7-12.3 4.2-5.8 12.8-11.5 12.8-11.5l12.1-4.9s1.2-3.9 9.1-.6c7.1 1.4 25.3 5.2 31.4 8.9 6.1 3.7 11.7 6.5 14.4 7.4 2.8.9 8.8 6.6 11.6 11.8-2.8 1.1-5.7 1.7-5.7 1.7l-4.8 3.6c-.2.1-3.4 4.2 1.2 9.7z" id="path5836" fill="#d1d1d1"/>
    <path class="st8" id="polygon5838" d="M1286.8 272.4l2.6-7.9 1.3-4.7-4.2-.9-2.2.5-5.3.9-5.3 2.4-12.9 6.2.7 5.8 3.4 1.1 4.4.2z"/>
    <g id="g5840">
      <g id="g5842">
        <g id="g5844">
          <path d="M1247.5 141c15.18-11.48 29.97-23.48 45.4-34.62 8.7-4.54 19.14-7.72 28.95-5.47 5 4.3 10.85 7.8 17.55 8.9 9.52 1.3 16.7 8.5 25.8 11 10.68-6.2 24.63-9.4 35.94-2.8 5.1 3.2 10.22 6.5 16.3 7.5 7.4 1.8 14.93 3 22.46 4.1-10.6-1.4-21.54-2.2-31.5-6.3-7.62-5.2-16.8-9.3-26.24-7.3-6.28.5-11.84 4.7-17.45 6.2-9.4-2.6-16.9-9.9-26.8-11.1-7.5-.7-12.4-7-18.9-9.3-12.1-.9-24.4 3.6-33.6 11.6-12.5 9.4-25.2 18.5-37.8 27.8z" id="path5846" fill="#8d8d8d"/>
        </g>
      </g>
    </g>
    <g id="g5848">
      <g id="g5850">
        <g id="g5852">
          <path class="st10" d="M1198.5 123.5s-.5-.1-1.3-.3c-.8-.2-2-.5-3.4-1-2.8-1-6.6-2.8-10.3-5.6-.9-.7-1.8-1.4-2.6-2.2l-.6-.6c-.2-.2-.4-.5-.5-.6-.3-.3-.7-.6-1-.9-1.5-1.1-3.2-1.8-4.5-2.4-2.7-1.2-4.4-1.9-4.4-1.9s1.8.4 4.6 1.3c1.4.5 3.1 1.1 4.8 2.2.2.1.4.3.6.5l.6.6c.2.2.3.4.5.6l.5.5c.8.7 1.6 1.4 2.5 2.1 3.6 2.7 7.1 4.7 9.8 6 1.3.6 2.4 1.1 3.2 1.4 1.1.1 1.5.3 1.5.3z" id="path5854"/>
        </g>
      </g>
    </g>
    <g id="g5856">
      <g id="g5858">
        <g id="g5860">
          <path class="st10" d="M1303 110.2s-.3.1-.7.3c-.5.2-1.1.5-1.9.9-1.5.8-3.6 2.1-5.8 3.7-4.3 3.1-7.7 6-7.7 6s.7-.9 1.9-2.1c1.2-1.3 3-3 5.2-4.6 2.2-1.6 4.4-2.7 6.1-3.3.8-.3 1.5-.5 2-.6.6-.3.9-.3.9-.3z" id="path5862"/>
        </g>
      </g>
    </g>
    <g id="g5864">
      <g id="g5866">
        <g id="g5868">
          <path class="st10" d="M889 135.7s-.5.2-1.4.6c-.9.4-2.1 1-3.6 1.9-3 1.7-6.9 4.3-11.3 7.2L857 156s6.5-5.5 15.3-11.3c4.4-2.9 8.5-5.4 11.6-6.9 1.5-.8 2.8-1.3 3.7-1.6.9-.4 1.4-.5 1.4-.5z" id="path5870"/>
        </g>
      </g>
    </g>
    <g id="g5872">
      <g id="g5874">
        <g id="g5876">
          <path d="M1380.7 159c-3.6-6-13.7-4.13-16.1-11.5-2.68-4.06-6.33 1.67-8.66 3.66-3.08 3.3-9.15 7.23-10.75 9.82 4.1-5.64 9.9-9.88 14.6-15.08 6.1-4.4 6.6 6.93 12.4 7.1 3.1 1.42 7 2.53 8.4 6z" id="path5878" fill="#8d8d8d"/>
        </g>
      </g>
    </g>
    <g id="g5880">
      <g id="g5882">
        <g id="g5884">
          <path d="M1338.7 143.7c-2.77 6.08-10.25 6.8-14.3 11.7-5.22 5.63 2.1-4.22 4.43-5.15 3.47-1.93 7.48-3.05 9.87-6.55z" id="path5886" fill="#8d8d8d"/>
        </g>
      </g>
    </g>
    <g id="g5888">
      <g id="g5890">
        <g id="g5892">
          <path class="st10" d="M1038.5 122.8s-.9-.3-2.5-.8-3.9-1.3-6.7-2.3c-1.4-.6-2.9-1.1-4.5-2.1-1.5-1-2.9-2.3-4.4-3.5-1.5-1.3-3.1-2.5-5-3.3-1.9-.7-4.1-1.2-6.3-.9-1.1.1-2.1.5-3.1.9s-2.1.8-3 1.2c-1.9.9-3.6 2.1-5.2 3.2s-3.2 2.1-4.6 3.1c-1.5 1-2.8 2-4.2 2.6-2.7 1.2-5 1.9-6.6 2.5-1.6.5-2.5.8-2.5.8s.9-.3 2.4-.9c1.5-.6 3.8-1.5 6.5-2.8 1.3-.6 2.6-1.7 4-2.7 1.4-1 2.9-2.1 4.6-3.3 1.6-1.1 3.3-2.3 5.3-3.3 1-.5 2-.9 3-1.3s2.2-.8 3.3-.9c1.2-.2 2.4-.1 3.5.1s2.2.5 3.2.9c2.1.9 3.7 2.2 5.2 3.5 1.5 1.3 2.8 2.6 4.2 3.6 1.4 1 2.9 1.6 4.3 2.2 2.7 1.2 5 2 6.5 2.6 1.7.5 2.6.9 2.6.9z" id="path5894"/>
        </g>
      </g>
    </g>
    <g id="g5896">
      <g id="g5898">
        <g id="g5900">
          <path class="st10" d="M1047.8 128h-2.4c-1.5-.1-3.6-.3-5.8-.7-2.2-.5-4.2-1.2-5.6-1.8-1.4-.6-2.1-1.2-2.1-1.2s.9.3 2.3.7c1.4.4 3.4.9 5.6 1.4 2.2.5 4.2.9 5.7 1.2 1.3.2 2.3.4 2.3.4z" id="path5902"/>
        </g>
      </g>
    </g>
    <g id="g5904">
      <g id="g5906">
        <g id="g5908">
          <path class="st10" d="M1009.8 148h-2.4c-1.5-.1-3.6-.3-5.8-.7-2.2-.5-4.2-1.2-5.6-1.8-1.4-.6-2.1-1.2-2.1-1.2s.9.3 2.3.7c1.4.4 3.4.9 5.6 1.4 2.2.5 4.2.9 5.7 1.2 1.3.2 2.3.4 2.3.4z" id="path5910"/>
        </g>
      </g>
    </g>
    <g id="g5912">
      <g id="g5914">
        <g id="g5916">
          <path class="st10" d="M807.2 117.2s-.4 0-1.2.1c-.8.1-1.8.3-3.1.8s-2.7 1.1-4.1 2.3c-.7.5-1.2 1.2-2 2-.7.7-1.6 1.4-2.5 2-3.5 2.4-7 4-9.6 5-2.5 1.1-4.2 1.6-4.2 1.6l3.9-2.1c2.4-1.3 5.7-3.2 9.1-5.5l2.4-1.8c.7-.6 1.4-1.4 2.1-2 1.5-1.1 3.2-1.7 4.5-2 1.4-.3 2.5-.4 3.3-.4h1.4z" id="path5918"/>
        </g>
      </g>
    </g>
    <g id="g5920">
      <g id="g5922">
        <g id="g5924">
          <path class="st10" d="M919.2 135.2s-.4 0-1.2.1c-.8.1-1.8.3-3.1.8s-2.7 1.1-4.1 2.3c-.7.5-1.2 1.2-2 2-.7.7-1.6 1.4-2.5 2-3.5 2.4-7 4-9.6 5-2.5 1.1-4.2 1.6-4.2 1.6l3.9-2.1c2.4-1.3 5.7-3.2 9.1-5.5l2.4-1.8c.7-.6 1.4-1.4 2.1-2 1.5-1.1 3.2-1.7 4.5-2 1.4-.3 2.5-.4 3.3-.4h1.4z" id="path5926"/>
        </g>
      </g>
    </g>
    <g id="g5928">
      <g id="g5930">
        <g id="g5932">
          <path class="st10" d="M982.2 85.8s0-.2-.1-.4c-.1-.3-.1-.7-.2-1.2-.2-1-.5-2.3-1-3.7-.5-1.4-1-2.6-1.4-3.5-.4-.9-.8-1.4-.8-1.4s.5.4 1.1 1.2c.6.8 1.4 2 1.9 3.5s.6 2.9.6 3.9c0 .5-.1.9-.1 1.2v.4z" id="path5934"/>
        </g>
      </g>
    </g>
    <g id="g5936">
      <g id="g5938">
        <g id="g5940">
          <path class="st10" d="M384.2 183.2h-1.4c-.9 0-2.3-.1-4-.3-3.4-.4-8.4-1.5-14.3-3.2-3-.9-6.2-1.9-9.7-2.9-1.7-.5-3.6-1.1-5.4-1.4-.9-.1-1.9-.1-2.9 0s-2 .2-3 .4c-2 .4-4 .8-6.1 1.4-1 .3-2.1.5-3.1.8-1 .4-2.1.7-3.2 1-1.1.3-2.2.6-3.3.8-.6.1-1.2.2-1.8.2-.6 0-1.2-.1-1.8-.1-2.3-.3-4.6-.9-6.9-1.7-2.2-.8-4.4-1.9-6.3-3.4-1.7-1.5-3.6-2.6-5.7-3.2-1-.3-2.1-.5-3.1-.5-.5 0-1 .1-1.5.2s-1 .2-1.6.4c-2.1.5-4 1.2-5.9 2-1.9.8-3.7 1.6-5.5 2.4-.9.4-1.7.9-2.6 1.3-.9.4-1.7.8-2.6 1.1-3.4 1.3-6.8 2.1-9.8 2.7-6.1 1.1-11.1 1.5-14.6 1.7-3.5.2-5.4.2-5.4.2l5.4-.3c3.5-.3 8.5-.8 14.5-2 3-.6 6.3-1.4 9.7-2.8.8-.3 1.6-.8 2.5-1.2.8-.4 1.7-.9 2.6-1.3 1.7-.9 3.6-1.7 5.5-2.5s3.9-1.5 6-2.1c.5-.1 1.1-.3 1.6-.4.5-.1 1.1-.3 1.7-.2 1.1 0 2.3.2 3.4.5s2.2.8 3.2 1.3c1 .6 2 1.3 2.9 2 1.7 1.4 3.8 2.5 6 3.3 2.2.8 4.4 1.4 6.7 1.7.6.1 1.1.1 1.7.1.5 0 1.1-.1 1.6-.2 1.1-.2 2.2-.5 3.2-.8 1.1-.3 2.1-.6 3.1-1 1.1-.3 2.1-.6 3.2-.8 2.1-.5 4.2-1 6.2-1.3 1-.2 2-.3 3-.4 1-.1 2-.1 3 .1 2 .4 3.7.9 5.5 1.5 3.5 1.1 6.7 2.2 9.7 3.1 5.9 1.8 10.8 3 14.2 3.5 1.7.2 3.1.4 4 .4.9-.2 1.4-.1 1.4-.1z" id="path5942"/>
        </g>
      </g>
    </g>
    <g id="g5944">
      <g id="g5946">
        <g id="g5948">
          <path class="st10" d="M555.3 181.2s.4 0 1.1-.1c.7 0 1.8-.2 3.2-.3 2.8-.4 6.7-1.4 11.5-2.9 2.4-.8 5-1.6 7.8-2.5 1.4-.4 2.9-.9 4.5-1.2.8-.1 1.7-.1 2.5 0l2.5.3c1.6.3 3.3.6 5 1.1.9.2 1.7.4 2.6.7.8.3 1.7.6 2.5.8.9.2 1.7.5 2.6.6.4.1.9.1 1.3.1s.9-.1 1.3-.1c1.8-.3 3.6-.7 5.4-1.3 1.8-.6 3.4-1.5 4.8-2.6 1.4-1.2 3.1-2.2 4.9-2.7.9-.3 1.8-.4 2.8-.4.5 0 1 .1 1.4.2l1.3.3c1.7.5 3.3 1.1 4.9 1.7 1.5.6 3 1.3 4.4 2 .7.3 1.4.7 2.1 1.1.7.3 1.3.7 2 .9 2.7 1.1 5.4 1.8 7.8 2.3 4.9 1 9 1.4 11.7 1.6l4.3.3s-1.6 0-4.4-.1c-2.8-.2-6.9-.4-11.8-1.3-2.5-.5-5.2-1.1-8-2.1-.7-.2-1.4-.6-2.1-.9-.7-.3-1.4-.7-2.1-1-1.4-.7-2.9-1.3-4.4-1.9-1.5-.6-3.1-1.2-4.8-1.6-.4-.1-.8-.2-1.3-.3-.4-.1-.9-.2-1.2-.2-.8 0-1.7.2-2.5.4-1.7.5-3.2 1.4-4.6 2.6-1.5 1.2-3.3 2.1-5.1 2.8-1.8.7-3.7 1.1-5.6 1.4-.5.1-.9.1-1.4.1-.5 0-1-.1-1.5-.1-.9-.2-1.8-.4-2.7-.7-.9-.3-1.7-.5-2.6-.8-.8-.2-1.7-.5-2.5-.7-1.7-.4-3.3-.8-4.9-1.1-.8-.2-1.6-.3-2.4-.4-.8-.1-1.6-.1-2.3 0-1.5.3-3 .7-4.4 1.1-2.8.8-5.4 1.7-7.9 2.4-4.8 1.4-8.8 2.2-11.6 2.6-1.4.2-2.5.2-3.2.2-.5-.3-.9-.3-.9-.3z" id="path5950"/>
        </g>
      </g>
    </g>
    <g id="g5952">
      <g id="g5954">
        <g id="g5956">
          <path class="st10" d="M459 148s-.1 0-.3-.1c-.2-.1-.6-.2-1-.4-.8-.3-1.9-1-3.2-2-1.3-1-2.6-2.3-4.3-3.5-1.6-1.2-3.6-2.2-5.9-2.7-1.1-.2-2.3-.3-3.4-.3-1.1-.1-2.2-.1-3.3-.1-2.1-.1-4-.1-5.5 0-3.2 0-5.1.2-5.1.2s1.9-.4 5.1-.8c1.6-.2 3.5-.3 5.6-.4h3.3c1.1 0 2.4.1 3.6.3 1.2.2 2.4.7 3.5 1.2 1 .6 2 1.2 2.8 1.9 1.7 1.3 2.9 2.7 4.1 3.8 1.1 1.1 2.1 1.9 2.9 2.3.4.3.7.4.9.5.1 0 .2.1.2.1z" id="path5958"/>
        </g>
      </g>
    </g>
    <g id="g5960">
      <g id="g5962">
        <g id="g5964">
          <path class="st10" d="M632.6 154.4s-.2 0-.4-.1c-.3-.1-.7-.2-1.1-.4-.9-.4-2.1-1.1-3.2-2.2-.3-.3-.5-.6-.7-.9-.1-.2-.2-.3-.3-.5l-.2-.4c-.3-.5-.8-.9-1.1-1.2-.7-.6-1.2-1-1.2-1s.6.2 1.5.6c.4.2 1 .5 1.5 1.1.1.1.3.3.3.4.1.1.2.2.3.4.2.3.4.5.7.8 1 1 2 1.9 2.8 2.5.5.7 1.1.9 1.1.9z" id="path5966"/>
        </g>
      </g>
    </g>
    <g id="g5968">
      <g id="g5970">
        <g id="g5972">
          <path d="M1436 77.5c-1.14-1.45-2.28-2.92-3.2-4.52-1.9-3.25-2.84-6.92-3.85-10.52-.75-2.44-1.57-5.03-3.5-6.83-1.16-1.2-2.73-1.95-4.35-2.33 2.03-.03 3.97.9 5.43 2.27 2.54 2.3 3.45 5.7 4.4 8.87.8 3.1 1.64 6.22 3.17 9.06.47 1 1.07 1.95 1.54 2.95.1.35.2.7.36 1.05z" id="path5974" fill="#8d8d8d"/>
        </g>
      </g>
    </g>
    <g id="g5976">
      <g id="g5978">
        <g id="g5980">
          <path d="M1344 22c-2.57 1.98-4.87 4.4-6.44 7.27-.78 1.46-1.2 3.12-2.36 4.36-2.16 2.43-5.05 4.07-7.96 5.44-2.2 1.02-4.5 1.82-6.84 2.43 4.14-2.2 8.24-4.55 11.9-7.5 1.04-.92 2.13-1.9 2.7-3.2.86-1.65 1.8-3.28 3.14-4.6 1.66-1.77 3.7-3.1 5.86-4.2z" id="path5982" fill="#8d8d8d"/>
        </g>
      </g>
    </g>
    <g id="g5984">
      <g id="g5986">
        <g id="g5988">
          <path d="M1258.5 60c-1.52 1.9-2.06 4.35-3.46 6.32-1.3 1.63-3.22 2.6-5.2 3.12-2.3.57-4.7.93-6.8 2.04-4.82 2.4-8.94 5.97-12.54 9.92 2.6-3.7 5.87-7 9.6-9.6 2.5-1.63 5.34-2.78 8.32-3.14 2.22-.4 4.54-1.1 6.08-2.85 1.43-1.7 2.17-3.9 3.8-5.5l.14-.2h.06z" id="path5990" fill="#8d8d8d"/>
        </g>
      </g>
    </g>
  </g>
  <g id="Laag_4">
    <path class="st18" d="M1244.5 221.5s49.8 19.4 71.9 15.5c22.1-3.9 39.2-4.8 52.6-1.4 13.4 3.4 38.1-.2 38.1-.2s-12.1 14.3-25.9 13.9c-20.2-.5-31.4 1.1-68 13.8-28.3 9.8-41.7 14.7-51.8 11.8" id="path5993"/>
    <path class="st18" d="M1305.3 259.5s7.6 4.1 13.1 13.8 6.3 13.2 1.7 10.5c-4.6-2.7-8.5-6-11.4-1.1-.4 2.3-3.1 5.4-4.1-1.2" id="path5995"/>
    <path class="st19" d="M1296.7 248.8s-2.9 6.5-7.1 7.1c1.8 2.7 1 6.1.2 8.2-.8 2.1-6.6 17-5.3 21.6 1.3 4.6 5.5 12.5 8 14.4 2.5 1.9 4.9 4.1 7.5-3.4 2.6-7.5 13.1-46.1-3.3-47.9z" id="path5997"/>
    <g id="g5999">
      <g id="g6001">
        <g id="g6003">
          <path class="st20" d="M1296.3 297.4s-.1-.6-.2-1.7c-.2-1.1-.3-2.7-.4-4.7-.2-4-.1-9.6.5-15.7s1.5-11.6 2.3-15.5c.8-3.9 1.4-6.3 1.4-6.3l-2.2 22c-.6 6.1-1 11.6-1.2 15.5-.1 2-.1 3.6-.1 4.7-.1 1.1-.1 1.7-.1 1.7z" id="path6005"/>
        </g>
      </g>
    </g>
    <path class="st18" d="M1284.9 287s-3.4 10.2-4.8 18.1c-1.5 7.9-5.1 25.5-5.1 25.5s-1 3.8 2.5.2c3.5-3.6 16.7-18.8 19.1-28.8" id="path6007"/>
    <path class="st18" d="M1323.1 284.2s6.6 11.6 7.2 24.3c.6 12.8.5 14.9.5 14.9s-1 8.6-4.4-3.4c-3.4-12-6.1-17.4-9.3-21.8-3.1-4.4-9.7-10.2-9.6-13.2" id="path6009"/>
    <g id="g6011">
      <g id="g6013">
        <g id="g6015">
          <path class="st20" d="M1288 253.1s-.2-.1-.5-.4c-.3-.3-.8-.7-1.2-1.5-.4-.8-.5-2 .1-3.1.3-.5.6-1 1.1-1.5.2-.2.5-.4.7-.6l.1-.1.2-.2c.1-.1.3-.3.4-.3.6-.4 1.4-.6 2-.6.7 0 1.3.2 1.8.4 1 .4 1.8 1.1 2.4 1.6 1.2 1.1 1.7 1.9 1.7 1.9s-.8-.6-2.1-1.3c-.7-.4-1.5-.8-2.4-1-.9-.2-1.9-.3-2.6.2-.1 0-.2.1-.3.2l-.4.3c-.2.1-.4.3-.6.4-.4.3-.7.7-.9 1-.5.7-.6 1.5-.5 2.2.2.7.5 1.2.7 1.6.2.6.3.8.3.8z" id="path6017"/>
        </g>
      </g>
    </g>
    <g id="g6019">
      <g id="g6021">
        <g id="g6023">
          <path class="st20" d="M1290.7 260h-2c-.6 0-1.4-.1-2.2-.4-.8-.3-1.8-.7-2.5-1.8-.3-.5-.4-1.1-.4-1.7 0-.6.2-1 .4-1.5.4-.8.9-1.4 1.4-1.9.9-.9 1.6-1.2 1.6-1.2s-.5.6-1 1.7c-.5 1-1.3 2.7-.6 3.8.3.6 1 1 1.7 1.4.7.4 1.3.6 1.9.8.9.6 1.7.8 1.7.8z" id="path6025"/>
        </g>
      </g>
    </g>
    <path class="st18" d="M1258.2 255c6.9-6.1 25-10.7 29.4-12 4.4-1.3 4.2 2.6 4.2 2.6" id="path6027"/>
    <path class="st18" d="M1125.6 280.5s-8.1 4.4-13.7 4.9-17.5-3.4-21.8-3.3c-4.3.2-27.6 3.8-27.6 3.8s-4 .2 0-3.3-9.3-6-9.3-6-7.7-4.1-3.1-5.5c4.6-1.4 14.9-4.1 21.2-4.5 6.3-.5 13.1-.2 13.1-.2" id="path6029"/>
    <g id="g6031">
      <g id="g6033">
        <g id="g6035">
          <path class="st20" d="M1284.8 259.6s-.4.1-1 .2-1.5.4-2.6.7c-2.2.7-5.1 1.8-8.3 3.2-6.4 2.7-11.6 5.2-11.6 5.2s1.1-.9 3-2.2c1.9-1.3 4.7-2.9 8-4.3s6.4-2.2 8.7-2.5c1.2-.1 2.1-.2 2.8-.2.6-.1 1-.1 1-.1z" id="path6037"/>
        </g>
      </g>
    </g>
    <g id="g6039">
      <g id="g6041">
        <g id="g6043">
          <path class="st20" d="M1177 195.2s1.3-.5 3.9-1c2.5-.5 6.3-1 10.9-.9 4.6.1 10.2.7 16.1 2.4 5.9 1.7 12.2 4.3 18.3 8.1 6 3.8 11.1 8.5 15 13.3 3.9 4.7 6.9 9.5 9 13.6 2.2 4.1 3.5 7.6 4.4 10 .9 2.4 1.2 3.8 1.2 3.8s-.4-1.4-1.4-3.7c-1-2.4-2.6-5.8-4.9-9.8-2.3-4-5.3-8.6-9.3-13.1-4-4.6-8.9-9.1-14.8-12.8-5.9-3.7-12.1-6.4-17.9-8.2-5.8-1.8-11.2-2.6-15.8-2.9-4.6-.3-8.3.1-10.9.4-2.4.4-3.8.8-3.8.8z" id="path6045"/>
        </g>
      </g>
    </g>
    <path class="st18" d="M1195.5 193.8s-14.1-7.3-32.4-1.1" id="path6047"/>
    <path class="st8" d="M1195.8 214.4s11.2-12.4 16.3-15.4c5.1-3 10.6-5.5 14.3-3.5s8.5 4 9.1 7.3c.6 3.3 3.4 7.1-2.7 14.2-6.1 7.2-11.9 14-11.9 14s-1.3-7.3-8.4-4.8c-7.1 2.4-10.2-3.1-10-4.7.1-1.6 1.9-7.7-7.4-6.5" id="path6049"/>
    <path class="st18" d="M1195.8 214.4s8.8-9.8 11.4-11.6 8.4-5.8 11.3-6.9c3-1 5.7-2.3 9.8.3 4.1 2.6 7.3 4.5 8.4 9 1.1 4.5-3.8 12.4-3.8 12.4l-11.1 12.8s-3.6-5.2-7.2-4.2-12.2.9-12.1-4c.1-4.9.5-5.9-6.3-6.9-.9-.2-.4-.9-.4-.9z" id="path6051"/>
    <path class="st18" d="M1195.1 215s6.7-8.7 13.3-13.6c6.6-4.8 13.6-8.4 19.3-5.4 5.8 3.1 12 8.9 6.7 18s-13.4 16.3-13.4 16.3" id="path6053"/>
    <path class="st21" d="M1131.97 250.38s-15.37 4.72-23.77 13.62c-8.4 8.8-16.7 24.1-17.5 28-.8 3.9-3.1 8.9 1.6 3.5s16.5-14 18.3-15.4c1.8-1.4 10.1-4.9 11-6.3 1-1.4 2.6-1.5 9.3-.4" id="path6055" fill="#e0e0e0" stroke="#6d6d6d" stroke-miterlimit="10"/>
    <path class="st18" d="M1151.2 181.5s13.7 4.7 18 31.4c1.9 3.4 4.8 8.7 4.4 15.7" id="path6057"/>
    <path class="st18" d="M1262.6 285.6s-2.8-23.5-3.3-26.9c-.6-3.4-1.2-7.5-4.5-4.4-3.3 3.1-5.8 3.5-7.2 2.8-1.4-.8-7.3-3.3-9 .1-1.8 3.4-3.9 4.4-.9 9.3 2.9 4.9 4.6 5.2 5.1 8.8s2.5 12.2 3 14.8c.5 2.5-.3 14 3.3 8.3 3.6-5.7 5.5-12.4 12.8-4.8.6-3 .7-8 .7-8z" id="path6059"/>
    <g id="g6061">
      <g id="g6063">
        <g id="g6065">
          <path class="st20" d="M1204.6 244.7s1.6-1 4.6-2.7c1.5-.9 3.3-2 5.4-3.3 1-.7 2.1-1.4 3.2-2.2 1.1-.8 2.3-1.8 2.9-3.1.6-1.3.2-2.8-.8-4.1-.9-1.3-2.3-2.4-3.9-2.8-1.6-.4-3.5-.2-5.2.5-1.1.3-2.1.3-3.2.1-1-.2-2.1-.4-3.1-1-1-.5-1.9-1.4-2.4-2.5-.4-1.2-.3-2.5.1-3.5.3-.9.3-1.7-.2-2.4s-1.5-1.1-2.5-1.4c-2-.6-4.2-.7-6.4-.5-1.1.1-2.2.3-3.1.7-.1.1-.2.1-.3.2-.1.1-.2.1-.3.2-.2.2-.4.3-.7.5-.4.4-.9.7-1.3 1.1l-5.1 4.8c-.4.4-.9.8-1.4 1.1-.2.2-.5.4-.7.5l-.8.4c-.9.5-1.8 1.2-2.7 1.8-3.6 2.6-7 5.2-10.4 7.5-1.7 1.2-3.4 2.3-5.2 3.1-1.8.8-3.6 1.5-5.3 2.1-3.5 1.2-6.7 2.1-9.7 3-1.5.4-2.9.8-4.2 1.2-.7.2-1.3.4-1.9.6l-.9.3c-.3.1-.6.3-.8.4-2.2 1-3.8 2.5-4.8 3.8-1.1 1.3-1.6 2.6-1.9 3.5-.3.9.48-.04.48-.04s-.78.84-.48-.06c.3-.9-.78-1.28.32-2.68 1-1.4 4.08-3.92 6.28-5.02.3-.1.6-.3.8-.4.3-.1.6-.2.9-.4.6-.3 1.3-.5 1.9-.7 1.3-.4 2.7-.9 4.2-1.4 2.9-.9 6.2-1.9 9.6-3.2 3.4-1.3 6.9-2.8 10.1-5.2 3.3-2.4 6.7-5 10.3-7.6.9-.7 1.8-1.3 2.9-1.9 1-.5 1.8-1.2 2.6-1.9 1.7-1.5 3.3-3.1 5.1-4.7.4-.4.9-.8 1.3-1.2.2-.2.5-.4.7-.6.1-.1.3-.2.4-.3.2-.1.3-.2.5-.2 1.2-.5 2.4-.7 3.6-.8 2.4-.2 4.7-.1 7 .6 1.1.4 2.3.8 3.2 1.9.4.5.7 1.2.7 1.9.1.7-.2 1.3-.3 1.8-.3.9-.4 1.9-.1 2.7.3.8.9 1.4 1.7 1.9.8.5 1.7.7 2.6.9.9.1 1.9.2 2.6 0 1.9-.7 4-.9 5.8-.4 1.9.5 3.4 1.8 4.4 3.3.5.7.9 1.5 1.1 2.4.2.9 0 1.8-.4 2.5-.8 1.5-2.1 2.4-3.2 3.2-1.2.8-2.3 1.5-3.3 2.1-2.1 1.2-4 2.2-5.5 3.1-3.1 1.6-4.8 2.5-4.8 2.5z" id="path6067" fill="#7d7d7d"/>
        </g>
      </g>
    </g>
    <g id="g6069">
      <g id="g6071">
        <g id="g6073">
          <path d="M1131.55 270.95c-.6 5.16-4.83 9.2-6.05 13.95-8.07 10.66-17.94 19.82-26.7 29.9-.85 2.28 4.95-1.27 6.42-.78 4.54-.2 8.7-1.96 12.37-4.58 8.2-5.48 16.4-11.25 23.5-18.24 4.3-5.75 10.9-9.1 17.3-11.95 9-5.33 17.8-11 26-17.45 6.9-7.25 15.5-12.73 22.6-19.83 2-2.08 5.7-7.14 6.4-7.87-4.3 6.5-9.7 12-15.8 16.73-5.1 4.02-9.5 8.63-14.3 12.94-8.4 6.24-17 12.36-26.2 17.33-6.6 2.42-12.3 7-16.7 12.4-8.3 7.55-17.5 14.3-27.2 19.84-4.3 2.22-9.4 1.6-13.9 3.36-4.3.97-1.5-3.83.3-4.9 8.5-9.3 17.9-18 25.7-27.9 1.2-2.83 1.6-6.14 4.1-8.2 4.1-48.03.2.53 1.7-4.75z" id="path6075" fill="#7d7d7d"/>
        </g>
      </g>
    </g>
    <path class="st18" d="M1247.5 300.1s-2.7 17-5.5 22-1.6 5.4 1.1 3.4c2.7-2 7.5-7.4 9.4-10.4s8.2-10.5 9.3-21.5" id="path6077"/>
    <path class="st18" d="M1257.7 253.8s2-3.7.5-5.8c-1.5-2.1-4.2-5.4-4.6-6.6-.4-1.2-3.3-7-8.4-2s-9.9 10.9-7.5 18.4" id="path6079"/>
    <path class="st18" d="M1247.1 237.5s-7.7 1.7-9.5 3.9c-1.9 2.2-4.2 3.8-5.9 5-1.8 1.2-8.7 6.6-12.5 8-3.8 1.4-20.5 9.5-23.5 13.1s-5.3 7.1-2.2 10.5c3.1 3.4 7.6 5.1 13.3 2.4 5.7-2.7 14.3-9.4 19.5-13 5.1-3.6 10.6-8.8 10.6-8.8" id="path6081"/>
    <g id="g6083">
      <g id="g6085">
        <g id="g6087">
          <path class="st20" d="M1242.4 276.5s-.2.4-.7 1c-.4.6-1.1 1.5-2 2.6-.9 1-2 2.3-3.7 3.3-.8.5-1.8.9-3 .9-1.1.1-2.3-.3-3.3-.7-.5-.2-1-.5-1.4-.7-.5-.2-.8-.4-1.3-.6-1-.5-1.8-1-2.5-1.6-1.5-1.1-2.6-2.3-3.6-3.3-1.9-2-3-3.3-3-3.3s1.3 1.1 3.5 2.8c1.1.8 2.4 1.8 3.8 2.8.7.5 1.5.9 2.4 1.3.4.2 1 .4 1.4.6.5.2.9.4 1.4.6.9.4 1.8.7 2.6.7s1.7-.2 2.4-.6c1.5-.7 2.7-1.8 3.8-2.7 1-.9 1.8-1.7 2.3-2.2l.9-.9z" id="path6089"/>
        </g>
      </g>
    </g>
    <g id="g6091">
      <g id="g6093">
        <g id="g6095">
          <path class="st20" d="M1229.1 282.6s0 .1-.1.2-.1.3-.3.5c-.3.4-.8 1-1.7 1.5-.9.4-2.1.6-3.3.6-1.3-.1-2.6-.5-3.9-1.1-1.3-.6-2.5-1.5-3.3-2.4-.8-.9-1.4-1.9-1.8-2.7-.8-1.7-.9-2.8-.9-2.8s.5 1 1.6 2.4 2.7 3.1 5.1 4.1c2.4 1.1 4.7 1.6 6.4 1.2 1.5-.5 2.2-1.6 2.2-1.5z" id="path6097"/>
        </g>
      </g>
    </g>
    <path class="st18" d="M1197.5 266.3s-2.7-3.7-10.1-1.5" id="path6099"/>
    <g id="g6101">
      <g id="g6103">
        <g id="g6105">
          <path class="st20" d="M1202.5 282.1s.1.5-.2 1.4c-.1.4-.4 1-.9 1.4-.5.5-1.1.9-1.9 1.2-.8.3-1.7.5-2.7.5-.5 0-1.1 0-1.6-.1s-1-.2-1.5-.2c-2-.2-4.3-.2-6.8-.2-1.3-.1-2.6-.4-3.7-1.1-1.1-.7-1.9-1.6-2.5-2.5-1.3-1.8-2.1-3.5-2.8-4.9-.7-1.4-1.2-2.7-1.2-3.6 0-.5.1-.8.2-1 .1-.2.3-.2.3-.2s-.1.1-.2.3c-.1.2-.1.6 0 1 .2.8.8 2 1.6 3.3.9 1.3 1.9 3 3.2 4.5.7.8 1.4 1.5 2.3 2 .9.5 1.9.8 3 .9 2.4.1 4.8.1 6.9.5.5.1 1.1.2 1.5.4.5.1.9.2 1.3.2.9.1 1.7 0 2.4-.2s1.4-.5 1.8-.9c.5-.4.8-.8 1-1.2.5-1 .5-1.5.5-1.5z" id="path6107"/>
        </g>
      </g>
    </g>
    <path class="st18" d="M1217.4 282.6s-5.2 3.9-10.1 4.7c-4.9.8-10.2.3-14.9.6-4.7.3-12.2 3.9-17.4 3.9-5.2.1-23.5 1.4-27.4-4.7" id="path6109"/>
    <path class="st18" d="M1158.9 292s5.1 13 7.2 15.8c2.1 2.8 4.3 4.4 3.2-.7s-2.3-15.2-2.3-15.2" id="path6111"/>
    <g id="g6113">
      <g id="g6115">
        <g id="g6117">
          <path class="st20" d="M1130.6 227.7s4.5-3 10.4-5.8c.7-.4 1.5-.7 2.2-1 .6-.3 1.2-.6 1.6-1.1.9-.9 1.5-2 2-3s.7-1.8.9-2.3l.3-.9v.9c-.1.6-.2 1.5-.5 2.6s-.8 2.3-1.8 3.6c-.5.6-1.2 1.2-1.9 1.6-.7.4-1.4.7-2.2 1.1-5.8 2.7-11 4.3-11 4.3z" id="path6119"/>
        </g>
      </g>
    </g>
    <g id="g6121">
      <g id="g6123">
        <g id="g6125">
          <path d="M1119.5 250.6c-6.44-4.5-12.85-9.1-19.78-12.84-2.12-.94-4.12-2.23-5.44-4.2-3.15-4.45-3.66-10.15-3.48-15.45-.24-3.8-2.68-7-5.4-9.6 3.73 2.5 6.57 6.7 6.54 11.3.34 5 1.2 10.5 4.8 14.3 2.07 2.1 5.02 2.8 7.34 4.6 5.4 3.7 10.52 7.7 15.42 12z" id="path6127" fill="#7d7d7d"/>
        </g>
      </g>
    </g>
    <path class="st18" d="M1100.2 237.6s8.9 6.5 10.4 9.6c1.5 3.1 3.6 5.3 7.5 9.4" id="path6129"/>
    <path class="st18" d="M1109.8 246.2s-3.6 7.3-7.8 6.5c-4.2-.8-8-.9-11.2 1.8-3.2 2.7-5.6 4.6-3.7 8.7s4.6 8.4 16 6.6" id="path6131"/>
    <path class="st18" d="M1098.8 252.1s-5.7-10.2-10.3-12.1c-4.6-1.9-10.5-4.1-16.2-7.8s-30.2-8.5-31.7-8.6-6.9-4.3-8.6.3c-3.1 1-4.9 2.1-9 3.3-4.1 1.2-15.3 8.8-16.9 13.4" id="path6133"/>
    <path class="st18" d="M1088.7 266.7s-3.2.7-7-1.4c-3.8-2.1-12.2-4.5-17.5-3.9s-24-1.5-27.3-4.1" id="path6135"/>
    <g id="g6137">
      <g id="g6139">
        <g id="g6141">
          <path class="st20" d="M1031.4 229.6l-.2-.2c-.1-.1-.2-.3-.3-.6-.2-.5-.4-1.4-.3-2.2.1-.8.5-1.5.8-2 .3-.5.6-.7.6-.7s.1.4.1.9 0 1.3-.1 2-.3 1.4-.5 1.9c0 .6-.1.9-.1.9z" id="path6143"/>
        </g>
      </g>
    </g>
    <g id="g6145">
      <g id="g6147">
        <g id="g6149">
          <path class="st20" d="M1044.9 233.2l-.2-.4c-.1-.3-.3-.7-.5-1.1-.4-1-1-2.2-1.7-3.6s-1.3-2.6-1.8-3.5c-.5-.9-.9-1.5-.9-1.5s.6.3 1.5 1c.8.7 1.9 1.9 2.6 3.4.7 1.5 1 3 1.1 4.1.1.5 0 1 0 1.3-.1.2-.1.3-.1.3z" id="path6151"/>
        </g>
      </g>
    </g>
    <g id="g6153">
      <g id="g6155">
        <g id="g6157">
          <path d="M1041.2 242c-.17 4.92-1.15 9.92-3.44 14.3-.42 2.6-5.13 2.2-4.78 1.35 2.8 1.38 4.13-2.36 4.7-4.4 1.1-3.77 2.35-7.5 3.52-11.25z" id="path6159" fill="#7d7d7d"/>
        </g>
      </g>
    </g>
    <g id="g6161">
      <g id="g6163">
        <g id="g6165">
          <path d="M1035.9 244.8c.9-6.92-.33-13.9-1.6-20.7 3.3 6.25 4.47 14.08 1.6 20.7z" id="path6167" fill="#7d7d7d"/>
        </g>
      </g>
    </g>
    <g id="g6169">
      <g id="g6171">
        <g id="g6173">
          <path d="M1087.1 247.5c-6.53-2.02-12.84-4.8-18.6-8.5-6-3.15-12.28-5.66-18.5-8.3 7.3 1.9 14.66 4.18 21.16 8.1 5 3.46 10.54 5.97 15.94 8.7z" id="path6175" fill="#7d7d7d"/>
        </g>
      </g>
    </g>
    <path class="st18" d="M1029.4 281.5s5-8.4 4.1-16.3c-.9-7.8-1.8-11.9-6.7-16.3s-21.3-13-27.4-5.7c-6.1 7.3-14.2 19.9-12 36.9 2.1 17 7.9 35 19.6 43 11.6 8 16.1 8.1 16.1 8.1s8.3-.6 1.9-5.4c-6.4-4.8-13.2-25.2-11.9-32.8" id="path6177"/>
    <g id="g6179">
      <g id="g6181">
        <g id="g6183">
          <path d="M1027.5 259.2c1.9 2.82 1.93 6.48 2 9.77.1 3.3-.73 6.56-.7 9.83 1.07 5.57 4.9 10.1 6.7 15.4 1.93 7.6.44 15.53-1.37 23-1.06 2.95-1.3 6.43-3.53 8.8-3.32 1.25-3.1-4.3-3.6-6.4-.75-5.83-3.23-11.3-5.7-16.6-1.9-4.5-6.1-7.3-9.14-11-2.43-2.76-4.58-6.07-4.55-9.88-.8-5.3-3.9-9.86-5.2-15.02-.7-3.62 2.4-7 5.8-7.5 3.3-1.23 5.4-4 7.8-6.4 2.7-2.3 6.8-2.5 9.7-.56 2.7 1.53 4.8 3.82 6.6 6.26-2.7-3.6-6.7-7.34-11.6-7-2.4.23-4.4 1.86-5.7 3.8-2.1 2.33-4.5 4.74-7.7 5.33-2.7 1.03-4.4 4.17-3.4 6.97 1.9 5.5 5.2 10.66 5.4 16.65 1.5 5.22 6.1 8.55 9.6 12.45 3.9 4 5.7 9.4 7.7 14.45 1.3 3.33 2.1 6.8 2.4 10.35.1 1.58 1 5 2 1.6 2.5-6.7 4-13.76 4.4-20.88.2-4.37-.5-8.86-2.73-12.68-1.67-3.66-4-7.24-4.36-11.33.6-5.8 1.9-12 0-17.7-.47-.6-.5-1-.4-1.6z" id="path6185" fill="#7d7d7d"/>
        </g>
      </g>
    </g>
    <g id="g6187">
      <g id="g6189">
        <g id="g6191">
          <path d="M1004.3 293.9c1.6-2 2.06-4.64 3.46-6.78.63-1.66.45 1.35.33 2.02-.4 1.9-1.5 3.96-3.4 4.56l-.3.17-.1.03z" id="path6193" fill="#7d7d7d"/>
        </g>
      </g>
    </g>
    <g id="g6195">
      <g id="g6197">
        <g id="g6199">
          <path d="M1020.9 327.6c-5.24-2.77-9.42-7.17-12.93-11.88-3.23-4.67-6.02-9.7-7.77-15.12 4.62 8.3 9.8 16.38 16.38 23.28 1.37 1.32 2.77 2.6 4.32 3.72z" id="path6201" fill="#7d7d7d"/>
        </g>
      </g>
    </g>
    <path class="st18" d="M1060.8 285.4s-6.8-1.7-7.6-3.3c-2.3.3-5.2-.4-5.2-.4s-4.8 15.7-9.6 19.5c-.9 5.2-2.5 12.1-2.5 12.1s-1.1 3.9-1.3-2.1" id="path6203"/>
    <path class="st18" d="M1033.6 289.9s6.1-11.7 8-13.8c1.9-2.1 4.5-3.1 7.7-2.4" id="path6205"/>
    <g id="g6207">
      <g id="g6209">
        <g id="g6211">
          <path d="M1154.7 201.7c1.62-2.07 2.06-5.17.7-7.47-.48-.68-1.2-.98-1.93-1.32-1.9-1.3-3.05-3.5-3.65-5.7-.28-1.1.36-3.2-1.47-3.1-1.57 0-3.25.4-4.72-.4-1.88-.9-3.56-2.3-4.93-4 1.98 1.5 4.07 3.1 6.58 3.4 1.76 0 3.78-1 5.34.3 1.17 1.2.3 3 1.04 4.4.7 2 1.73 4.1 3.78 4.9 1.54 1.4 1.72 3.6 1.47 5.5-.2 1.5-1 2.9-2.2 3.9z" id="path6213" fill="#7d7d7d"/>
        </g>
      </g>
    </g>
    <path class="st18" d="M1150.5 185.5s2.6-7-1.8-8.5-8.8-2.7-11.8-5l-3-2.3" id="path6215"/>
    <path class="st18" d="M1135.8 176.6s-1.5-3.3-2.3-4.1c-.8-.8-.5-2.6-.5-2.6s.8-2.6-1.1-4.1c-1.9-1.5-3.9-2.3-3.9-2.3s-.5-1-6.1-.1-9.4 2.6-9.4 2.6" id="path6217"/>
    <g id="g6219">
      <g id="g6221">
        <g id="g6223">
          <path class="st20" d="M1107.6 160.4s.1-.1.5-.4c.3-.2.8-.5 1.5-.7 1.3-.4 3.3-.5 5.3-.1.5.1 1 .2 1.5.4s.9.4 1.4.6c.8.4 1.5.9 2 1.4 1 .9 1.5 1.6 1.5 1.6s-.7-.4-1.9-1c-.6-.3-1.3-.6-2.1-.9-.4-.1-.8-.2-1.2-.4l-1.4-.3c-1.9-.4-3.6-.7-4.9-.7-.6 0-1.2.1-1.5.2-.4.2-.7.3-.7.3z" id="path6225"/>
        </g>
      </g>
    </g>
    <path class="st18" d="M1114.5 159.4s0-3-2.2-3.6c-2.2-.6-5.6-.8-6.6-.7-1 .1-5.1.6-7.3 2.9s-3 4.96-3 4.96" id="path6227" fill="none" stroke="#6d6d6d" stroke-miterlimit="10"/>
    <g id="g6229">
      <g id="g6231">
        <g id="g6233">
          <path class="st20" d="M1081.7 163.5s1.1 0 2.8-.1c1.7-.1 4.1-.2 6.8-.3 5.3-.1 9.7.2 9.7.2s-4.3 1.1-9.6 1.3c-2.7.1-5.1-.2-6.9-.4-1.8-.4-2.8-.7-2.8-.7z" id="path6235"/>
        </g>
      </g>
    </g>
    <g id="g6237">
      <g id="g6239">
        <g id="g6241">
          <path d="M1120.5 193.1c-6-.27-11.8-2.65-16.56-6.28-4.68-2.1-10.04-1.8-14.77-3.8-5.93-2.16-12.16-4.45-16.55-9.2-3.04-3.2-6.95-5.44-11.2-6.58-3.92-1.33-7.97-2.17-11.92-3.34-2.92-1-2.92-4.68-1.68-7 1-3.34 4.28-5.15 7.47-5.92 2.5-.83 5.6-1.8 7.9.1 2.1 1.77 4.9.88 7.3.72 5.8.23 9.8 6.16 9.9 11.66 0 1.38-.2 4.35-.1 1.3.1-5.5-3.7-11.66-9.5-12.06-2.4.06-4.7 1.14-7 0-2.5-2.35-5.9-1.56-8.7-.37-2.7.64-5.3 2.35-6.2 5.12-1.2 2.25-.4 5.4 2.5 5.45 6.1 1.6 12.6 2.84 18.1 6.36 3.8 2.7 6.5 6.75 10.9 8.62 5.6 2.84 11.5 5.44 17.7 6.4 3.5.48 6.7 2.02 9.4 4.38 3.8 2.5 8.2 4 12.7 4.44z" id="path6243" fill="#7d7d7d"/>
        </g>
      </g>
    </g>
    <g id="g6245">
      <g id="g6247">
        <g id="g6249">
          <path d="M1093.4 197.8c6.86 3.08 13.18 7.2 19.4 11.4 5.6 3.84 11.9 6.46 18.23 8.85 4.94 1.55 10.42-.47 13.8-4.25 2.94-2.86 6-5.64 9.26-8.1 1.9-1.3.9-3.23-.9-3.82-5.6-3.54-11.5-6.7-17.8-8.83-2.5-.7-5.2-1.6-7.8-1.1-2.7 1.46-5.5 2.98-8.7 2.92-6-.42-11.4-3.3-16.6-6.07l-3.3-1.92c5.3 2.9 10.8 5.8 16.9 6.98 3.1.72 6.4-.17 9.1-1.87 2.6-2.1 6.1-1.2 9.1-.6 7.1 1.9 13.5 5.6 19.8 9.3 1.2.7 2.7 1.9 2.1 3.6-.9 2.9-4.1 3.8-6.1 5.9-3.9 3.3-7.3 7.7-12.6 8.9-4 1.1-8.1-.3-11.7-2-5.8-2.4-11.3-5.4-16.3-9.2-5.25-3.8-10.6-7.4-16.35-10.4z" id="path6251" fill="#7d7d7d"/>
        </g>
      </g>
    </g>
    <g id="g6253">
      <g id="g6255">
        <g id="g6257">
          <path d="M1090.3 210c-5.16-1.72-9.98-4.56-14-8.25-3.3-3.8-6.4-7.9-10.63-10.8-4.25-3.4-7.3-8.1-9.82-12.86-.9-3.2-3.44-5.4-5.34-8-1.7-1.6-2.9-4.8.1-5.6.8-.3 2.7-.8.8-.2-2.6.6-3 3.5-.7 4.9 2.3 2.7 5.2 5.2 6.6 8.6 2.4 4.3 5.3 8.5 9.1 11.7 4.5 2.9 7.7 7.2 10.8 11.3 3.4 3.6 7.6 6.2 11.9 8.4l1.4.6z" id="path6259" fill="#7d7d7d"/>
        </g>
      </g>
    </g>
    <path d="M1072.6 160.8c-1.6-.48-3.68 1.02-1.86 2.4.65.67 1.4 1.25 2.16 1.8" id="path6261" fill="none" stroke="#6d6d6d" stroke-miterlimit="10"/>
    <ellipse transform="rotate(-85.335 1126.417 169.538)" class="st18" cx="1126.4" cy="169.5" rx="2.9" ry="1.4" id="ellipse6263" fill-opacity=".12"/>
    <g id="g6265">
      <g id="g6267">
        <g id="g6269">
          <path d="M1153.4 197.2c-1.55-2.23-4.1-3.44-6.42-4.67-2.6-1.34-5.45-2.18-7.95-3.7-1.82-1.02-3.95-1.27-6-1-3.2.37-6.42-.62-9.33-1.93 3.22.76 6.63 1.48 9.9.6 2.43-.5 4.93.06 7.1 1.2 3.2 1.62 6.54 3.08 9.44 5.26 1.35 1.03 2.64 2.24 3.46 3.74-.07.16-.17.32-.2.5z" id="path6271" fill="#7d7d7d"/>
        </g>
      </g>
    </g>
    <path class="st18" d="M1116 167.8s3.1-.1 4.2-.5c1-.4 1.6-1.4 4.2-1.2 2.5.3 4.8.6 6 1.6 1.1 1 1.2 4.7-1.1 5.4s-5.8 1-8-1.1-3.4-4-3.4-4" id="path6273"/>
    <g id="g6275">
      <g id="g6277">
        <g id="g6279">
          <path d="M1169.8 227.4c-.3-1.85-.77-3.67-1.13-5.5-.3-1.76-.48-3.53-.57-5.3.48.64.8 1.4 1.15 2.1.64 1.46 1.04 3.03 1.13 4.63.04.87.02 1.75-.1 2.6-.12.4-.13.88-.4 1.22-.04.07-.07.16-.08.25z" id="path6281" fill="#7d7d7d"/>
        </g>
      </g>
    </g>
    <g id="g6283">
      <g id="g6285">
        <g id="g6287">
          <path class="st20" d="M1132 174.4s0 .1-.1.2c-.1.2-.2.4-.4.7-.2.3-.4.7-.8 1-.4.3-1.1.8-2 .5h-.2c-1.6.1-4-.2-6.3-1.1-1.4-.6-2.7-1.3-3.7-2.2-.5-.5-.9-1-1.2-1.5-.2-.3-.3-.6-.3-.8 0-.2-.2-.4-.3-.5-.6-.6-1.3-1.1-1.7-1.3-.5-.3-.7-.4-.7-.4s.3 0 .8.2 1.3.4 2.1 1c.2.2.4.4.6.7.2.3.2.4.4.6.3.4.7.8 1.2 1.1.9.7 2.1 1.3 3.5 1.8 2.2.9 4.3 1.4 5.9 1.6.1 0 .2 0 .2.1.1 0 .2.1.2.1.3.2.9.1 1.2-.1.4-.2.7-.5.9-.8.2-.2.4-.4.5-.6.1-.2.2-.3.2-.3z" id="path6289"/>
        </g>
      </g>
    </g>
    <g id="g6291">
      <g id="g6293">
        <g id="g6295">
          <g id="g6297">
            <path d="M1095.4 184.4c-2 2.18-4.07 4.27-6.2 6.3.08-2.54.3-5.07.6-7.6.1 1.93.2 3.86.2 5.8 1.8-1.5 3.54-3.08 5.4-4.5z" id="path6299" fill="#7d7d7d"/>
          </g>
        </g>
      </g>
      <g id="g6301">
        <g id="g6303">
          <g id="g6305">
            <path d="M1089.6 182.6c-1.52 1.7-3.22 3.17-4.9 4.7-.23-.4-.03-1.3-.1-1.9-.02-1.6.07-3.2.3-4.8.26 1.7.26 3.4.4 5.1 1.38-1.1 2.86-2.08 4.3-3.1z" id="path6307" fill="#7d7d7d"/>
          </g>
        </g>
      </g>
      <g id="g6309">
        <g id="g6311">
          <g id="g6313">
            <path d="M1084.6 180.5c-1.52 1.7-3.22 3.17-4.9 4.7-.25-1.57-.07-3.53.02-5.25.07-.76.2-2.08.3-.6.26 1.3-.02 3.17.4 4.16 1.34-1 2.8-2 4.18-3z" id="path6315" fill="#7d7d7d"/>
          </g>
        </g>
      </g>
      <g id="g6317">
        <g id="g6319">
          <g id="g6321">
            <path d="M1079.3 177.9c-1.48 1.24-3.1 2.33-4.8 3.2.2-1.8.38-3.62.8-5.4.13 1.33.1 2.66.1 4 1.22-.74 2.56-1.32 3.9-1.8z" id="path6323" fill="#7d7d7d"/>
          </g>
        </g>
      </g>
      <g id="g6325">
        <g id="g6327">
          <g id="g6329">
            <path d="M1075.1 175.4c-1.5.8-3.07 1.5-4.7 2 .15-1.95.42-3.9.9-5.8.14 1.56.1 3.13.1 4.7 1.2-.35 2.45-.72 3.7-.9z" id="path6331" fill="#7d7d7d"/>
          </g>
        </g>
      </g>
      <g id="g6333">
        <g id="g6335">
          <g id="g6337">
            <path d="M1071.1 171.1c-1.5 1.15-3.04 2.22-4.7 3.1.03-1.87-.1-3.74.1-5.6.36 1.4.5 3.06.65 4.4 1.2-.78 2.6-1.38 3.95-1.9z" id="path6339" fill="#7d7d7d"/>
          </g>
        </g>
      </g>
      <g id="g6341">
        <g id="g6343">
          <g id="g6345">
            <path d="M1065.3 168c-1.37 1.48-3 2.66-4.6 3.9-.24-1.88-.35-3.76-.3-5.66.03-.62.43 2.03.56 2.54.2.87-.15 2.2.88 1.02.97-.97 2.22-1.33 3.46-1.8z" id="path6347" fill="#7d7d7d"/>
          </g>
        </g>
      </g>
      <g id="g6349">
        <g id="g6351">
          <g id="g6353">
            <path d="M1060 165.9c-1.2 1.44-2.34 2.9-3.7 4.2-.17-1.96-.47-3.92-.4-5.9.54 1.24.6 3.15.97 4.13 1-.88 1.98-1.78 3.13-2.43z" id="path6355" fill="#7d7d7d"/>
          </g>
        </g>
      </g>
      <g id="g6357">
        <g id="g6359">
          <g id="g6361">
            <path d="M1055.5 165.2c-.78 1.1-1.92 2.47-2.8 3.1-.1-1.4-.18-2.8 0-4.2.56.98.3 3.8 1.65 2 .45-.22.7-.67 1.15-.9z" id="path6363" fill="#7d7d7d"/>
          </g>
        </g>
      </g>
    </g>
  </g>
  <g id="Laag_6">
    <path class="st22" d="M767.9 97s-2.4-.7-10.9-.5-9.8-3.5-13.2-2.9c-3.4.6-33.8 1.3-33.8 1.3s-2.8.2-3.9-1.6-20.1-1.9-20.1-1.9-8.6-.2-11.8.3c-3.2.5-22.5.3-10-5.8 12.5-6.2 19.6-1 24.1-3.1s9.9-4.7 15.2-5c5.3-.3 8.6-3.1 8.6-3.1s7.3-3.7 17.2.6c9.9 4.4 13 7.4 13 7.4s2.3 1.9 7.8-1 18.3-.8 23.2 2.3c4.9 3.1 5.8 4 9.4 4.5 3.6.5 7.4 6.2 2.9 5.8-4.5-.3-5.2 1.6-8.3 1.5-3.2-.1-9.4 1.2-9.4 1.2z" id="path6366"/>
    <path d="M1440 24.6c-2.46 1.74-5.45 2.5-8.42 2.6-4.64.58-8.84 2.78-13.06 4.63-2.92.72-5.9-.3-8.86-.26-5.1-.15-10.22 1.34-14.47 4.14-2 .9-1.2 3.2.7 3.2 4.1 1 8.4.9 12.6.5 7.3-.2 14.7-.1 22.1.5 1.9.2 3.9.4 5.2 2 1.2.7 2.7.5 4 .5V24.6h.1z" id="path6368" fill="#efefef" stroke="#828282" stroke-width=".75" stroke-miterlimit="10"/>
    <path d="M83.5 123.6c-12.92-10.86-29.96-5.15-43.2-7.9-10.52-9.93-35.47-9.24-40.5 2.23-3.82 12.7 11.77 12.4 20.8 11.94 17.7-3.08 34.14 2.9 51.6 1.74 4.47-1.3 25.7-.3 11.3-8z" id="path6370" fill="#efefef" stroke="#828282" stroke-width=".75" stroke-miterlimit="10"/>
    <path d="M377.2 51.8c7.98 3.5 27.62-4.32 28.9 4-17.1 8.92-36.33 5.33-55.4 3.3-18.5-10.46-40.75-1.7-60.5-6.05-4.32-6.73 20.45-2.82 26.4-6.5 17.63.92 36.6-14.33 51.33 3.13 2.9 1.32 6.08 2.06 9.27 2.12z" id="path6372" fill="#efefef" stroke="#828282" stroke-width=".75" stroke-miterlimit="10"/>
    <path class="st22" d="M1133.1 111.1s8.6 1.8 15 .4c6.4-1.5 12.4.7 12.4.7s5.5 1.3 1.5 2.9-11.9 2-12.4 3.8c-.5 1.8-3.1 3.3-8.1 2.4-4.9-.9-20.9-1.6-23.6-1.6-2.7 0-8.8-.2-11.3-1.3-2.6-1.1-7.3-4.6-14.6-4.8-7.3-.2-17.4-.9-23.4-.2s-21.2-.5-21.2-.5-9.5-3.5 2.2-4 19.9-2.7 19.9-2.7 4.8-.9 9.7-.2c4.9.7 8.6-1.6 8.6-1.6s8.1-4.2 14.5-4.4c6.4-.2 8.8 0 12.1 2.6 3.1 2.5 9.2 8.3 18.7 8.5z" id="path6374"/>
    <path d="M510.2 73.2c-8.57-4.77-42.14.7-18.13 6.25 6.9-.9 26.4-.24 25.63-4.65-2.33-1.14-4.95-1.4-7.5-1.6z" id="path6376" fill="#efefef" stroke="#828282" stroke-width=".75" stroke-miterlimit="10"/>
    <path class="st22" d="M1215 79.2s-11.2-2.4-16.5-1.6-16.8 2.6-10.1 4.9 10.4 4.6 16.5 2.9 8.8-3.3 14.3-2c5.5 1.3 5.9-1.1 3.3-2.6-2.5-1.4-7.5-1.6-7.5-1.6z" id="path6378"/>
    <path class="st22" d="M569 150.1s7.7 1.4 13.5.3c5.8-1.1 11.2.6 11.2.6s4.9 1 1.3 2.3c-3.6 1.3-10.7 1.5-11.2 3-.5 1.4-2.8 2.5-7.2 1.8s-18.8-1.3-21.2-1.3-7.9-.1-10.2-1c-2.3-.8-6.6-3.5-13.2-3.7s-15.6-.7-21.1-.1c-5.4.6-19.1-.4-19.1-.4s-8.6-2.7 2-3.1c10.5-.4 17.9-2.1 17.9-2.1s4.3-.7 8.7-.1 7.7-1.3 7.7-1.3 7.2-3.2 13-3.4 7.9 0 10.9 2 8.4 6.4 17 6.5z" id="path6380"/>
    <path class="st22" d="M767.7 129.9s-11.2-2.4-16.5-1.6c-5.3.7-16.8 2.6-10.1 4.9s10.4 4.6 16.5 2.9c6-1.6 8.8-3.3 14.3-2 5.5 1.3 5.9-1.1 3.3-2.6s-7.5-1.6-7.5-1.6z" id="path6382"/>
    <path d="M255.4 95.6c-6.44 2.26-29.5 2.84-26.9 7.3 18.53.66 36.3 2.88 54.9 1.44 16.56-3.07-14.42-17.57-20.65-8.7l-3.38.14-3.97-.18z" id="path6384" fill="#efefef" stroke="#828282" stroke-width=".75" stroke-miterlimit="10"/>
    <path class="st22" d="M324.8 142s-7.3.3-9.2 1.5c-1.9 1.2-9.4 2.4-11.6 2.1s-4.9 1.9-1 2.4 7 0 9.2.7c2.2.7 5.1.9 7 .1 1.9-.7 5.4-1.3 9.4 0s8 1.8 12.6.9 9.4-.6 9.4-.6 4.3-2.5.9-4-6.5-2.5-8.2-4.5c-1.6-1.9-8-1.2-9.1.1s-4.8 1.6-9.4 1.3z" id="path6386"/>
    <path class="st22" d="M1108.4 53.6s-9 .4-11.3 1.8-11.5 2.9-14.3 2.6c-2.7-.4-6 2.4-1.3 2.9 4.8.5 8.6 0 11.3.9 2.7.9 6.2 1.1 8.6.2s6.6-1.6 11.5 0 9.9 2.2 15.6 1.1c5.7-1.1 11.5-.7 11.5-.7s5.3-3.1 1.1-4.9c-4.2-1.8-8.1-3.1-10.1-5.5s-9.9-1.5-11.2.2c-1.2 1.6-5.8 1.8-11.4 1.4z" id="path6388"/>
  </g>
  <g id="Laag_7">
    <g id="g6391">
      <g id="g6393">
        <g id="g6395">
          <path d="M129.7 334.3c-2.56-8.6-7.32-16.76-14.58-22.2-4.5-3.7-9.93-6-15.42-7.8-1.14-3.4-2.55-6.85-5.1-9.48-5.6-6.15-14.13-8.64-22.2-9.22 9-.33 18.8 2.36 24.7 9.58 1.86 2.27 3.2 4.94 4.1 7.72 8.94 2.65 17.25 8.05 22.42 15.93 3.17 4.6 5.2 9.96 6.08 15.47z" id="path6397" fill="#e8e8e8"/>
        </g>
      </g>
    </g>
    <g id="g6399">
      <g id="g6401">
        <g id="g6403">
          <path d="M178.9 266.8c-1.65-5.17-4.48-10.1-8.72-13.6-3.32-2.8-7.33-4.68-11.44-6.03-.68-2.88-2.14-5.63-4.45-7.54-3.7-3.24-8.6-4.7-13.4-5.03 4.5-.2 9.2.75 13 3.23 2.9 1.9 5.2 4.8 6.1 8.17 6.8 2.18 13.2 6.74 16.3 13.4 1.2 2.32 1.8 4.88 2.5 7.4z" id="path6405" fill="#e8e8e8"/>
        </g>
      </g>
    </g>
    <g id="g6407">
      <g id="g6409">
        <g id="g6411">
          <path d="M183 233.3c-1.7-4.17-3.8-8.3-7.08-11.48-3.66-3.8-8.54-6.06-13.48-7.65-.8-3.3-2.56-6.4-5.27-8.5-3.45-2.67-7.76-4.13-12.07-4.57 6.1-.56 12.75 1.2 16.94 5.87 1.1 1.48 2.23 3.1 2.66 4.93 2.42.58 4.68 1.8 6.8 3.1 6.38 3.95 10.7 10.85 11.5 18.3z" id="path6413" fill="#e8e8e8"/>
        </g>
      </g>
    </g>
    <g id="g6415">
      <g id="g6417">
        <g id="g6419">
          <path d="M309 239.3c-1.7-4.17-3.8-8.3-7.08-11.48-3.66-3.8-8.54-6.06-13.48-7.65-.8-3.3-2.56-6.4-5.27-8.5-3.45-2.67-7.76-4.13-12.07-4.57 6.1-.56 12.75 1.2 16.94 5.87 1.1 1.48 2.23 3.1 2.66 4.93 2.42.58 4.68 1.8 6.8 3.1 6.38 3.95 10.7 10.85 11.5 18.3z" id="path6421" fill="#e8e8e8"/>
        </g>
      </g>
    </g>
    <g id="g6423">
      <path class="st24" d="M539 302.3s15-.4 18.6 11.9c10.2 3.1 16.8 9.7 19.4 20.3" id="path6425"/>
    </g>
    <g id="g6427">
      <path class="st24" d="M399.1 229.3s14.9-1.7 19.5 10.3c10.4 2.2 17.5 8.3 21.1 18.6" id="path6429"/>
    </g>
    <g id="g6431">
      <g id="g6433">
        <g id="g6435">
          <path d="M448.3 320.7c-3.56-7.98-9.6-15.05-17.56-18.85-3.64-1.87-7.57-3.02-11.54-3.95-.8-1.94-1.48-3.96-2.8-5.64-4.14-5.93-11.47-8.5-18.37-9.32-1.24-.22-4.53-.17-1.47-.5 8.02-1.16 17.07.92 22.47 7.3 1.5 1.27 2 3.85 3.33 4.92 8.96 1.9 17.1 7.5 21.77 15.44 2 3.26 3.17 6.94 4.17 10.6z" id="path6437" fill="#e8e8e8"/>
        </g>
      </g>
    </g>
    <g id="g6439">
      <g id="g6441">
        <g id="g6443">
          <path d="M334.1 317.3c-2.1-7.58-7.3-15.06-15.3-17.05-1.77-1.1-5.3.54-6.07-1.73-2.84-7.5-8.58-14.4-16.6-16.5-4.2-1.33-8.58-2.07-12.73-3.62-3.1-8.03-8.72-15.62-16.98-18.78-3.16-1.3-6.6-1.95-10.02-1.92 9.87-1.64 20.06 3.26 25.77 11.3 2.18 1.75 2.3 5.86 4.9 6.7 7.14 1.54 14.88 2.73 20.38 7.98 3.82 3.4 6.4 8.03 8.05 12.82 7.02.86 13.28 5.6 16.13 12.05 1.32 2.75 2 5.75 2.47 8.75z" id="path6445" fill="#e8e8e8"/>
        </g>
      </g>
    </g>
    <g id="g6447">
      <g id="g6449">
        <g id="g6451">
          <path d="M73.5 235.5c-.7-1.6-1.23-3.3-2.22-4.76-.6-1.26-1.5-2.35-2.3-3.47-.9-.93-1.67-2-2.78-2.7-.92-.92-1.96-1.7-3.02-2.43-2.17-1.5-4.54-2.68-7-3.64-2.24-.82-4.52-1.56-6.88-2 3.3-.06 6.65.4 9.73 1.63 2.03.7 3.9 1.8 5.65 3 .93.76 1.9 1.47 2.72 2.37 1.02.93 1.85 2.05 2.6 3.2.78 1.2 1.56 2.44 2 3.83.54 1.2.76 2.5 1 3.77.2.38.4.78.5 1.2z" id="path6453" fill="#e8e8e8"/>
        </g>
      </g>
    </g>
    <g id="g6455">
      <path class="st24" d="M512.5 258.5s21.7.7 26 13" id="path6457"/>
    </g>
    <g id="g6459">
      <g id="g6461">
        <g id="g6463">
          <path d="M764 317c-12.34-15.73-33.8-13.88-51.1-15.5 16.8.14 37.6-1.03 49.8 13.7l1.3 1.8z" id="path6465" fill="#b8b8b8"/>
        </g>
      </g>
    </g>
    <g id="g6467">
      <g id="g6469">
        <g id="g6471">
          <path d="M552.4 212.1c-8-10.2-45-9.42-41.48-11.28 13.96 2.6 30.3.7 41.48 11.28z" id="path6473" fill="#b8b8b8"/>
        </g>
      </g>
    </g>
    <g id="g6475">
      <g id="g6477">
        <g id="g6479">
          <path d="M620.5 230.5c-7.8-3.85-38.64.3-15.8-2.35 5.3-.15 10.85.3 15.8 2.35z" id="path6481" fill="#b8b8b8"/>
        </g>
      </g>
    </g>
    <g id="g6483">
      <g id="g6485">
        <g id="g6487">
          <path d="M720.5 244.5c-7.8-3.85-38.64.3-15.8-2.35 5.3-.15 10.85.3 15.8 2.35z" id="path6489" fill="#b8b8b8"/>
        </g>
      </g>
    </g>
    <g id="g6491">
      <g id="g6493">
        <g id="g6495">
          <path d="M843.5 278.5c-7.8-3.85-38.64.3-15.8-2.35 5.3-.15 10.85.3 15.8 2.35z" id="path6497" fill="#b8b8b8"/>
        </g>
      </g>
    </g>
    <g id="g6499">
      <g id="g6501">
        <g id="g6503">
          <path d="M1407.5 279.5c-8.6-2.42-17.72-2.06-26.5-1 8.7-1.78 18.1-2.26 26.5 1z" id="path6505" fill="#b8b8b8"/>
        </g>
      </g>
    </g>
    <g id="g6507">
      <g id="g6509">
        <g id="g6511">
          <path d="M961.5 226.5c-14.34-7.8-30.9-2.1-45.5-6.8-17.6 1.86 11.85.3 18.7.8 9.26.02 18.34 2.34 26.8 6z" id="path6513" fill="#b8b8b8"/>
        </g>
      </g>
    </g>
    <g id="g6515">
      <g id="g6517">
        <g id="g6519">
          <path d="M1341.3 329.7c-7.78-3.9-17-3.3-25.1-.8 7.88-3.87 17.55-3.83 25.1.8z" id="path6521" fill="#8d8d8d"/>
        </g>
      </g>
    </g>
    <g id="g6523">
      <g id="g6525">
        <g id="g6527">
          <path d="M1158 309.5c1.67-3.74 11.88-1 3.7-1-1.18.25-2.8 0-3.7 1z" id="path6529" fill="#8d8d8d"/>
        </g>
      </g>
    </g>
    <g id="g6531">
      <g id="g6533">
        <g id="g6535">
          <path d="M1231.5 323.5c2.33-5.1 14.93-1.17 4.6-1.9-1.66.22-3.26.92-4.6 1.9z" id="path6537" fill="#8d8d8d"/>
        </g>
      </g>
    </g>
    <g id="g6539">
      <g id="g6541">
        <g id="g6543">
          <path d="M1251 330.8c-5.17.76-9.7-10.73-3.9-2.7 1.2.97 2.35 2.3 3.9 2.7z" id="path6545" fill="#8d8d8d"/>
        </g>
      </g>
    </g>
    <path class="st26" d="M699.5 350s-8-6-17.5-11-14-7.5-18.5-10-2-7.5-3.5-12-10.5-11-21.5-15.5-18-12-19.5-16-10.5-11-17-14-14-10-17-16-11.5-11-20-14-20-10.5-23.5-15-11.5-4-19-4.5-18.5-6.5-18.5-6.5-11-4.2-15.2-3.2-10 1.2-12.2-.2-13-2.2-14.8-1.8-13.8-1-17.2-2-12.2-2.2-16.8-3.5-13.8-4.2-16.8-4.2-10.8-2.5-14.8-5.2-17-5.2-22.5-5.2-18-2.8-22-2.8S294 184 294 184L0 180" id="path6547"/>
  </g>
  <g id="Laag_8">
    <path class="st27" id="rect6551" d="M206.1 190.9h5.7v43h-5.7z"/>
    <path class="st28" id="polygon6553" d="M208.6 185.6l1.6 2.4v2.8h3.7v-3h1.7z"/>
    <path class="st13" id="polygon6555" d="M210.1 190.6v-2.9h-6.6l.1 2.8z"/>
    <path class="st13" id="polygon6557" d="M210.2 188l-1.5-2.4-6.8 2.1z"/>
    <path class="st29" id="polyline6559" d="M213.8 188.2v2.3h-10.2v-2.6"/>
    <path class="st29" id="polygon6561" d="M201.2 187.8l9.4.1 4.8-.1-1.1-.3-5.3-1.7-.3-.1z"/>
    <path class="st30" id="polyline6563" d="M208.7 185.7l1.5 2.1v2.6"/>
    <path class="st31" id="polygon6565" d="M201.8 200.1l6.3.1-.1-4.9-6.2-.2z"/>
    <path class="st31" id="polygon6567" d="M201.8 215.4l6.3.2-.1-4.9-6.2-.3z"/>
    <path class="st32" id="line6569" d="M208.5 215.6l-6.3-.2"/>
    <path class="st32" id="line6571" d="M208.4 210.7l-6.2-.3"/>
    <path class="st33" d="M167.4 147.9s50.6 9.2 122.5-5.1c-.8 4.1-1 5-1 5l-4.6.7-1.7 5.4s-66.6 5.4-108.4 2.2c-1.8-4.6-2.1-5.1-2.1-5.1l-4.1-.6-.6-2.5z" id="path6573"/>
    <path class="st34" id="polygon6575" d="M193.8 157v2.3h10.5v-2.4z"/>
    <path class="st35" d="M202.9 218.3c-1.5-10.5-.2-58.4-.2-58.4v-.6h-7v.6s1.3 47.9-.2 58.4-.7 15.9-.7 15.9h9c-.2 0 .5-5.4-.9-15.9z" id="path6577"/>
    <path class="st36" d="M195 221.6h8.2s.6 4.1.6 6-.2 6.6-.2 6.6h-9s-.4-9.6.4-12.6z" id="path6579"/>
    <path class="st8" id="polygon6581" d="M188.7 194.3l8.9.3v5l-8.9-.3z"/>
    <path class="st32" id="line6583" d="M208.5 200.2l-6.3-.1"/>
    <path class="st32" id="line6585" d="M208.4 195.3l-6.2-.2"/>
    <path class="st8" id="polygon6587" d="M188.7 209.7l8.9.3v5l-8.9-.3z"/>
    <path class="st32" id="line6589" d="M197.5 215l-9-.3"/>
    <path class="st32" id="line6591" d="M197.5 210l-9-.3"/>
    <path class="st37" d="M162.5 141.7s-.8-1.2-3.1-5.6c57.8 16.4 142.4-5.3 142.4-5.3l-1.8 5-2.8.6 1.5 7.5s-5.9 3.9-10 3.9l1.2-5.1 7.2-6.5s-35.7 8.3-63.1 8.8-32.3 2.1-71.5-3.3" id="path6593"/>
    <path class="st38" d="M167.4 147.9c-3.1-.5-8.1-1.8-8.1-1.8s.9-1.2 3.2-4.4c71.8 11.6 134.5-5.5 134.5-5.5l-7.2 6.5c.1.1-67.2 14.4-122.4 5.2z" id="path6595"/>
    <path class="st32" id="line6597" d="M197.5 199.6l-9-.3"/>
    <path class="st28" id="polygon6599" d="M185.9 182.8l1.8 2.7v3.1h4.1v-3.4h2z"/>
    <path class="st13" id="polygon6601" d="M187.5 188.4l.1-3.2h-7.4l.1 3.2z"/>
    <path class="st13" id="polygon6603" d="M187.7 185.5l-1.7-2.7-7.6 2.3z"/>
    <path class="st32" id="line6605" d="M197.5 194.6l-9-.3"/>
    <path class="st29" id="polyline6607" d="M191.8 185.7v2.7h-11.5v-3"/>
    <path class="st29" id="polygon6609" d="M177.6 185.2l10.5.2 5.4-.1-1.2-.4-5.9-1.8-.4-.2z"/>
    <path class="st30" id="polyline6611" d="M186 182.9l1.7 2.4v2.9"/>
    <path class="st39" id="rect6613" d="M182.4 188.7h6.2v47.2h-6.2z"/>
    <path class="st40" id="rect6615" d="M180.9 193h2.4v1.4h-2.4z"/>
    <path class="st36" id="rect6617" d="M181.9 194.7h1.5v4.6h-1.5z"/>
    <path class="st40" id="rect6619" d="M180.9 209.8h2.4v1.4h-2.4z"/>
    <path class="st36" id="rect6621" d="M181.9 211.5h1.5v4.6h-1.5z"/>
    <path class="st7" d="M179.3 235.7s1-1.8 3.2-2.5 5.8.2 7.7 1c1.8.8.7-.5 3-1.2s3.1-1.5 4.7-.2c1.6 1.4 4.7-.7 6-1 1.3-.3 3-.5 4.7.2s4-.8 4-.8h1.5v3.7l-21.2 5.2-13.6-4.4z" id="path6623"/>
    <g id="g6625">
      <path class="st23" d="M181 233.5l.3-.3c.2-.2.6-.4 1-.5.4-.2 1-.3 1.6-.4.3 0 .6-.1.9 0 .3 0 .6 0 .9.1.6.1 1.2.2 1.8.4.5.2 1 .4 1.4.6.4.2.7.4.9.6l.3.3s-.2 0-.4-.1c-.3-.1-.6-.1-1.1-.2-.4-.1-.9-.2-1.5-.3-.3-.1-.5-.1-.8-.1-.3-.1-.6-.1-.8-.1-.6-.1-1.1-.1-1.7-.1h-1.5c-.7-.1-1.3.1-1.3.1z" id="path6627"/>
    </g>
    <g id="g6629">
      <path class="st23" d="M193.6 233s.2-.2.7-.5c.2-.1.6-.3.9-.4.4-.1.9-.2 1.4-.1.6.1 1 .3 1.5.4.5.1 1 .2 1.5.2.3 0 .5-.1.7-.2l.9-.3 1.8-.6c.6-.2 1.3-.3 1.9-.4.6-.1 1.3 0 2 .1 1.1.3 2.2.5 3.1.5.9-.1 1.7-.3 2.2-.5.5-.2.8-.3.8-.3s-.1 0-.2.1-.3.2-.5.4c-.5.3-1.2.7-2.2.9-1 .2-2.2.1-3.3-.2-.5-.1-1.1-.1-1.7 0-.6.1-1.2.2-1.8.4-.6.2-1.2.3-1.8.5l-.9.3c-.3.1-.7.2-1 .2-.7 0-1.3-.2-1.8-.3-.5-.2-1-.5-1.4-.6-.8-.2-1.6 0-2.1.1-.4.2-.7.3-.7.3z" id="path6631"/>
    </g>
    <path class="st27" id="rect6633" d="M263.8 189.9h5.7v43h-5.7z"/>
    <path class="st28" id="polygon6635" d="M266.3 184.6l1.6 2.4v2.8h3.7v-3h1.8z"/>
    <path class="st13" id="polygon6637" d="M267.8 189.6v-2.9h-6.5v2.8z"/>
    <path class="st13" id="polygon6639" d="M267.9 187l-1.4-2.4-6.9 2.1z"/>
    <path class="st29" id="polyline6641" d="M271.6 187.2v2.3h-10.3v-2.6"/>
    <path class="st29" id="polygon6643" d="M258.9 186.8l9.4.1 4.8-.1-1.1-.3-5.3-1.7-.3-.1z"/>
    <path class="st30" id="polyline6645" d="M266.4 184.7l1.5 2.1v2.6"/>
    <path class="st31" id="polygon6647" d="M259.5 199.1l6.3.1v-4.9l-6.3-.2z"/>
    <path class="st31" id="polygon6649" d="M259.5 214.4l6.3.2v-4.9l-6.3-.3z"/>
    <path class="st32" id="line6651" d="M266.2 214.6l-6.2-.2"/>
    <path class="st32" id="line6653" d="M266.2 209.7l-6.2-.3"/>
    <path class="st41" id="polygon6655" d="M251.5 156v2.3H262v-2.4z"/>
    <path class="st35" d="M260.6 217.3c-1.5-10.5-.2-58.4-.2-58.4v-.6h-7v.6s1.3 47.9-.2 58.4-.7 15.9-.7 15.9h9c-.2 0 .6-5.4-.9-15.9z" id="path6657"/>
    <path class="st36" d="M252.7 220.6h8.2s.6 4.1.6 6-.2 6.6-.2 6.6h-9c.1 0-.3-9.6.4-12.6z" id="path6659"/>
    <path class="st8" id="polygon6661" d="M246.5 193.3l8.9.3v5l-8.9-.3z"/>
    <path class="st32" id="line6663" d="M266.2 199.2l-6.2-.1"/>
    <path class="st32" id="line6665" d="M266.2 194.3l-6.2-.2"/>
    <path class="st8" id="polygon6667" d="M246.5 208.7l8.9.3v5l-8.9-.3z"/>
    <path class="st32" id="line6669" d="M255.2 214l-8.9-.3"/>
    <path class="st39" d="M174.9 165.6s44.4 8.3 107.6-4.6c-.7 3.7-.9 4.4-.9 4.4l-4.1.6-1.5 4.8s-58.5 4.8-95.2 2l-1.8-4.6-3.6-.5-.5-2.1z" id="path6671"/>
    <path class="st32" id="line6673" d="M255.2 209l-8.9-.3"/>
    <path class="st32" id="line6675" d="M255.2 198.6l-8.9-.3"/>
    <path class="st28" id="polygon6677" d="M243.6 181.8l1.8 2.7v3.1h4.2v-3.4h2z"/>
    <path class="st13" id="polygon6679" d="M245.3 187.4v-3.2H238v3.2z"/>
    <path class="st13" id="polygon6681" d="M245.4 184.5l-1.6-2.7-7.7 2.3z"/>
    <path class="st32" id="line6683" d="M255.2 193.6l-8.9-.3"/>
    <path class="st29" id="polyline6685" d="M249.5 184.7v2.7H238v-3"/>
    <path class="st29" id="polygon6687" d="M235.4 184.2l10.5.2 5.4-.1-1.3-.4-5.9-1.8-.4-.2z"/>
    <path class="st30" id="polyline6689" d="M243.7 181.9l1.7 2.4v2.9"/>
    <path class="st39" id="rect6691" d="M240.2 187.7h6.2v47.2h-6.2z"/>
    <path class="st40" id="rect6693" d="M238.7 192h2.4v1.4h-2.4z"/>
    <path class="st36" id="rect6695" d="M239.6 193.7h1.5v4.6h-1.5z"/>
    <path class="st40" id="rect6697" d="M238.7 208.8h2.4v1.4h-2.4z"/>
    <path class="st36" id="rect6699" d="M239.6 210.5h1.5v4.6h-1.5z"/>
    <path class="st7" d="M237.1 234.7s1-1.8 3.2-2.5 5.8.2 7.7 1c1.8.8.7-.5 3-1.2s3.1-1.5 4.7-.2c1.6 1.4 4.7-.7 6-1 1.3-.3 3-.5 4.7.2s4-.8 4-.8h1.5v3.7l-21.2 5.2-13.6-4.4z" id="path6701"/>
    <g id="g6703">
      <path class="st23" d="M238.8 232.5l.3-.3c.2-.2.6-.4 1-.5.4-.2 1-.3 1.6-.4.3 0 .6-.1.9 0 .3 0 .6 0 .9.1.6.1 1.2.2 1.8.4.5.2 1 .4 1.4.6.4.2.7.4.9.6l.3.3s-.2 0-.4-.1c-.3-.1-.6-.1-1.1-.2-.4-.1-.9-.2-1.5-.3-.3-.1-.5-.1-.8-.1-.3-.1-.6-.1-.8-.1-.6-.1-1.1-.1-1.7-.1h-1.5c-.8-.1-1.3.1-1.3.1z" id="path6705"/>
    </g>
    <g id="g6707">
      <path class="st23" d="M251.4 232s.2-.2.7-.5c.2-.1.6-.3.9-.4.4-.1.9-.2 1.4-.1.6.1 1 .3 1.5.4.5.1 1 .2 1.5.2.3 0 .5-.1.7-.2l.9-.3 1.8-.6c.6-.2 1.3-.3 1.9-.4.6-.1 1.3 0 2 .1 1.1.3 2.2.5 3.1.5.9-.1 1.7-.3 2.2-.5.5-.2.8-.3.8-.3s-.1 0-.2.1-.3.2-.5.4c-.5.3-1.2.7-2.2.9-1 .2-2.2.1-3.3-.2-.5-.1-1.1-.1-1.7 0-.6.1-1.2.2-1.8.4-.6.2-1.2.3-1.8.5l-.9.3c-.3.1-.7.2-1 .2-.7 0-1.3-.2-1.8-.3-.5-.2-1-.5-1.4-.6-.8-.2-1.6 0-2.1.1-.4.2-.7.3-.7.3z" id="path6709"/>
    </g>
    <path class="st8" id="rect6711" d="M196.2 165.4h5.9v11.5h-5.9z"/>
    <path class="st8" id="rect6713" d="M253.9 163.8h5.9v11.5h-5.9z"/>
    <g id="g6715">
      <g id="g6717">
        <g id="g6719">
          <path d="M117.4 139.7c-4.07-.5-8.5.66-11.3 3.8l-1.6 2.1c-2.63-.2-5.32-.43-7.9.33-2.03.5-4.08 1.23-5.7 2.57 2.6-3.73 7.34-5.33 11.72-5.44 1.57.2 2.08-2.13 3.5-2.6 3.08-2.14 7.2-2.4 10.65-1l.37.1.26.14z" id="path6721" fill="#6e6e6e"/>
        </g>
      </g>
    </g>
    <g id="g6723">
      <g id="g6725">
        <g id="g6727">
          <path d="M144.3 140.2c-3.92-1.08-8.6-.08-11.1 3.3-1.06.35-2.56-.63-3.82-.4-2.7-.04-5.52.3-7.88 1.7 2.7-2.93 7.08-3.87 10.9-3.2 2.93-3.25 8.3-3.9 11.9-1.4z" id="path6729" fill="#6e6e6e"/>
        </g>
      </g>
    </g>
    <g id="g6731">
      <g id="g6733">
        <g id="g6735">
          <path class="st42" d="M359.6 115.5s-.3-.1-.9-.2c-.6-.1-1.5-.2-2.6-.2s-2.3.2-3.6.7c-1.3.5-2.5 1.3-3.6 2.5l-.4.5c-.1.1-.1.2-.2.2l-.3-.1c-.3-.1-.6-.1-.9-.2-.4-.1-.8-.1-1.1-.2-.4-.1-.7-.1-1.1-.1h-1.1c-1.4 0-2.6.2-3.7.4-2.1.5-3.3 1.3-3.3 1.3s.2-.3.7-.7c.5-.4 1.2-1 2.3-1.5 1-.5 2.4-.9 3.9-1.1.4-.1.8-.1 1.2-.1h1.2c.4 0 .8.1 1.3.1l.3.1c1.2-1.3 2.8-2.2 4.3-2.6 1.5-.4 3-.4 4.1-.2 1.1.2 2 .6 2.6.8l.9.6z" id="path6737"/>
        </g>
      </g>
    </g>
    <g id="g6739">
      <g id="g6741">
        <g id="g6743">
          <path d="M904.6 77.5c-1.8-.44-3.73-.56-5.57-.17-2.25.48-4.32 1.78-5.67 3.65-.55-.1-1.13-.28-1.7-.36-.7-.14-1.42-.27-2.14-.22-2.65-.03-5.4.3-7.72 1.7 1.52-1.7 3.7-2.73 5.93-3.14 1.03-.24 2.07-.28 3.1-.26.6.02 1.22.03 1.8.17.7-.5 1.4-1.27 2.25-1.7 2.5-1.43 5.67-1.58 8.32-.45.53.13.94.5 1.4.78z" id="path6745" fill="#6e6e6e"/>
        </g>
      </g>
    </g>
    <g id="g6747">
      <g id="g6749">
        <g id="g6751">
          <path d="M124.1 153.8c-3-1.05-6.5-.1-8.5 2.4-2.9-.46-6.15-.54-8.7 1.2 2.08-2.25 5.4-2.75 8.3-2.4 2.12-2.38 6.27-3.1 8.9-1.2z" id="path6753" fill="#6e6e6e"/>
        </g>
      </g>
    </g>
    <path d="M647.8 195.2c-2.6 1.48-5.68 2.68-8.66 1.57-2.74-.65-5.58-.7-8.2-1.85-2-.04-7.75-.02-6.14-3.22 1.64-2.27 5.07-2.23 6.9-2.48.86-3.57 4.86-3.65 7.54-5.2 3.64-1.34 7.57-1 11.2.1 3 1.02 5.7 2.43 8.57 3.67 1.8 2 7.3 1.3 6.3 5.4-2.1 1.9-4.2 4.6-7.5 4.1-3.4-.2-6.7-1.1-9.9-2.1z" id="path6755" fill="#bfbfbf" stroke="#898989" stroke-width=".7" stroke-miterlimit="10"/>
    <g id="g6757">
      <g id="g6759">
        <g id="g6761">
          <path d="M639.3 188.8c-2.17.3-4.05 2.06-5.6 3.44-.45-1.23 2.86-4.1 4.97-3.78l.33.14.3.2z" id="path6763" fill="#e5e5e5"/>
        </g>
      </g>
    </g>
    <g id="g6765">
      <g id="g6767">
        <g id="g6769">
          <path d="M652.6 189.2c-1.13-.6-2.6-.07-3.7-.4-.7-1.56-4.12-2.14-4.24-2.54 2.1-.46 3.82 1.24 5.3 1.94.96-.03 1.94.36 2.64 1z" id="path6771" fill="#e5e5e5"/>
        </g>
      </g>
    </g>
    <path d="M405.1 198.4c-14.83 2.76-16.2-7.22-2-7.6 10.14.45 21.34 14.17 2 7.6z" id="path6773" fill="#c9c9c9" stroke="#898989" stroke-width=".7" stroke-miterlimit="10"/>
    <g id="g6775">
      <g id="g6777">
        <g id="g6779">
          <path d="M400.4 193.9c-4.8 3.4-5-.15 0 0z" id="path6781" fill="#e5e5e5"/>
        </g>
      </g>
    </g>
    <g id="g6783">
      <g id="g6785">
        <g id="g6787">
          <path d="M408.4 195.1c-4.82-.28-4.83-3.8-.2-.2l.2.2z" id="path6789" fill="#e5e5e5"/>
        </g>
      </g>
    </g>
    <g id="g6791">
      <g id="g6793">
        <g id="g6795">
          <path d="M56.8 164.5c-3-1.05-6.5-.1-8.5 2.4-2.9-.46-6.15-.54-8.7 1.2 2.08-2.25 5.4-2.75 8.3-2.4 2.12-2.38 6.27-3.1 8.9-1.2z" id="path6797" fill="#6e6e6e"/>
        </g>
      </g>
    </g>
    <path d="M679.7 196.1c2.95 1.72 6.46 3.08 9.85 1.82 2.93-.82 6.02-.76 8.83-2.02 2.57-.68 7.2.4 7.96-3-1.57-3.17-6.05-3.43-8.34-3.65-.58-3.67-4.4-3.52-6.8-5.28-3.24-1.3-6.85-2.28-10.33-1.32-2.92 1-5.7 1.8-8.86 2.17-3 .25-4.8 2.94-7.1 4.14-2.9-.44-7.7 3.76-3.9 5.9 1.9 2.6 5.1 4.1 8.3 3.5 3.6-.26 7.1-1.2 10.5-2.26z" id="path6799" fill="#c9c9c9" stroke="#898989" stroke-width=".7" stroke-miterlimit="10"/>
    <g id="g6801">
      <g id="g6803">
        <g id="g6805">
          <path d="M690.3 189.9c2.6-1 5.38 1.6 6.44 3.63.38 1.47-1.4-2.05-2.68-1.65-1-.97-2.2-2.45-3.76-1.98z" id="path6807" fill="#e5e5e5"/>
        </g>
      </g>
    </g>
    <g id="g6809">
      <g id="g6811">
        <g id="g6813">
          <path d="M673.9 189.1c1.25-1.65 3.57-.52 4.66-2.24 1.12-1.23 7-1.5 2.9-.44-1.92.1-2.76 2.43-4.44 2.48-1.07-.22-2.18.1-3.12.2z" id="path6815" fill="#e5e5e5"/>
        </g>
      </g>
    </g>
    <g id="g6817">
      <g id="g6819">
        <g id="g6821">
          <path class="st42" d="M384 125.2s-.2-.1-.6-.4c-.4-.2-1-.6-1.8-.9-.8-.3-1.7-.5-2.7-.5-1 0-2.2.3-3.2.8l-.4.2c-.1 0-.1.1-.2.1l-.2-.1-.6-.3c-.3-.2-.5-.3-.8-.4-.3-.1-.5-.3-.8-.4-.3-.1-.5-.2-.8-.3-1-.4-1.9-.6-2.8-.7-1.6-.2-2.7.1-2.7.1s.2-.1.7-.3c.5-.2 1.1-.3 2-.4.9-.1 1.9 0 3.1.3l.9.3c.3.1.6.2.9.4.3.1.6.3.9.4l.2.1c.1.1 0 0 0 0 1.2-.6 2.6-.8 3.8-.7 1.2.1 2.2.5 3 1 .8.4 1.3.9 1.6 1.3.3.2.5.4.5.4z" id="path6823"/>
        </g>
      </g>
    </g>
    <g id="g6825">
      <g id="g6827">
        <g id="g6829">
          <path d="M1072 36c-1.33-.9-2.83-1.65-4.46-1.77-1.47-.15-2.95.28-4.24.97-.2.2-.44-.05-.66-.13-.45-.22-.86-.5-1.35-.66-.8-.4-1.6-.6-2.4-.9-1.5-.4-3-.6-4.5-.2 1.1-.5 2.4-.7 3.6-.7 1.3.1 2.5.4 3.7.9.3.2 1.1.6 1.3.7 2.1-1 4.8-.9 6.8.4.6.3 1.1.8 1.5 1.3l.5.4z" id="path6831" fill="#6e6e6e"/>
        </g>
      </g>
    </g>
    <g id="g6833">
      <g id="g6835">
        <g id="g6837">
          <path d="M1414.6 89.6c-1.33-.9-2.83-1.65-4.46-1.77-1.47-.15-2.95.28-4.24.97-.2.2-.44-.05-.66-.13-.4-.17-.7-.48-1.14-.57-.6-.33-1.24-.57-1.88-.8-1.66-.6-3.48-.87-5.22-.5 1.13-.57 2.42-.74 3.67-.73 1.28.05 2.53.4 3.7.9.36.2 1.13.53 1.33.63 2.15-1.06 4.85-.97 6.87.34.6.3 1.13.73 1.53 1.26.18.12.35.25.5.4z" id="path6839" fill="#6e6e6e"/>
        </g>
      </g>
    </g>
    <g id="g6841">
      <g id="g6843">
        <g id="g6845">
          <path d="M777.4 231.9c-11.37 1.15-7.73-4.53 0 0z" id="path6847" fill="#929292"/>
        </g>
      </g>
    </g>
    <g id="g6849">
      <g id="g6851">
        <g id="g6853">
          <path d="M1282.4 332.9c-5.25 1.1-10.3-2.53-2.06-1.46.75.3 1.65.7 2.06 1.46z" id="path6855" fill="#929292"/>
        </g>
      </g>
    </g>
    <g id="g6857">
      <g id="g6859">
        <g id="g6861">
          <path d="M842.4 214.6c-11.4.98-6.85-3.92 0 0z" id="path6863" fill="#929292"/>
        </g>
      </g>
    </g>
    <g id="g6865">
      <g id="g6867">
        <g id="g6869">
          <path d="M924.6 322.4c-10.27 4.22-8.06-1.2 0 0z" id="path6871" fill="#929292"/>
        </g>
      </g>
    </g>
    <g id="g6873">
      <g id="g6875">
        <g id="g6877">
          <path d="M954.4 263.1c-9.77-1.06-8.56-4.46 0 0z" id="path6879" fill="#929292"/>
        </g>
      </g>
    </g>
    <g id="g6881">
      <g id="g6883">
        <g id="g6885">
          <path d="M864 273c-9.77-1.06-8.56-4.46 0 0z" id="path6887" fill="#929292"/>
        </g>
      </g>
    </g>
    <g id="g6889">
      <path class="st46" d="M391.8 198.7s4.8-1.9 6-1.5 3.1.7 4.2.2 3 3.1 6.7.5c0 0 4.9 0 7.1 4.3" id="path6891"/>
      <g id="g6893">
        <g id="g6895">
          <path d="M415.8 202.1c-5.83-6.75-35.66-2.5-13.2-5.3 4.3 2.93 11.13-2 13.2 5.3z" id="path6897" fill="#969696"/>
        </g>
      </g>
    </g>
    <g id="g6899">
      <path class="st46" d="M661.9 198.8s4.6-3.8 11.1-3c1.8.2 4.2.8 6 0s4.2 4 9.8 0c0 0 6.2-2.5 9.5 4" id="path6901"/>
      <g id="g6903">
        <g id="g6905">
          <path d="M698.2 199.8c-1.72-3.3-5.82-4.8-9.3-3.6-2 1.4-4.68 2.4-7.07 1.17-2.63-2-5.77.07-8.73-1.07-3.88-.67-8 .26-11.3 2.4 3.73-3 8.7-4.16 13.4-3.3 2.9.03 5.54-.54 8.08 1.28 2.18.67 4.02-.82 5.87-1.62 3.35-.95 7.22.57 8.7 3.8l.25.44.1.5z" id="path6907" fill="#969696"/>
        </g>
      </g>
    </g>
    <g id="g6909">
      <path class="st46" d="M618.4 198.5s4.6-3.8 11.1-3c1.8.2 4.2.8 6 0s4.2 4 9.8 0c0 0 6.2-2.5 9.5 4" id="path6911"/>
      <g id="g6913">
        <g id="g6915">
          <path d="M654.8 199.5c-1.72-3.3-5.82-4.8-9.3-3.6-2 1.4-4.68 2.4-7.07 1.17-2.63-2-5.77.07-8.73-1.07-3.88-.67-8 .26-11.3 2.4 3.73-3 8.7-4.16 13.4-3.3 2.9.03 5.54-.54 8.08 1.28 2.18.67 4.02-.82 5.87-1.62 3.35-.95 7.22.57 8.7 3.8.4.22.15.65.35.94z" id="path6917" fill="#969696"/>
        </g>
      </g>
    </g>
    <g id="g6919">
      <path class="st36" d="M180.3 168.2s.4.1 1.1.2c.7.1 1.7.3 3 .5s2.9.4 4.7.6c1.8.2 3.9.4 6.1.5 2.2.2 4.7.3 7.2.4 2.6.1 5.3.1 8.1.2 2.8 0 5.7 0 8.6-.1 2.9-.1 5.9-.1 8.9-.3 1.5-.1 3-.1 4.5-.2l4.4-.3c2.9-.2 5.8-.3 8.6-.6 2.8-.2 5.5-.4 8-.7 2.6-.3 5-.5 7.2-.8 4.5-.4 8.2-1 10.7-1.3 2.6-.3 4.1-.5 4.1-.5s-1.5.2-4.1.6c-1.3.2-2.9.4-4.7.6-1.8.3-3.8.5-6.1.8-2.2.2-4.6.5-7.2.8-2.6.3-5.3.5-8 .7-2.8.3-5.7.5-8.6.7l-4.4.3c-1.5.1-3 .1-4.5.2-3 .1-6 .2-8.9.2-2.9.1-5.8 0-8.6 0s-5.5-.1-8.1-.2c-2.6-.1-5-.2-7.2-.4-2.2-.1-4.3-.4-6.1-.6-1.8-.2-3.4-.4-4.7-.6-1.3-.2-2.3-.4-3-.5-.6-.2-1-.2-1-.2z" id="path6921"/>
    </g>
    <g class="st47" id="g6923">
      <g id="g6925">
        <g id="g6927">
          <path class="st48" d="M201.4 230.4s-.1-.8-.2-2.2c-.1-1.4-.3-3.5-.9-6-.1-.6-.3-1.3-.6-1.9-.3-.7-.4-1.4-.5-2.2-.2-1.5-.3-3.1-.4-4.8-.2-3.4-.2-7.2-.1-11.1 0-15.7.4-28.4.4-28.4s.5 12.7.4 28.4c0 3.9-.1 7.6 0 11 0 1.7.1 3.3.3 4.8.1.7.2 1.5.4 2.1.3.7.4 1.4.5 2 .4 2.6.5 4.6.6 6.1.1 1.4.1 2.2.1 2.2z" id="path6929"/>
        </g>
      </g>
    </g>
    <g class="st47" id="g6931">
      <g id="g6933">
        <g id="g6935">
          <path class="st48" d="M259.1 230.4s-.1-.8-.2-2.2c-.1-1.4-.3-3.5-.9-6-.1-.6-.3-1.3-.6-1.9-.3-.7-.4-1.4-.5-2.2-.2-1.5-.3-3.1-.4-4.8-.2-3.4-.2-7.2-.1-11.1 0-15.7.4-28.4.4-28.4s.5 12.7.4 28.4c0 3.9-.1 7.6 0 11 0 1.7.1 3.3.3 4.8.1.7.2 1.5.4 2.1.3.7.4 1.4.5 2 .4 2.6.5 4.6.6 6.1.1 1.4.1 2.2.1 2.2z" id="path6937"/>
        </g>
      </g>
    </g>
    <g id="g6939">
      <path class="st49" d="M186.9 190.1s0 2.6.1 6.6c.1 3.9.1 9.2.1 14.5 0 5.3 0 10.5-.1 14.5-.1 3.9-.1 6.6-.1 6.6s0-2.6-.1-6.6c-.1-3.9-.1-9.2-.1-14.5 0-5.3 0-10.5.1-14.5 0-3.9.1-6.6.1-6.6z" id="path6941"/>
    </g>
    <g id="g6943">
      <path class="st49" d="M209.7 192.5s0 2.4.1 6.1c.1 3.6.1 8.5.1 13.3 0 4.8 0 9.7-.1 13.3-.1 3.6-.1 6.1-.1 6.1s0-2.4-.1-6.1c-.1-3.6-.1-8.5-.1-13.3 0-4.8 0-9.7.1-13.3.1-3.7.1-6.1.1-6.1z" id="path6945"/>
    </g>
    <g id="g6947">
      <path class="st49" d="M244.5 190.1s0 2.6.1 6.6c.1 3.9.1 9.2.1 14.5 0 5.3 0 10.5-.1 14.5-.1 3.9-.1 6.6-.1 6.6s0-2.6-.1-6.6c-.1-3.9-.1-9.2-.1-14.5 0-5.3 0-10.5.1-14.5.1-3.9.1-6.6.1-6.6z" id="path6949"/>
    </g>
    <g id="g6951">
      <path d="M267.5 192.5c.07 5.94.25 11.88.2 17.82.03 6.56-.04 13.1-.2 19.66v.65c-.12-6.17-.24-12.34-.2-18.5-.04-6.23.07-12.45.2-18.68v-.95z" id="path6953" fill="#777"/>
    </g>
  </g>
</svg>
