<svg xmlns="http://www.w3.org/2000/svg" viewBox="0 0 100 100">
  <path d="M52 23.6c0 1.2-.8 2-2 2s-2-.8-2-2 .8-2 2-2 2 .8 2 2zm.7-9.6c-9.3.3-16.46 8.58-20.6 16.3-2.8 5.23-2.1 11.83-1.5 17.73 2.74 26 18.68 35.12 23 33.37 2.17-.88-5.28-9.23-6.62-14.22-.88-3.32-1.65-6.06-2.06-10.1-.2-2.2.04-6.5 4.24-5.7 3 .4 7.44 2.68 10.44 1.28 2.3-1-2.38-6.13-3.38-6.53-3-1-9.32-1.83-10.02-5.53-.4-2.2 2.3-5 4.8-4.8 3.4-.6 7.4 0 9.8-2.8 5-5.6 3-16.2-4.6-18.3-1.3-.4-2.6-.6-4-.6zM98 49.8c0 26.5-21.5 48-48 48S2 76.3 2 49.8s21.5-48 48-48 48 21.5 48 48z"/>
</svg>
