<svg xmlns="http://www.w3.org/2000/svg" viewBox="0 0 24 24">
  <path d="M10.82 1.054c1.39-.132 2.825-.022 4.17.353 2.56.707 4.812 2.384 6.246 4.59C22.383 7.765 23 9.862 23 11.957c.023 2.055-.55 4.108-1.632 5.83-1.103 1.787-2.714 3.222-4.59 4.127-1.986.97-4.28 1.302-6.466.95-2.404-.35-4.677-1.56-6.332-3.33-1.545-1.63-2.56-3.75-2.87-5.98-.352-2.47.156-5.058 1.458-7.2 1.72-2.935 4.876-4.966 8.254-5.297zm1.324 19.29c.154 0 .287 0 .42-.022 1.08-.088 2.05-.64 2.824-1.37.706-.683 1.236-1.522 1.61-2.427.553-1.37.707-2.87.597-4.326-.022-.07-.044-.11-.066-.18-.45.62-.95 1.17-1.46 1.74l-.05.15c-.67-.66-1.31-1.33-1.97-1.94-.6.64-1.22 1.28-1.81 1.92-.64-.62-1.37-1.2-2.03-1.81-.07-.07-.2-.09-.24-.03-.53.64-1.08 1.21-1.59 1.85-.44-.42-.95-.75-1.41-1.15-.09-.05-.2-.2-.27-.09-.07 1.39.15 2.78.7 4.06.59 1.37 1.63 2.62 3.02 3.24.13.04.24.09.35.13.44.13.88.22 1.32.22h.02zm-3.75-7.174v.022l.02-.022c.133-.132.244-.243.332-.375.022 0 .022-.022.022-.022.022-.022.022-.045.044-.067H8.57c0-.154.022-.33.044-.485v-.04c0-.02 0-.02.022-.04V12c.022-.044.022-.11.044-.176 0-.023 0-.067.022-.09 0-.043 0-.065.022-.11l.066-.33c.09-.287.177-.552.287-.817.044-.154.11-.265.177-.397v-.022l.044-.044c.022-.09.066-.155.11-.243l.022-.02c.044-.06.066-.11.11-.17 0 0 0-.02.023-.04.022-.02.044-.06.066-.09 0-.02.02-.04.02-.04.02-.02.02-.04.04-.04 0-.02.02-.04.04-.06.02-.02.02-.06.04-.08.04.09.09.18.11.27l.06.13.13.29c.04.07.06.11.08.18.02.05.04.09.06.11v.03c.02.04.04.11.06.16l.02.02c.02.07.04.11.09.18.02.04.02.06.04.11.04.09.09.17.11.26v.13c-.02 0-.02.02-.02.02v.04c-.02.02-.04.07-.04.11-.02.07-.07.13-.09.18 0 .05-.02.09-.05.14.04.02.07.05.09.07l.13.13c.02.03.04.03.04.05.02 0 .02.02.02.02.02 0 .04.03.04.03l.02.02h.02s0 .02.02.02.04.02.04.02c.02 0 .02 0 .02.03h.05s.02 0 .02-.02v-.02c0-.03 0-.05.02-.07v-.05c.02-.04.02-.06.02-.08.03-.04.05-.11.07-.15.05-.11.09-.24.13-.35h2.16c0 .03 0 .05.02.05 0 .02.02.04.02.07.05.14.11.25.16.36.02.02.02.07.02.09.02 0 .07 0 .09-.02h.07c.02-.02.04-.06.09-.11v-.02c.02-.02.04-.04.07-.04 0-.02 0-.02.02-.02.04-.04.06-.08.13-.11v-.02H14v-.02c-.024-.07-.07-.13-.09-.2-.02-.02-.02-.04-.02-.06l-.024-.02c0-.02-.02-.06-.02-.08V11c-.02 0-.02-.02 0-.02v-.09h.023v-.02c0-.026 0-.026.02-.026.07-.13.11-.246.18-.356.04-.086.06-.153.11-.22.04-.11.11-.2.15-.31.09-.2.18-.373.29-.57.02.04.04.09.07.15.04.045.09.11.11.177.04.047.06.09.09.11v.02c.04.048.06.09.08.136.02.02.02.05.04.07 0 .02.02.05.05.09.02.02.02.05.04.07v.02c.02.03.02.05.02.05 0 .02.02.02.02.04.02.06.07.13.09.2.02.04.02.08.04.11.04.11.09.22.11.31.02.02.02.06.02.09.02.02.02.04.04.08l.06.27c.08.35.15.7.19 1.06 0 .09.02.15.02.22v.13h-.22c.02.02.02.04.05.04v.02c.02 0 .02.02.04.02 0 .02.02.04.04.07l.02.03c.08.09.17.18.26.29v.02c.02-.02.04-.05.06-.05.02-.04.06-.06.09-.11h.02c0-.02.02-.02.02-.04.02 0 .02-.02.02-.02.02 0 .02-.02.02-.02.06-.09.13-.18.2-.24.02-.02.04-.07.07-.09l.04-.05.07-.06c0-.02.02-.02.02-.02v-.36c-.03-.11-.03-.22-.05-.33 0-.07-.02-.11-.02-.18 0-.02 0-.05-.02-.07v-.07c0-.04-.03-.09-.03-.13-.04-.22-.11-.44-.17-.66-.02-.05-.02-.09-.04-.13 0-.04-.02-.06-.02-.11-.05-.11-.09-.22-.14-.31-.02-.06-.06-.13-.09-.2-.06-.16-.13-.29-.2-.44-.02-.02-.04-.043-.04-.07-.02-.04-.05-.06-.07-.09-.02-.04-.04-.11-.09-.15-.04-.07-.06-.132-.13-.2 0-.023-.02-.05-.04-.07.02.02.04.02.04.02l.02.027c.06.044.15.09.24.11l.02.02h.02c.11.04.22.08.31.15.02 0 .04 0 .06.02l.44.22c.26.09.53.22.81.33.11.04.24.11.37.15.09.05.18.07.29.11.045 0 .09.03.16.05h.02c.02 0 .02.02.05.02.042 0 .09.02.11.02l.042.03c.11.02.22.064.31.09.06.02.13.02.192.04h.13l.02.025h.09c.02 0 .04-.02.06-.02.024-.02.024-.04.024-.06 0-.046-.02-.11-.02-.16v-.04c-.02-.07-.05-.135-.07-.18-.02-.07-.05-.11-.09-.18 0-.02-.02-.063-.046-.085-.02-.04-.04-.065-.067-.11-.02-.02-.04-.04-.04-.065-.087-.11-.176-.22-.24-.31-.02-.02-.02-.048-.046-.07l-.02-.024V9.1c-.02-.02-.02-.04-.04-.06-.07-.07-.11-.134-.18-.2l-.06-.066c-.18-.18-.336-.36-.51-.51l-.02-.02c-.09-.09-.16-.18-.25-.25-.04-.04-.09-.064-.11-.09l-.02-.02-.04-.04-.04-.02c-.07-.07-.16-.13-.22-.18l-.09-.09-.13-.063c0-.02-.02-.02-.02-.04-.05-.02-.07-.04-.11-.07-.02 0-.05-.02-.07-.02V7.3h-.02c-.05-.025-.07-.047-.11-.07-.09-.067-.2-.11-.31-.177-.05-.024-.07-.024-.09-.046-.046-.02-.09-.045-.13-.045 0-.02-.03-.02-.03-.02-.05-.027-.07-.027-.09-.027l-.02-.02h-.09v-.03c-.18-.027-.33-.05-.51-.05l-.02.025h-.2c-.06.02-.11.02-.17.04-.05 0-.09.02-.11.02-.02 0-.02 0-.05.02-.02 0-.07 0-.09.02h-.02c-.06.04-.11.064-.17.11-.09.04-.17.11-.24.175l-.04.05-.05.05c-.07.068-.11.157-.138.245l-.02.02c-.045-.02-.067-.046-.11-.07-.13-.09-.266-.132-.376-.2h-.05c-.02-.02-.04-.02-.06-.042h-.02l-.02-.02c-.05 0-.09-.02-.13-.04.02-.082.02-.15.04-.24 0-.04 0-.09.02-.13v-.09c0-.042 0-.064.02-.11v-.26c.02-.134.02-.266.02-.4-.02-.022-.02-.044-.02-.044V5.7c0-.067 0-.11-.02-.155v-.06c-.02-.02-.02-.02-.02-.048-.02-.11-.06-.2-.11-.31V5.1c-.08-.2-.22-.4-.31-.6 0 0-.02-.02-.02-.043-.09-.09-.15-.22-.22-.33-.04-.046-.06-.068-.09-.11-.02-.024-.02-.046-.04-.068-.02-.03-.05-.07-.09-.09-.07-.11-.15-.24-.29-.27H12v.02c-.02 0-.02 0-.04.02 0 .02 0 .02-.022.02l-.045.04-.065.06-.02.02c0 .02-.02.02-.02.02 0 .02-.02.02-.02.05-.154.2-.286.4-.397.6-.02.04-.06.09-.09.13-.02.07-.06.13-.11.2-.02.09-.06.15-.11.24 0 .02-.02.05-.04.07 0 .02 0 .04-.02.07v.02l-.06.2c-.02.04-.02.11-.02.15 0 .05-.02.11-.02.16v.13c-.02.22 0 .44 0 .66.02.04.02.06.02.11v.11c0 .02.03.04.03.07v.11c.02.11.04.24.06.35-.07.03-.13.05-.2.09-.07.03-.15.07-.24.09-.02.02-.07.05-.11.07-.02.02-.07.02-.09.05-.02.02-.02.02-.05.02 0 .02-.03.02-.03.02-.03 0-.03.02-.03.02h-.02l-.05.04s-.03 0-.03.02h-.02l-.04.04-.07-.16-.02-.03c0-.02-.02-.07-.04-.09 0-.02-.02-.02-.02-.05l-.04-.04c0-.02-.02-.02-.02-.04-.04-.02-.06-.07-.11-.09v-.02c-.02 0-.04-.02-.06-.05l-.02-.02s-.02 0-.02-.02c-.02-.02-.02-.02-.04-.02-.04-.04-.11-.07-.15-.09-.02-.02-.04-.02-.06-.02-.07-.04-.16-.07-.24-.09H9.1v-.02c-.05 0-.09 0-.134-.02H8.9c-.043 0-.087-.03-.154-.03h-.132c-.088 0-.2.03-.287.03h-.022c-.022.02-.022.02-.044.02h-.02c-.09.05-.2.07-.28.11 0 .02-.02.02-.04.02-.11.05-.22.11-.31.16-.06.04-.11.06-.17.09 0 .02 0 .02-.02.02-.02.02-.04.02-.06.04-.02.02-.04.02-.06.04-.02.02-.04.02-.06.04-.04.04-.11.06-.15.11l-.02.03c-.06.04-.11.09-.17.13l-.02.02h-.03l-.13.13c-.04.02-.06.06-.11.09-.22.2-.42.39-.64.61-.06.09-.15.15-.22.22l-.02.02v.02c-.11.11-.2.22-.29.35-.04.04-.07.06-.09.11-.02.02-.02.04-.04.04v.02h-.03c0 .02 0 .04-.02.04 0 .02-.02.05-.02.05-.02.02-.04.04-.06.09 0 0-.02.02-.02.04-.02.04-.06.09-.09.13L5 9.66v.03l-.02.02s-.02.02-.02.043v.026c-.042.04-.064.09-.086.15 0 .02 0 .05-.02.07v.11c-.02.04 0 .11 0 .15l.02.02v.04h.023v.02H5c.153-.05.31-.07.462-.11h.04c.088-.03.154-.05.242-.07.044-.02.09-.05.133-.05.11-.05.198-.07.31-.11.263-.09.506-.2.77-.31H7c.088-.05.177-.07.243-.11.176-.09.353-.16.53-.25.044-.02.066-.02.11-.04.176-.09.353-.16.53-.25.088-.05.198-.09.308-.14.09-.05.2-.09.31-.16l-.02.02-.04.04c-.04.04-.06.09-.11.13l-.13.2H8.7l-.066.13c-.022.04-.066.08-.088.13-.022.06-.067.15-.11.22-.023.06-.067.13-.11.2 0 .04-.023.06-.023.08-.022.02-.022.04-.044.07l-.2.57-.13.46c-.05.11-.07.24-.09.35v.02l-.03.04v.02c0 .09-.03.15-.05.24l-.07.66v.22l.06.06s.04.02.04.04c.04.04.09.06.13.11.08.04.15.11.24.17l.02.02h.02c0 .02.02.02.02.02l.07.06.02.02.02.02h.02zm1.83-4.48c.574-.44 1.258-.794 1.986-.772.75 0 1.412.376 1.964.86-.11.244-.22.487-.353.73-.15.353-.37.684-.5 1.06-.73.022-1.43 0-2.16.022-.31-.64-.62-1.26-.93-1.9z"/>
</svg>