<svg xmlns="http://www.w3.org/2000/svg" viewBox="0 0 24 24">
  <path d="M9.206 1.336c1.276-.33 2.596-.397 3.894-.287 1.98.17 3.916.92 5.5 2.14 1.628 1.19 2.882 2.87 3.63 4.74.44 1.04.638 2.14.77 3.242v1.39c-.11 2.186-.88 4.328-2.2 6.07-1.54 2.033-3.784 3.49-6.27 4.064-2.27.54-4.708.36-6.864-.59-3.168-1.35-5.632-4.28-6.38-7.66-.176-.75-.264-1.55-.286-2.32v-.29c.044-2.18.704-4.323 1.958-6.11C4.432 3.59 6.698 2 9.206 1.34zm2.442 2.804c-.308.486-.66.95-.77 1.5-.066.575-.022 1.15.066 1.7-.286.11-.572.266-.836.42-.2-.31-.442-.596-.772-.706-.506-.155-1.056-.133-1.518.11C6.872 7.65 6.08 8.4 5.42 9.24c-.242.353-.55.684-.506 1.13.132 0 .264.022.374 0 1.276-.287 2.42-.95 3.63-1.435-.704.972-1.1 2.163-1.166 3.378-.132.883.088 1.766.418 2.56-.594.553-1.188 1.15-1.562 1.9-.154.31-.264.684-.132 1.037.132.332.506.486.836.552.308.022.616-.132.814-.353.418-.49.66-1.11.814-1.73.528.682 1.1 1.37 1.826 1.83.462.31 1.034.53 1.606.485.814-.11 1.474-.66 2.002-1.236.33-.31.55-.708.836-1.016.22.64.44 1.37 1.012 1.81.44.396 1.144.175 1.43-.31.176-.398.044-.88-.176-1.236-.396-.644-.902-1.17-1.43-1.68-.11-.09 0-.2.022-.31.198-.53.33-1.08.374-1.656 0-1.39-.352-2.803-1.144-3.95 1.056.506 2.134 1.037 3.278 1.324.154.042.286.042.44.02 0-.177 0-.354-.11-.508-.308-.552-.748-1.06-1.188-1.5-.55-.53-1.144-1.016-1.848-1.303-.704-.244-1.606-.067-1.98.617-.242-.132-.506-.243-.748-.353.11-.53.11-1.084.066-1.636-.066-.397-.308-.77-.528-1.125-.154-.24-.308-.53-.55-.73-.22-.11-.374.18-.484.31zm-.198 3.952c.682-.177 1.452-.044 2.046.353.99.618 1.606 1.722 1.892 2.826.176.78.286 1.57.11 2.34-.286 1.06-.836 2.06-1.518 2.9-.44.488-.902.996-1.54 1.19-.396.136-.814-.063-1.144-.262-.58-.38-1.06-.91-1.478-1.44-.506-.7-.946-1.47-1.144-2.34-.154-.57-.11-1.19-.022-1.76.154-1.11.616-2.186 1.404-2.98.396-.376.858-.685 1.386-.817zm.33 1.06c.418.53.616 1.302.308 1.943-.286.596-.99.795-1.43 1.258-.44.574-.484 1.413-.132 2.03.242.42.682.707 1.122.862.506.2 1.056.088 1.54-.11.44-.177.638-.685.66-1.127.022-.596-.176-1.192-.396-1.722-.088-.154-.11-.353-.264-.44.044.485.154 1.06-.176 1.478-.132.2-.418.2-.55 0-.242-.265-.396-.73-.132-1.038.308-.33.726-.596.858-1.06.088-.397.088-.883-.198-1.214-.33-.395-.73-.75-1.21-.86zm-.858 4.923c-.22-.353-.132-.795 0-1.17.022.53.176 1.082.55 1.48.176.176.396.286.594.418-.44-.088-.924-.31-1.144-.728z"/>
</svg>