<svg xmlns="http://www.w3.org/2000/svg" viewBox="0 0 24 24">
  <path d="M10.17 8.888c.5294-.4416 1.191-.773 1.919-.7508.7058-.022 1.345.3533 1.897.795-.1985.596-.5735 1.126-.794 1.7-.044.022-.0882.066-.1323.0882-.6617-.022-1.345 0-2.029 0-.2426-.552-.5073-1.104-.772-1.656-.044-.0662-.0662-.1104-.0882-.1767zM8.557 12.71c.022-1.214.441-2.407 1.169-3.379.2206.574.5735 1.104.772 1.678-.0662.265-.1765.53-.2647.773-.1103.309-.2426.6182-.353.9273h-1.323zm5.203-1.9c.1765-.3975.6396-1.325.6617-1.391.3088.4196.5514.8833.728 1.369.022.0663.044.1325.088.2208.1986.552.2427 1.126.309 1.7h-1.059c-.2427-.552-.5295-1.06-.772-1.612-.0442-.0883 0-.1987.044-.287zm-2.735.508c.7058-.0222 1.412-.0443 2.117 0 .2426.4636.4632.9494.7058 1.413.0662.1324.1765.287.0882.4195-.353.552-.728 1.126-1.059 1.7h-1.544c-.1544-.287-.816-1.457-.9484-1.722.0662-.3533.2426-.6404.353-.9716.022-.089.2866-.795.2866-.84zm-2.47 1.987H9.79c.3088.574.6838 1.148.9484 1.744-.2426.4415-.4852.8832-.75 1.303-.7057-.8834-1.279-1.921-1.434-3.047zm4.852 1.811c.353-.6184.772-1.192 1.103-1.811.3308-.0222.6838 0 1.015 0-.044.3974-.1544.7728-.2867 1.148-.2647.6403-.6176 1.259-1.037 1.833-.2426-.3976-.5073-.795-.794-1.17zm-2.184.309c.5514.022 1.125 0 1.698.022.2867.4638.6396.8834.8823 1.347-.4632.4638-.9705 1.016-1.654 1.082-.7058-.0662-1.257-.574-1.742-1.038.2867-.4636.5294-.9273.816-1.413zm-.46-14.36c1.742-.1987 3.551.022 5.205.6625 2.25.8612 4.191 2.495 5.426 4.549 1.213 1.965 1.765 4.328 1.566 6.625-.1544 2.009-.8823 3.953-2.073 5.587-1.213 1.634-2.867 2.959-4.764 3.71-2.051.839-4.389 1.016-6.551.53-2.385-.54-4.569-1.91-6.113-3.81-1.323-1.59-2.161-3.59-2.382-5.65-.2864-2.34.199-4.768 1.39-6.799 1.213-2.076 3.088-3.754 5.315-4.66.949-.397 1.941-.64 2.975-.75zm1.412 17.64h.022c.0662 0 .1545-.022.2427-.022h.044l.022-.0222h.0442c.066-.022.154-.044.242-.0662h.022c.022 0 .044-.022.066-.022.044-.0222.11-.0442.154-.0663.066-.0442.154-.0884.22-.1325h.044v-.022c.022 0 .044 0 .044-.0222.022 0 .022-.022.044-.022.022-.0222.066-.0442.088-.0663h.022c.022-.022.066-.0663.11-.0884l.022-.022h.022c.132-.133.287-.243.419-.376.044-.044.088-.089.132-.155.044-.022.066-.045.088-.067.022-.044.066-.066.11-.111 0-.022.022-.022.022-.044l.088-.089.044-.044c.088-.111.154-.199.242-.287v-.022h.022c0-.022.022-.045.022-.045 0-.022.022-.044.044-.044v-.023l.022-.022s0-.022.022-.022v-.022l.132-.199c0-.022.044-.044.044-.066l.066-.066c.044.132.088.243.11.375.022.022.022.044.044.066l.066.199c0 .022.022.044.022.044 0 .044.022.066.022.088.022.022.022.022.022.044.022.044.044.066.044.11l.022.022.066.132c0 .022.022.044.022.044.022.022.022.044.022.066.022.022.044.044.044.066l.022.022c.044.066.066.11.11.177l.022.022c.022.022.044.066.066.088.022.022.022.044.044.066.088.088.176.177.265.243h.022l.044.044h.022l.022.022h.022c.022.022.044.022.066.044h.044v.022h.089v.022h.352c.044-.022.066-.022.088-.022l.022-.022c.022 0 .045 0 .089-.022.132-.044.242-.11.353-.199l.066-.066c0-.022.022-.044.044-.066.022-.022.022-.044.044-.044v-.044c.022 0 .022-.022.022-.022.022-.044.044-.066.044-.089.022-.089.044-.155.044-.243v-.176c-.022-.067-.022-.133-.044-.177l-.066-.199c0-.022-.022-.044-.022-.066-.022-.022-.022-.044-.022-.067l-.022-.022c-.132-.265-.309-.53-.485-.773-.044-.044-.088-.111-.132-.155-.022-.045-.066-.067-.088-.111-.022-.022-.066-.066-.088-.111h-.022l-.022-.022c-.088-.132-.199-.265-.331-.375l-.066-.066v-.022h-.022c-.088-.088-.199-.198-.309-.287 0 0-.022-.022-.044-.022.044-.088.088-.177.11-.243.022-.044.022-.066.044-.088 0-.044.022-.088.044-.155 0-.022.022-.044.022-.066.066-.199.11-.42.154-.618.022-.022.022-.044.022-.066 0-.044.022-.089.022-.111 0-.066.022-.11.022-.155.022-.287.044-.574.022-.861v-.11c-.044-.751-.242-1.479-.485-2.186l-.044-.066-.132-.331c-.044-.088-.067-.155-.111-.221-.022-.022-.044-.066-.044-.088-.066-.11-.132-.2208-.22-.331 0-.022-.022-.022-.022-.044l-.022-.022-.0224-.022c-.022-.044-.044-.0665-.0663-.1106.044.044.0886.066.1326.088 0 .022.022.022.044.044.133.044.265.11.397.1544.022.022.0667.044.111.0666.066.022.132.067.198.089.1104.067.243.111.353.155.287.133.5514.265.838.376.022 0 .044.022.066.022.11.0446.242.0887.375.133 0 0 .022.022.044.022h.022l.022.022c.044 0 .088.022.11.022.066.022.132.044.176.066.11.022.198.066.308.0884.022 0 .044 0 .066.022.044 0 .066 0 .11.022h.022c.044 0 .11.022.1766.022h.176v-.022c.022-.044.022-.088 0-.132v-.155c-.022-.022-.022-.066-.044-.11s-.0443-.11-.0664-.154c-.022-.0448-.044-.067-.066-.111l-.022-.022c-.022-.022-.022-.045-.044-.067-.022-.044-.044-.066-.0667-.0883l-.022-.067v-.02c-.0665-.066-.1106-.1325-.1548-.1987-.067-.088-.155-.1543-.221-.243-.044-.066-.089-.11-.133-.1763-.022-.022-.0662-.044-.0883-.088l-.088-.088c-.044-.044-.11-.11-.154-.1764-.044-.022-.066-.0665-.11-.1107-.022 0-.022-.022-.044-.044-.044-.022-.066-.0664-.11-.0885l-.111-.111-.066-.066-.044-.044c-.133-.111-.265-.221-.397-.309-.045-.045-.111-.089-.177-.133l-.022-.022c-.1107-.066-.221-.155-.331-.221-.022-.022-.066-.044-.0886-.066-.066-.022-.1327-.066-.177-.089-.022 0-.044-.022-.066-.022h-.022v-.022h-.022c-.022-.022-.066-.022-.088-.044-.044 0-.066-.022-.088-.022h-.044c0-.022-.022-.022-.044-.022-.088-.022-.1542-.044-.2204-.044v-.022h-.154c-.022 0-.044-.022-.044-.022-.1546 0-.309 0-.463.022-.022.022-.066.022-.0886.022l-.022.022c-.044 0-.066 0-.11.022-.088.022-.1767.066-.265.11 0 0-.022.022-.044.022 0 0 0 .022-.022.022h-.022v.022c-.088.044-.1766.1325-.2427.221l-.022.022-.044.044-.088.088c-.022.022-.044.0443-.066.0443v.022c0-.022-.022-.022-.022-.022-.066-.022-.132-.066-.22-.0885-.022-.022-.066-.044-.088-.066-.044 0-.089-.022-.111-.044h-.022c-.088-.022-.155-.066-.243-.0886v-.045l.022-.044v-.04c0-.044 0-.11.022-.154v-.132c.022-.1106.044-.243.044-.353v-.684c-.022-.0446-.022-.0888-.022-.133V5.81c-.022-.0664-.044-.1547-.066-.221 0-.044-.022-.0662-.022-.1103l-.022-.022c0-.044-.022-.066-.044-.11 0-.022 0-.022-.022-.044 0-.022-.022-.044-.022-.066-.022-.022-.022-.044-.044-.066v-.022l-.022-.022v-.022c-.044-.066-.066-.132-.11-.199-.022-.044-.067-.11-.089-.154l-.022-.022c-.023-.022-.045-.066-.067-.088-.022-.044-.044-.066-.044-.088l-.132-.198-.022-.044c-.0442-.022-.0662-.066-.0883-.11-.022 0-.022-.022-.044-.044 0-.022-.022-.022-.022-.044l-.067-.066-.022-.022c-.022-.022-.044-.044-.088-.066-.022-.022-.066-.022-.088-.022h-.044c-.022 0-.066 0-.088.022-.022 0-.022 0-.022.022-.044.022-.088.066-.11.11h-.022v.022c-.0227 0-.0227.022-.0447.022-.022.045-.044.067-.066.111-.132.155-.2423.331-.331.508-.022.044-.044.066-.066.111-.044.067-.066.111-.11.177-.022.066-.066.133-.0884.199-.022.022-.022.045-.044.067 0 .022 0 .044-.022.044 0 .023 0 .045-.022.067 0 .022-.022.066-.022.088-.022.022-.022.022-.022.044s-.022.044-.022.066c-.022.1107-.044.221-.066.3536v.11c-.022.177-.022.376 0 .552.022.111.022.221.044.332 0 .067.022.155.022.221.022.067.022.133.044.199v.088c-.132.045-.243.089-.375.133-.022.022-.044.022-.066.044-.066.022-.132.066-.1986.11-.044.022-.11.067-.154.089l-.044.044c-.044-.066-.066-.1323-.11-.199-.022-.022-.022-.022-.022-.044-.022 0-.022-.022-.022-.022H9.9V7.6l-.0445-.0444c0-.022-.022-.022-.044-.044l-.022-.022c-.066-.0663-.1544-.1325-.2206-.1767-.133-.089-.265-.155-.419-.199-.022 0-.044-.022-.067-.022-.066 0-.11-.022-.154-.022h-.044c-.022 0-.067-.022-.089-.022h-.331v.022h-.11c-.022 0-.044.022-.088.022-.044.022-.11.022-.154.044h-.022c-.067.022-.111.044-.177.066-.022.022-.066.044-.088.044s-.022.022-.044.022l-.132.066c-.044.022-.111.066-.155.088-.044.022-.11.066-.154.088l-.044.022c0 .022-.022.022-.044.044-.044.022-.111.066-.155.11-.133.088-.243.176-.353.265l-.022.044c-.044.022-.067.044-.111.088-.133.11-.265.221-.375.331-.067.066-.133.132-.199.198-.022.022-.066.066-.088.11-.022.022-.044.044-.066.044v.021l-.022.022c-.133.132-.243.265-.353.397-.044.044-.088.11-.133.177-.044.044-.066.088-.11.154-.022 0-.022.022-.044.044-.022.044-.044.066-.066.11-.044.066-.066.11-.088.155-.022 0-.022.022-.022.044-.022 0-.022.022-.044.044-.022.044-.044.11-.066.176-.022.066-.044.132-.044.198v.177h.198c.066 0 .154-.022.221-.044.11-.022.198-.044.308-.066.022-.022.022-.022.044-.022.088-.022.155-.044.243-.066l.022-.022c.044 0 .089-.022.133-.044h.044l.022-.022c.044 0 .111-.022.177-.044.088-.045.176-.067.242-.111.044 0 .066-.022.11-.022L6.678 10c.044-.022.066-.022.1105-.044.198-.089.375-.155.551-.243l.022-.022c.044 0 .088-.022.132-.044.1763-.089.375-.177.5512-.265l.088-.022c.066-.045.11-.067.176-.089.0444-.022.0885-.044.155-.066.11-.0447.22-.111.33-.155h.044l.022-.022c.044-.022.066-.022.088-.044v.022c-.022.022-.066.044-.088.066 0 .022-.022.022-.022.044s-.0226.022-.0226.044-.044.044-.066.066c-.022.044-.066.0884-.088.1546-.022.022-.044.067-.066.089-.066.1102-.132.221-.176.309l-.066.1324-.022.044-.044.0668c0 .022-.022.044-.022.088l-.0226.022c-.022.066-.044.133-.066.177-.022.0885-.066.155-.088.243-.022.066-.044.1326-.066.177v.044S8 10.795 8 10.817s-.022.044-.022.066 0 .044-.022.0663c0 .044-.022.1102-.044.177-.022.088-.044.1763-.044.243-.022.066-.044.132-.044.1982-.022.022-.022.044-.022.066 0 .066-.0226.132-.0226.199v.022h-.02c0 .132-.022.265-.044.397-.022.199-.022.375-.022.574v.375c0 .088.022.1983.022.287 0 .022 0 .044.022.066 0 .1105.022.243.066.3755.044.265.1327.508.243.773v.022c0 .022.022.044.022.044.022.066.044.1106.066.177 0 0 .022 0 .022.022-.242.221-.485.463-.728.706v.022l-.066.0664c-.088.0884-.154.1767-.22.265l-.022.022c-.022.022-.044.0443-.044.0664l-.0445.044c-.022.022-.044.0664-.066.0884s-.022.044-.044.066l-.022.022c0 .022-.022.022-.022.044-.111.1327-.177.265-.265.42-.022.022-.022.044-.022.044-.022.022-.022.022-.022.044l-.023.0223v.022c-.022.022-.022.0663-.044.1104-.022.022-.022.044-.022.066-.044.089-.066.177-.088.265 0 .067 0 .111-.022.155v.089c0 .066.022.155.044.221l.066.133s0 .022.022.022c0 .022 0 .022.022.044l.022.022c.022.022.044.044.066.088.022.022.044.044.066.044v.022H6.7c0 .022.022.022.044.044 0 0 .022 0 .022.022h.022s0 .023.022.023h.022c.022.022.044.044.089.044.088.066.199.088.331.11h.176c.045 0 .089 0 .133-.022h.022c.022 0 .022 0 .044-.022h.0446l.132-.066c.022-.022.022-.022.044-.022l.0667-.067c.022 0 .045-.022.045-.022.044-.044.066-.066.11-.088 0-.022.022-.044.044-.044v-.022h.022c.022-.044.044-.0666.0665-.1107 0 0 .022 0 .022-.022.022-.022.044-.0663.066-.0884.044-.044.066-.088.0883-.132.022-.044.066-.089.088-.155.022-.044.067-.11.089-.177.022-.044.044-.088.066-.154.044-.088.066-.1765.11-.265v-.022l.022-.022c.022-.11.066-.1986.088-.309.022-.066.044-.1546.066-.221 0-.022.022-.022.022-.044v.022c.022 0 .022.022.022.022.022.022.022.044.0448.0664 0 .022.022.044.044.044.022.044.044.066.066.11.154.199.3082.3757.463.574l.088.0887c.2643.287.551.53.86.773.022.022.044.022.066.0444s.044.044.066.044l.022.022c.022.022.044.0446.088.067.0662.044.1544.088.243.1322.022.022.044.022.066.044l.022.022h.022c.044.022.066.0443.11.0443.022.022.044.022.044.022.022.022.044.022.044.022l.133.066c.044 0 .088.022.11.022h.023c.022.022.044.022.066.022.022.022.066.022.088.022h.022c.044.022.088.022.132.022h.022c.044 0 .066.022.1106.022h.155z"/>
</svg>