<svg xmlns="http://www.w3.org/2000/svg" class="cjdEPt" id="KW_LOGO" viewBox="0 0 550 500">
  <style>
    .bg{fill:#30C0F9;} .st1{clip-path:url(#CIRCLE_CLIP);} .st2{fill:#BB8B5A;} .st3{fill:#BCBCBC;} .st4{fill:#D1D1D1;} .st5{fill:#9B704C;} .st6{fill:#C9C9C9;} .st7{fill:#755130;} .st8{fill:none;stroke:#6D6D6D;stroke-miterlimit:10;} .st9{fill:#D1D1D1;stroke:#6D6D6D;stroke-miterlimit:10;} .st10{fill:#7D7D7D;} .st11{fill:none;stroke:#566D05;stroke-miterlimit:10;} .st12{fill:#A7CC0D;} .st13{fill:#FFFFFF;} .st14{fill:#566D05;} .st15{opacity:0.75;} .st16{fill:#343534;} .st17{fill:#697D21;}
  </style>
  <circle class="bg" cx="246.7" cy="250.5" r="243.2" id="circle4261"/>
  <defs id="defs4263">
    <clipPath id="CIRCLE_CLIP">
      <circle cx="246.7" cy="250.9" r="243.2" id="circle4266"/>
    </clipPath>
  </defs>
  <g clip-path="url(#CIRCLE_CLIP)" id="g4268">
    <path d="M252.9 386.1c-2.55 20.18 18.35 32.6 35.83 34.9 23.4 1.8 32.77 40.72 10.84 51.5-15.74 11.4-33.9 1.93-50.07-3 19.48 3.67 39.63 6.3 57.47 15.5-26.9 11.14-56.95 9.54-85.42 7.92-19.18-1.9-38.2-6.1-56.15-13.12-15.9-31.67-10.98-72.3 11.5-99.6 17.1 15.37 43.77 28.9 65.75 15.33 3.9-2.54 7.32-5.8 10.25-9.43zM29.96 140.46l89.24 50.84c-19.12 23.92-26.3 57-51.56 75.92-12.53-8.62-26.82-27.28-42.87-36.7-15.1-7.63-22.47-22.54-14.3-38.36 4.82-17.76 10.63-35.5 19.5-51.7z" fill="#bb8b5a"/>
    <path d="M28.8 139.9c20.9-1.98 42.03 1.53 61.9 7.92 14.7 4.8 28.73 11.48 41.8 19.68-8.25 8.82-15.9 18.34-21.8 28.9-12.9-11.06-26.45-21.76-41.84-29.2-2.97-1.47 2.26 3.35 2.93 4.7 4.3 5.4 8.6 10.87 12.8 16.4-13.2-11.33-27.1-22.1-43-29.18-6-2.42-12.6-4.62-19.1-3.16" fill="#9b704c"/>
    <path d="M179.5 382.4c22.85 14.18 43.93 32.06 59.1 54.44 10.57 16.6 17.08 35.3 23.65 53.74 2.14 5.6-7.3 2.4-10.37 3.48-13.48.03-27.03-.37-40.36-2.52-7.34-8.32-16.54-15.13-22.73-24.48-1.7-6.9-9.6-7.96-15.4-9.24-4.6-.9-9.1-1.72-13.7-2.42 8.8.9 18.2.6 26.4 4.5 4.1 2.34 4.6 7.7 8.5 10.4 7.8 7.6 16.2 14.53 24 22.14 12.3 1.5 24.8 2.07 37.2 1.36-5.1-17.74-11.2-35.34-20-51.56-13.9-23.58-34.3-42.47-55.6-59.18l-.9-.66z" fill="#755130"/>
    <path d="M32 223.3c-7.36-5.62-14.9-16.63-24.74-15.43C-2.67 261 6.1 317.63 31.36 365.45c28.2 53.94 78.8 94.16 135.55 114.75.2-10.6-12.6-20.66-5.5-32.3 5.7-14.24 21.1-23.5 22.3-39.8-3.9-10.87-6.8-21.55-9.3-33.02-5.5-12.87-15.7-23.64-28.6-29.1-13.8-7.94-27.5-16.25-39-27.48-7.3-6.5-15-12.62-20.5-20.83-8.2-11.65-19.6-20.5-27.6-32.33-10.7-12.8-18.6-27.46-26.5-42.04z" fill="#9b704c"/>
    <path d="M252.6 387.9c2.8 8.4 6.1 17.33 13.03 23.23 4.3 3.42 10.1 2.13 15.15 3.23 11.04 1.4 21.95 6.97 27.86 16.68 4.43 6.65 9.8 13.78 9.1 22.2-.8 8.37-7.45 14.34-13.32 19.62-7.58 6.5-18.16 9.04-27.9 6.9-8.9-1.52-17.13-5.5-24.82-10.06 11.43 3.86 23.66 8 35.83 5.43 9.4-2.13 16.5-9.5 21.65-17.25 2.95-4.5 1.65-10.18-1-14.5-4.27-7.25-8.64-15.1-16.34-19.23-7.07-4.04-15.27-4.93-23.12-6.4-7.84-2.5-11.87-10.64-14.12-17.97-.97-3.88-2.3-7.84-2-11.88z" fill="#755130"/>
  </g>
  <path class="st12" d="M63 268.1s5.1-30.6 29.7-47.3c11.3-23.5 30.3-70 89.2-88.4 3.6-6.3 2.4-11.8 19.7-13 17.3-1.1 30.9 1.1 53.2-10.2 3.5-5.7 4.2-20.3 43.2-7.5 12.5-3.9 27.4-4.9 27.4-4.9s1.4-12.6 13.9-10.6 31.6 5.9 39 18.6c7.4 12.7 9.9 23.2 9.9 23.2l20.7 7.8 23.9 6.7s9.6-37.9 49.3-25.6c6.3 3.6 18.1 6.1 24.9 1.6 6.8-4.5 35.9 22.1 35.9 22.1s6.2 24.2-4.8 28.9l-8 1.9 6.4 8.9s3.8 4.3-6.1 9.9-19 9.6-36.4 28.3c-17.4 18.7-37.2 26.9-37.2 26.9s-19.9 8.2-34.3 18.2c-14.4 9.9-32.3 17.4-44.5 19.6-18.7 10.8-28.2 14.1-34.7 34.5-6.5 20.4-14.7 42.7-36.4 48.3-21.7 5.5-40.6 14.5-40.6 14.5s-8.3 5.9-17.6 14-32.1 16.4-32.1 16.4l-35.3-27.6-4.9-3.4s-3.3-16.9-15.7-25.3c-12.3-8.4-60.6-41.8-60.6-41.8L81.4 293 63 268.1z"/>
  <path d="M317.7 129.7c-4.16-1.84-8.37-3.6-12.5-5.48-2.64-2.1-5.27-4.2-7.9-6.32-5.72-.37-11.45-.88-17.17-1.17-5.8.66-11.62 1.3-17.43 1.97-1.35 2.83-2.9 5.57-4.13 8.46-1.57 4.38-1.03 9.92 2.8 13 3.66 3.12 8.6 3.68 13.03 5.1 4.25 1.17 8.5 2.33 12.8 3.24 4.83-1.9 9.7-3.72 14.5-5.7l16-13.1z" fill="#fff"/>
  <path class="st14" d="M64.4 268.1l-4.9-1.1c5.7-24.3 20.8-39.4 30.1-48.6 11.6-24.2 31.6-56.8 60.8-75.3 17.8-11.3 30.6-12 31.1-12l.2 5-.1-2.5.1 2.5c-.1 0-12.3.7-29 11.5-28.2 18-47.5 49.9-58.8 73.4l-.2.4-.3.3c-8.8 8.7-23.6 23.3-29 46.4z" fill="#566d05"/>
  <path d="M154.1 249.5c.2 7.78.86 15.84 4.27 22.96 2.2 4.56 6.54 7.44 10.18 10.74 10.56 9.33 20.75 19.14 29.75 30-13.8-9.04-26.4-19.78-38.55-30.92-5.96-5.24-7.74-13.6-7.53-21.24.15-3.9.6-7.83 1.88-11.54z" opacity=".75" fill="#566d05"/>
  <path d="M373.8 286.5c-13.25 7.63-25.4 19.43-27.67 35.23-5.88 20.82-18.46 44.22-41.35 49.16-28.95 4.8-56.66 14.9-85.08 22 26.76-14.6 55.16-26.8 85.14-32.7 19.9-7 28.94-28.6 36.06-46.8 5.24-13.9 19-23.4 32.9-27zM180 147.4c-2.93-10.93-.3-27.6 13.2-29.4 17.74-1.55 35.9-.3 53.1-5.8 8.62-1.5-12.86 8.56-17.4 9.08-12.42 3.43-25.5 2-38.1 3.52-8.2 3.88-9.53 14.63-10.8 22.6z" fill="#566d05"/>
  <path d="M237.4 132.3c3.02-4.64 6.1-9.44 10.5-12.9 1.63-1.06 2.43-4.16 2.74-6.3.05-1.43.38-6.22 1.87-8.67 2.4-5.36 8.1-7.8 13.4-9.23 3.4-1.06 6.8-1.8 10.3-2.1-1.4.77-3 1.36-.5 0 5.2-1.23 10.3.97 15 2.72 13 5.64 25.3 13.43 34.8 23.98-11.4-6.84-23.5-12.83-36-17.53-3.7-1.2-7.4-2.8-11.4-2.67 2.1-1.38-1.5.95-2.5.55-5.1.77-10.3 1.8-14.9 4.22-3.2 2.22-4.3 6.28-4.8 9.97-1 3.5-2.9 7.25-6.4 8.75-4.2 2.7-8.1 5.9-11.9 9.2z" fill="#566d05"/>
  <path d="M298.7 102c3.26-3.16 7.37-5.4 11.68-6.75 4.96-1.53 10.25-1.48 15.36-.9 6.7.93 13.7 3.07 18.48 8.13.65.68 2.3 2.9 1.9 3.06-5.1-2.7-10.9-3.38-16.54-4.06-4.57-.46-9.15-.8-13.74-.97-5.74 0-11.44.9-17.14 1.5z" fill="#566d05"/>
  <path d="M324.6 95.9c.56-5.27 4.03-10.88 9.64-11.7 6.5-.6 13.07.36 19.46 1.52 5.57 1 10.62 3.78 15.43 6.65 6.04 3.77 11.5 9.02 13.9 15.87 2.38 6.05 4.2 12.37 4.87 18.86-3.5-6.46-6.86-13-10.82-19.18-3.65-5.1-9.07-8.6-14.54-11.48-3.68-1.87-7.37-3.78-11.44-4.65-5.62-1.5-11.3-2.9-17.07-3.5-4.46 0-7.76 3.8-9.43 7.6z" fill="#566d05"/>
  <path d="M372.58 122c8.24 1.28 15.46 3.1 22.33 5.32 12.6 4.04 24 9.36 38.1 14.98-23.7.9-40.3-8.1-60.4-20.3zm-23.38 78.9c-24.32 6.62-50.22 13.67-75.4 8.3-14.78-2.5-20.86-20.57-36.2-20.8-29.2-2.96-58.5 4.36-86.3 12.7-10.72 3.35 3.6 16 6.44 21.52 12.2 17.44 19.8 41.5 42.23 48.5 16.7 4.85 34.14-.76 51.03-1.92 32.15-5.22 62.2-19.12 94.5-23.9 7.55-1.22 16.34-2.15 3.57.12-37.33 7.28-71.37 26.6-109.4 30.76-18.16 2.75-38.62 6.75-54.6-5.2-19.6-13.67-26-38.33-41.46-55.7-10.1-12.37 3.8-23.8 16.2-23.8 27.9-6.52 57.5-13.75 86-6.73 12.6 5.65 19.8 21.1 35 22.18 22.9 3.3 46.2-1.2 68.5-6.03zm178.1-29.3c18.73 6.65 5.35 22.36-6.47 27.17-14.7 8.33-23.07 23.56-36.63 33.34-12.6 12.1-29.4 16.6-44.57 24.1-16.56 9.1-31.2 22.2-50.26 26-10.92 3-22.23 4.9-33.57 4.7 25.25-3.5 49.85-13.2 69.6-29.5 16.1-12.6 37.46-15.3 52.96-28.8 14.74-9.7 24.34-25.6 40.6-33.2 10.64-5 26.08-14.2 8.34-23.6zm-65.4-30.7c19.68-3.07 3.24 20.05-4.1 12.4 3.92-4.9 16.46-6.65 4.1-12.4z" fill="#566d05"/>
  <path d="M251.4 168.2c-10 1.87-20.62 1.84-30.3-1.5-6.96-3.17-14.65-5.7-22.37-4.16-9.07 1.87-18.28 2.85-27.43 4.23-10.18 1.76-20.72 3.9-29.4 9.83 7.53-7.88 18.3-11.5 28.63-13.96 9.14-2.08 18.43-3.3 27.62-5.1 8.2-1.34 16.46 1.1 23.64 5 7.8 3.83 16.7 4.98 25.4 5.64 1.4-.03 2.8-.04 4.1.02z" opacity=".75" fill="#566d05"/>
  <path d="M324.1 130.9c-5.9-.94-11.93-1.82-17.4-4.3-3.5-1.9-6.02-5.37-9.96-6.52-5.37-1.8-11.15-1.38-16.74-1.67-4.96.1-10.17.1-14.78 2.1-3.13 2-4.1 5.9-4.7 9.3-.54 3.8.36 8.5 4.15 10.4 6.88 3.7 14.63 6.2 22.5 6 4.94-.1 9.57-2.1 13.66-4.8 5.46-3.2 10.54-7.1 15.47-11.1-5.42 6.4-11.73 12-18.72 16.5-7.83 4.8-17.64 4.1-26.07 1.5-4-1.3-8.3-2.6-11.8-5.3-5-4.5-5.3-12.3-3.1-18.4 1.4-4.1 4.3-8.2 8.8-9.2 7.1-2.13 14.6-1.2 21.8-.62 5.4.5 11 1.4 15.3 4.94 2.7 2.2 4.9 5.23 8.3 6.4 4.4 1.95 9 3.4 13.5 5.06z" fill="#566d05"/>
  <path d="M82.7 270.8c-.05-2.5.1-4.98.55-7.43 1.9-10.36 7.87-19.7 15.75-26.57-3 8.64-6.77 17-11.25 24.98-1.62 3.04-3.36 6.02-5.05 9.02z" opacity=".75" fill="#697d21"/>
  <path d="M429.7 151.9c1.92-22.03 22.06-43.92 45.4-39.56 15.04 11.96 34-2.38 48.67 9.5 17.43 7.46 31.1 27.8 21.63 46.35-7.63 10.7-22.5 3.9-33.3 5.2-22.55-.9-46.3.1-65.88 12.8-22.24 11.3-48.15 12-72.62 13-16.47-2.6-32.3 3.3-47.8 8.1-14.4 5.1-44.9 1.8-49.6-.3 23.1 4 46.6-.6 68.02-9.5 16.88-6.3 35.05-1.6 52.4-5.2 18.9-2 38.07-5.5 54.3-16 25.8-14 55.9-9.2 83.98-8.9 15.25-8.2 2.16-29-9.3-38.1-15.7-12.5-31.44-.9-45.9-11.3-19.1-10.2-41.82 6.2-47.44 25-1.08 2.8-1.96 5.7-2.56 8.62zm-142 219.7c-14.1 7.17-28 15.08-38.9 26.7-8.62 7.22-19.42 10.85-29.7 15 11.7-8.7 24.8-15.7 34.64-26.7 9.72-7.85 21.76-12.64 33.96-15z" fill="#566d05"/>
  <path d="M177 380.3c-2.66-15.26-14.8-26.13-27.3-33.95-23.17-16.66-49.25-30.84-66.1-54.6-11.13-14.23-21.57-29.05-33.8-42.35-8.25-11-13.65-24.07-22.9-34.28-5.1-2.92-16.38-10.57-19.84-6.32 6.08 3.35 15.7 4.8 20.04 11.74 8.64 12.93 14.23 28.03 25.5 39.06 17.83 21.43 31.87 46.77 55.22 62.96 17.1 13.23 36.6 22.95 53.83 35.96 10.02 8.23 16.44 21.1 15.55 34.18.74-4.1.74-8.34-.2-12.4z" fill="#755130"/>
  <ellipse transform="rotate(-83.397 278.412 129.416)" class="st16" cx="278.4" cy="129.4" rx="12.7" ry="6.1" id="ellipse4310"/>
</svg>
