<svg xmlns="http://www.w3.org/2000/svg" id="KW_LOGO" viewBox="0 0 24 24" xmlns:xlink="http://www.w3.org/1999/xlink">
  <style id="style3">
    .bg{fill:#30C0F9;} .st1{clip-path:url(#SVGID_2_);} .st2{fill:#BB8B5A;} .st3{fill:#BCBCBC;} .st4{fill:#D1D1D1;} .st5{fill:#9B704C;} .st6{fill:#C9C9C9;} .st7{fill:#755130;} .st8{fill:none;stroke:#6D6D6D;stroke-miterlimit:10;} .st9{fill:#D1D1D1;stroke:#6D6D6D;stroke-miterlimit:10;} .st10{fill:#7D7D7D;} .st11{fill:none;stroke:#566D05;stroke-miterlimit:10;} .st12{fill:#A7CC0D;} .st13{fill:#FFFFFF;} .st14{fill:#566D05;} .st15{opacity:0.75;} .st16{fill:#343534;} .st17{fill:#697D21;}
  </style>
  <circle id="circle5" cx="11.322" cy="12.162" r="9.8217" fill="#30c0f9" class="bg"/>
  <defs id="defs7">
    <circle id="SVGID_1_" cx="246.7" cy="250.9" r="243.2"/>
  </defs>
  <clipPath id="SVGID_2_">
    <use id="use11" width="100%" height="100%" xlink:href="#SVGID_1_" overflow="visible"/>
  </clipPath>
  <g id="g13" clip-path="url(#SVGID_2_)" class="st1" transform="matrix(.040385 0 0 .040385 1.3587 2.0457)">
    <path id="path15" fill="#bb8b5a" d="M252.9 386.1s1.3 26.9 18.2 29.8c17 2.9 36.4 7.5 39.8 26.9s-4 24.7-4 24.7l-7.1 4.2-13.6 7-12.8-1.6-23.9-7.6s180 60.7 166.3 64.1-27.8 2.8-27.8 2.8-18.6 2.4-16.1 9.2 7.5 18.6-7.4 11-74.6-34.1-74.6-34.1-56.1-8.2-65.3-7.8c-9.1.4-33.8-14.9-33.8-14.9l-25.4-20-13.4-42.4 15-45.1 9.9-12.1c.2-.1 45.7 43.3 76 5.9zm-273 59.9L-78 430.1l-7.7-20.3 29.2-7 6.6-23.6-15.8-22.5-63.7-48.3-37.5-59.9-38-2.7 2.1-18.3 61.8-52.4 32.9-19.3 80.1-17.5 98.9 20.4 48.3 32.6-12.3 24.1-16.3 18.7-20.9 32.5-3 3.4-11.8-14.3L26.6 225l-17.8-9.9-18.1-3.2-6.3 11.2s-9.6 19-30.1 14.2-50.5-13.3-39.5 4.9 61.9 81.9 61.9 81.9l68.8 98.1 46.6 51.6s27.9 10.3-6.3 6.1c-34.3-4.2-89.2-15.6-89.2-15.6s-17.7-10.5-16.7-18.3z" class="st2"/>
    <path id="path17" fill="#9b704c" d="M-209.8 242.9s23.7-41.9 92.8-83.2c.6-2.7 56.7-22.3 107.4-23.2 35.9 4.6 38.4 3.4 38.4 3.4s48.5-7 103.7 27.6c-15.2 16.1-21.8 28.9-21.8 28.9S86.8 175 67.5 166.6c9.5 11.6 17.1 21.7 17.1 21.7s-48-36.5-97.9-36.6-136.2 17.3-190 86.1l-4.2 3.7" class="st5"/>
    <path id="path19" fill="#755130" d="M179.5 382.4s1.3.8 3.7 2.3c2.4 1.6 5.9 3.8 10.2 6.9 8.5 6.3 20.6 15.6 32.9 29.4 6.1 6.9 12.3 14.8 17.3 24.3 1.2 2.3 2.4 4.7 3.6 7.1 1.1 2.5 2.3 5 3.4 7.5 2.2 5.1 4.3 10.3 6.2 15.7 3.9 10.8 7.5 22 10.4 33.7s5.6 23.5 6.9 36c.1 1.6.3 3.1.2 4.9 0 1.8-.1 3.3-.2 4.7-.2 2.9-.2 5.9-.3 9 0 1.5-.1 3.1-.2 4.7-.1.8-.2 1.7-.4 2.7-.1.2-.1.5-.3.9-.1.3-.3.7-.6 1.2-.1.2-.4.6-.7.8-.2.1-.3.3-.5.4s-.5.3-.8.4c-.6.2-1.2.3-1.7.3s-1.2-.2-1.4-.3c-.6-.3-1.1-.6-1.3-.8-.3-.3-.6-.5-.7-.7-.4-.5-.7-.8-.9-1.2-.5-.8-.9-1.5-1.3-2.2-.8-1.4-1.5-2.8-2.1-4.2l-1.9-4c-.6-1.3-1.2-2.7-1.9-3.9-1.3-2.5-2.7-5-4.1-7.5-2.9-5-5.9-9.8-9-14.5-6.2-9.4-12.4-18.4-18.5-26.8-3-4.2-6-8.3-8.8-12.2-2.8-3.6-6.4-6.9-9.5-10-6.5-6.4-12.6-12-17.2-18.1-.5-.8-1.1-1.5-1.6-2.6-.4-.9-.6-1.7-.9-2.3-.7-1.3-1.9-2.2-3.2-2.9-2.7-1.4-5.6-2.1-8.1-2.7-5.1-1.1-9.3-1.8-12.1-2.3s-4.3-.7-4.3-.7 1.5.1 4.3.3c2.8.3 7 .5 12.3 1.3 2.6.5 5.6.9 8.7 2.3 1.5.7 3.2 1.8 4.3 3.5.6.9.8 1.8 1.2 2.5.2.6.9 1.3 1.4 2 4.7 5.3 11.2 10.7 17.9 16.8 3.4 3.1 7 6 10.4 10 3 3.9 6.2 7.9 9.4 12 6.4 8.3 13 17.1 19.4 26.5 3.2 4.7 6.4 9.6 9.5 14.6 1.5 2.5 3 5.1 4.5 7.9.8 1.4 1.3 2.7 2 4l1.9 4.1c.6 1.3 1.3 2.6 1.9 3.8.3.6.7 1.2 1 1.6.2.2.3.5.4.5l.1.1c0 .1-.1-.1-.4-.2 0 0-.5-.2-.8-.2s-.7 0-1.1.2c-.2.1-.4.2-.5.3s-.2.1-.3.2c-.2.1-.4.4-.4.4-.1.1-.1.3-.1.2v-.2c.1-.4.2-1 .2-1.7.1-1.3.2-2.8.2-4.3.1-3 .1-6 .2-9.1.1-1.6.2-3.1.2-4.4.1-1.3-.2-2.8-.2-4.2-1.1-11.7-3.7-23.5-6.5-34.9-2.9-11.5-6-22.7-9.7-33.3-1.8-5.3-3.8-10.5-5.7-15.5-1-2.5-2.1-4.9-3.1-7.3l-3.3-7.2c-4.5-9-10.1-17-15.7-24-11.4-13.9-22.6-24.1-30.7-30.9-8.3-7.2-13.2-10.7-13.2-10.7z" class="st7"/>
    <path id="path21" fill="none" stroke="#6d6d6d" stroke-miterlimit="10" d="M-154.9 182.8s-177.4 15.4-244.3-17.7-120.7-52.1-166.9-53.7C-612.2 109.8-687.8 75-687.8 75s25.4 56.9 69.7 68.8c65 17.4 99.2 32.9 204.5 107.9 81.2 57.8 119.5 85.8 154.5 86.3" class="st8"/>
    <path id="path23" fill="#9b704c" d="M32 223.3s-10.4-12.9-19.5-15.4-22.1-2.9-25.2-1.2-8.1.6-8.4 13-13.4 18.2-22.6 13.5-23.1-11.6-31.2-8.1c-8.1 3.4-22.4 9.6-12.9 24s36.1 42 36.1 42l26.2 40.5 25.3 42.1 33.8 42.1 34.9 39.5s22.5 17.1 27.1 25.4 19.4 38 19.4 38l44.4 59.6 21.7 23.8 46.2 23.1-5.3-18.1-50.9-96.6s-8.4-22.7-7.3-33.2c1-10.6-3.7-14.9-3.7-14.9s-4.3-12.2 9.7-28 14.6-27 13.6-30.1c-1.1-3.1-6-12-6-12s3.1-20.3-21.1-40.6c-19-9.6-38.3-23.2-38.3-23.2l-24.9-22.1-13.9-17.6-13.5-14.1L50 254.2l-8.1-13-9.9-17.9z" class="st5"/>
    <path id="path25" fill="#d1d1d1" stroke="#6d6d6d" stroke-miterlimit="10" d="M-347.2 221.1s3.1 23.3 16 29.4c-8.2 6.8-8.9 18.6-8.2 26.1s5.1 60.6-3.4 74.1c-8.5 13.6-29.3 34.8-39.1 38.4s-19.3 8.5-20.7-17.9 1.2-159.5 55.4-150.1z" class="st9"/>
    <path id="path27" fill="none" stroke="#6d6d6d" stroke-miterlimit="10" d="M-345.3 354.4s1.2 35.7-1.5 62.3c-2.7 26.7-7.6 86.3-7.6 86.3s-.4 13-8.2-1.7-36-75.7-34-110m-68.1-81.6s-31.9 30.8-45.8 71c-14 40.2-15.4 47.3-15.4 47.3s-4.7 28.5 17.2-6.6 35.8-49.9 50-61.1 40.6-23.4 43.1-33.1" class="st8"/>
    <path id="path29" fill="#7d7d7d" d="M-338.5 262.8s.6.1 1.8.2c.6 0 1.3.1 2.1.2.8 0 1.7.1 2.7.2 2 0 4.4.1 7-.3 1.3-.2 2.6-.5 4-.9 1.3-.5 2.6-1.1 3.6-2.1s1.7-2.2 2.1-3.5.5-2.6.5-3.9c-.1-2.6-.7-4.9-1.4-6.8-.6-1.9-1.3-3.4-1.7-4.4l-.8-1.6s.4.5 1 1.5 1.4 2.4 2.2 4.3 1.6 4.2 1.9 7c.1 1.4.1 2.9-.3 4.4s-1.3 3-2.5 4.2-2.7 1.8-4.2 2.3c-1.5.4-2.9.7-4.3.8-2.7.3-5.2 0-7.2-.2-1-.2-1.9-.3-2.7-.4s-1.5-.3-2-.4c-1.2-.5-1.8-.6-1.8-.6z" class="st10"/>
    <path id="path31" fill="#755130" d="M-212.9 245.6s.7-1.1 2-3.3c1.3-2.1 3.3-5.2 6-9s6.1-8.4 10.2-13.4c4.1-5.1 8.9-10.7 14.6-16.4 2.7-2.9 5.8-5.8 8.9-8.8l4.8-4.5c1.7-1.4 3.5-2.9 5.2-4.4l5.4-4.5c1.9-1.4 3.8-2.9 5.8-4.3 1.9-1.5 3.9-2.9 5.9-4.4 2-1.4 4.2-2.7 6.3-4.1s4.3-2.8 6.4-4.1c2.2-1.4 4.5-2.5 6.8-3.8s4.6-2.5 6.9-3.8 4.8-2.2 7.2-3.4c4.9-2.1 9.7-4.6 14.8-6.2l7.6-2.7 3.8-1.4 3.9-1.1c5.3-1.3 10.4-2.8 15.8-3.9l15.6-2.7c5.3-.6 10.6-1.1 15.8-1.6 5.2-.3 10.3-.4 15.4-.6 5.1 0 10 .2 14.9.4 4.9.4 9.6.9 14.2 1.4 4.6.7 9 1.4 13.3 2.2 4.2 1 8.4 1.9 12.3 2.9 7.8 2.1 14.8 4.5 20.8 7 3 1.3 5.8 2.4 8.4 3.7 2.6 1.2 4.9 2.3 6.9 3.5 4.2 2.1 7.2 4.2 9.3 5.6s3.1 2.2 3.1 2.2-4.6-2.8-13.1-6.5c-2.1-1-4.5-1.9-7.1-2.9s-5.5-2-8.5-2.9c-6.1-2-13.2-3.7-20.9-5.4-3.9-.8-7.9-1.4-12.1-2.1-4.2-.5-8.6-1-13.1-1.5-4.5-.2-9.1-.6-13.9-.8-4.7.1-9.6-.1-14.5 0-4.9.3-9.9.5-14.9.9-5 .6-10 1.2-15.1 1.8-5.1.9-10.3 1.9-15.5 2.8-4.9 1-10 2.6-15.1 3.8l-3.8 1-3.7 1.3-7.4 2.6c-5 1.5-9.6 3.9-14.4 5.9-4.8 1.9-9.3 4.4-13.7 6.7-2.2 1.2-4.5 2.3-6.6 3.5l-6.3 3.9c-2.1 1.3-4.2 2.5-6.2 3.8-2 1.4-4 2.7-5.9 4.1-2 1.3-3.9 2.7-5.8 4l-5.4 4.2c-1.8 1.4-3.6 2.7-5.3 4.1s-3.3 2.8-5 4.2c-3.3 2.7-6.4 5.4-9.3 8.1s-5.7 5.3-8.2 7.8c-2.6 2.5-5.1 4.9-7.2 7.3-4.5 4.7-8.2 8.9-11.2 12.4-3 3.6-5.3 6.4-6.8 8.4-1.5 1.9-2.3 3-2.3 3zm343.8-77C79.8 132.6 28.5 142 28 142.1l-.8-3.9c.5-.1 53.4-9.9 106 27.1l-2.3 3.3z" class="st7"/>
    <path id="path33" fill="none" stroke="#6d6d6d" stroke-miterlimit="10" d="M-272.7 370.8s30.8-72.4 35.8-82.7 10.9-22.7 18.5-9.8c7.5 12.9 15.3 16.7 20.6 15.6 5.3-1.2 26.3-3.7 28.8 8.8 2.5 12.4 8.3 17.6-5.7 30.6s-19.6 12.4-24.6 23.3c-5.1 10.9-19.5 36.8-23.3 44.5-3.9 7.7-12.1 45.1-18.4 23.4s-6-44.9-36.3-27.3c.2-10.3 4.6-26.4 4.6-26.4z" class="st8"/>
    <path id="path35" fill="#755130" d="M177.3 392.8s.3-1.8 0-5.1c-.2-3.3-1.1-8.1-3.6-13.7s-7-11.7-13.7-16.9c-3.4-2.5-7.2-5-11.4-7.5-4.1-2.6-8.4-5.3-12.9-8.1-9-5.7-18.9-11.8-28.8-19.1-5-3.7-10-7.6-14.7-12.2-2.4-2.3-4.7-4.8-6.8-7.3s-4.2-5.1-6.3-7.7c-8.4-10.4-16.7-21.5-25.3-32.3-1.1-1.3-2.2-2.7-3.3-3.9-.6-.6-1.1-1.3-1.7-1.8l-1.9-1.9c-2.8-3.2-4.5-6.1-6.5-9.2-3.8-6.1-7.3-12.3-10.9-18.3-1.8-2.9-3.7-6.1-5.6-8.2-.7-.6-2.1-1.7-3.5-2.5s-2.9-1.6-4.4-2.2c-6.1-2.7-12.8-4.5-19.2-5.1-3.2-.3-6.4-.2-9.1.6s-4.5 2.2-5 4.4c-.1.6-.3 1.2-.3 1.8v2.5l-.1 2.6c-.2 1.1-.4 2.1-.6 3.2-1.1 4.1-4 7.7-7.6 9.6s-7.3 2.5-10.9 2.6-7.1-.4-10.5-1.4c-1.7-.6-3.3-1-5.2-2.3-1.5-1-2.5-1.8-3.8-2.5-2.5-1.5-5.1-2.6-7.8-3.3-5.4-1.4-10.8-.7-15.5 1.8-1.1.6-2.3 1.4-3.3 2-1.1.9-2.3 1.7-3 2.5-1.7 1.7-3.1 3.7-3.5 5.9-1 4.4 1.3 9 3.8 12.9 2.6 3.9 5.5 7.5 8.3 10.8 5.6 6.6 10.7 12.1 14.9 16.7 8.4 9.2 13.2 14.4 13.2 14.4s-5.2-4.8-14.1-13.5c-4.4-4.4-9.8-9.6-15.8-15.9-3-3.2-6.1-6.6-9.1-10.6-1.5-2-2.9-4.2-3.9-6.8s-1.6-5.6-1-8.7 2.3-5.8 4.4-8.1c1.1-1.2 2.2-2.1 3.3-3 1.3-1 2.5-1.8 3.9-2.6 5.4-3.2 12.4-4.3 18.9-2.8 3.3.7 6.4 2 9.3 3.7 1.4.8 3 1.9 4.1 2.6.8.5 2.3 1 3.6 1.4 5.5 1.4 12.2 1.6 16.9-1 2.3-1.3 3.8-3.3 4.5-5.8.1-.6.2-1.2.4-1.8v-5.1c0-1 .2-2.2.4-3.2.5-2.2 1.8-4.4 3.6-5.9 1.7-1.6 3.8-2.5 5.7-3.2 4-1.1 7.8-1.2 11.6-.9 7.5.6 14.6 2.6 21.4 5.5 1.7.7 3.4 1.6 5.1 2.5.8.5 1.7 1 2.5 1.6s1.6 1.2 2.6 2.2c2.8 3.2 4.5 6.2 6.4 9.3 3.7 6.2 7.1 12.4 10.8 18.3 1.8 2.9 3.8 6 5.6 8.1l1.8 1.9c.7.7 1.3 1.4 1.9 2.1 1.2 1.4 2.3 2.8 3.4 4.2 8.8 11.1 16.7 22.3 24.8 32.7 2 2.6 4.1 5.2 6.1 7.7s4.1 4.8 6.2 7c4.4 4.4 9.1 8.4 13.8 12.2 9.5 7.4 19.1 13.9 27.8 19.9 8.8 6.1 16.9 11.3 23.8 17 6.6 5.9 11 12.5 13.3 18.4s2.7 10.9 2.7 14.2c.2 2.8-.2 4.6-.2 4.6z" class="st7"/>
    <path id="path37" fill="none" stroke="#6d6d6d" stroke-miterlimit="10" d="M-178.2 231.6s22.9 12.7 26.8 21.4 9.7 16.2 14.2 21.6c4.5 5.5 21.7 29.4 32.5 37.3s56.6 49.7 62.8 63.9 10.2 27.6-2.8 35.7-29.1 9.3-44.9-4.7-37-43.3-50.1-59.6-25.6-38.1-25.6-38.1" class="st8"/>
    <path id="path39" fill="#755130" d="M-67.4 252.2s1 2.8 3.1 8 5.3 12.8 9.8 22.2c2.3 4.7 5 9.8 8.4 15.1 3.4 5.2 7.6 10.7 11.8 16.7 8.4 12 18 25.4 27.6 40.8 2.4 3.8 4.9 8 6.9 12.1 1.1 2.1 2.4 3.8 3.7 5.6 1.4 1.9 2.8 3.8 4.3 5.7 5.9 7.6 12.2 15.3 18.8 23.2s13.5 15.9 20.6 23.9c7.2 8 14.5 16.3 22.3 24l2.9 2.7c.5.5.9.7 1.3 1.1l.6.5c.2.1 0 .1.5.4l.4.3 1.8 1.2 1.9 1.5c1.3 1 2.3 2 3.5 3 4.4 4.1 8.3 8.5 12.1 13 3.8 4.6 7.4 9.3 10.8 14.4 1.7 2.5 3.3 5.2 4.7 8 .7 1.5 1.4 2.9 2 4.5l.8 2.2.4 1 .3.7c1 2 2.5 4.7 4 7.1 1.5 2.5 3.1 4.9 4.7 7.4 3.2 4.9 6.6 9.8 10 14.6 6.9 9.7 14 19.2 21.4 28.5s14.9 18.6 22.9 27.1c4 4.2 8.2 8.4 12.4 11.5 1 .7 2 1.3 2.8 1.7l4.1 1.7c2.9 1.2 5.6 2.5 8.3 3.8 5.4 2.7 10.7 5.6 15.9 8.8 1.2.8 2.6 1.7 3.8 2.5.4.3.8.5 1.1.6.2.2.4-.1-1.1.2-.9.3-1.8.9-2.2 1.8-.1.2-.2.4-.2.6v.1l-.1-.6c-.2-1-.6-2.2-1.1-3.4-.4-1.2-1.1-2.5-1.6-3.7l-1.9-3.9c-1.3-2.6-2.5-5.1-3.8-7.6-2.6-5.1-5.1-10.2-7.6-15.2-10.1-20.1-19.8-39.6-28.6-58.3-4.4-9.4-8.7-18.4-12.2-27.8l-.6-1.8-.5-2.2c-.4-1.6-.4-2.6-.5-3.9-.2-2.5-.3-4.9-.4-7.2-.2-4.6-.3-9.3-1.2-13-.2-.9-.5-1.7-.8-2.1-.5-.8-.6-.9-1-1.8-.4-.7-.6-1.3-.8-1.9-.9-2.3-1.4-4.7-1.7-7-.6-4.6-.3-9.3 1.2-13.6.8-2.1 1.8-4.2 3.3-6 .6-.9 1.5-1.7 2.3-2.5l2.1-2c2.5-2.5 4.8-5.5 6.7-8.5 3.9-5.9 6.6-12.1 7.9-18.1 1.1-5.9.5-11.8-2.9-15.5-1.5-1.9-3.6-3.5-5.2-5.2-1.7-1.7-3.2-3.3-4.5-4.8-2.7-3.1-4.9-5.8-6.6-8-3.4-4.5-5-7.1-5-7.1s1.7 2.5 5.4 6.7c1.9 2.1 4.2 4.7 7.1 7.5 1.5 1.4 3 2.9 4.8 4.5l2.7 2.4c1 .8 1.9 1.6 2.9 2.7 1.1.9 1.7 2.3 2.5 3.5.6 1.3 1.2 2.8 1.5 4.3.7 3 .6 6.2.2 9.5-1.1 6.5-3.6 13.2-7.5 19.6-1.9 3.3-4 6.4-6.9 9.6l-2.1 2.1c-.6.7-1.2 1.2-1.6 2-1.1 1.4-1.7 3-2.3 4.7-1 3.5-1.1 7.4-.5 11.3.3 1.9.8 3.9 1.6 5.6.2.5.4.9.5 1.1 0 .2.6.9.7 1.1 1 1.4 1.5 2.7 1.9 4 1.3 5 1.4 9.6 1.9 14.3.4 4.7.4 9.4 2.2 13 3.5 8.6 8.1 17.7 12.6 26.8 9.2 18.4 19.4 37.6 29.8 57.5 2.6 5 5.2 10 7.8 15.1 1.3 2.6 2.6 5.1 4 7.7l1.9 3.9c.7 1.5 1.3 2.8 1.9 4.3s1.2 3 1.6 4.9l.3 1.5c.1.5.1 1.3.1 2 0 .3 0 .8-.2 1.4-.1.6-.3 1.1-.5 1.6-.8 1.5-2.2 2.7-3.9 3.1-2.9.6-4.2-.1-5.3-.5s-1.9-.9-2.8-1.5c-1.3-.9-2.3-1.5-3.6-2.3-4.8-3-9.9-5.7-15-8.2-2.6-1.2-5.2-2.5-7.8-3.6l-4.1-1.7c-1.9-.8-3.4-1.8-4.8-2.8-5.4-4-9.7-8.3-13.9-12.7-8.4-8.9-16.1-18.2-23.6-27.7s-14.6-19.2-21.6-29.1c-3.5-4.9-6.9-9.9-10.1-15-1.6-2.5-3.3-5.1-4.8-7.7-1.6-2.7-3-5.1-4.6-8.4l-.6-1.3-.4-1-.7-2c-.4-1.1-1-2.3-1.5-3.5-1.2-2.4-2.6-4.8-4.1-7.1-3-4.7-6.4-9.3-9.9-13.7s-7.3-8.6-11.2-12.4c-1-.9-2-1.9-2.9-2.7l-1.4-1.2-1.7-1.2-.4-.3c.2.1-.2-.2-.3-.3l-1-.8c-.6-.5-1.4-1.1-1.9-1.6l-3.2-3.1C47.6 439.4 34 422.5 21 406.4c-6.4-8.1-12.7-16-18.4-23.9l-4.2-6c-1.4-2.2-2.9-4.4-3.9-6.4-2-4.4-4.1-8.1-6.4-12-9.1-15.4-17.9-29.3-25.7-41.7-3.9-6.2-7.7-11.8-11-17.3-3.2-5.6-5.6-10.9-7.7-15.7-4.2-9.7-6.8-17.5-8.5-22.9-1.8-5.4-2.6-8.3-2.6-8.3z" class="st7"/>
    <path id="path41" fill="none" stroke="#566d05" stroke-miterlimit="10" d="M291.3 369.3s-34.4 12.5-42.2 21.1c-7.1 7.9-10.8 10-31.2 21.7" class="st11"/>
    <path id="path43" fill="#755130" d="M252.6 387.9s.7 2.6 2.5 7c.9 2.2 2 4.8 3.6 7.6s3.6 5.8 6.4 8.2c1.4 1.2 3 2 4.7 2.5 1.6.3 4 .4 6.4.6 4.8.5 9.9 1.2 15 3.2 5.1 1.9 10.2 5.1 14.1 9.6 1 1.1 1.9 2.3 2.7 3.5l2.3 3.4c1.5 2.3 3.1 4.6 4.4 7.2s2.6 5.5 3 8.8-.2 6.8-1.6 9.7c-1.3 2.9-3.2 5.2-5.1 7.3-1.7 1.9-3.8 3.9-5.8 5.7-4.1 3.6-9 6.2-14 7.4s-9.7 1-13.9.3c-2.1-.4-4.1-.7-5.9-1.3-1.8-.5-3.6-1.1-5.1-1.7-3.2-1.1-5.8-2.5-8-3.5-2.1-1.1-3.7-2.1-4.9-2.7-1.1-.6-1.7-1-1.7-1s2.6.9 7.1 2.4c2.3.6 5 1.5 8.2 2.2 1.6.4 3.3.7 5.1 1s3.7.5 5.6.6c3.9.2 8.1-.1 12.1-1.4 4.1-1.3 7.8-3.7 11.3-6.9 1.7-1.7 3.3-3.4 5-5.4 1.5-1.9 3-3.8 3.8-5.8.9-2 1.2-4 .9-6.1s-1.2-4.3-2.4-6.5c-1.1-2.2-2.6-4.4-4-6.7l-2.2-3.3c-.7-1-1.4-2-2.2-2.9-3.1-3.6-7-6.5-11.3-8.3s-8.9-3-13.4-3.7c-2.2-.4-4.3-.5-7.1-1.3-2.5-.9-4.5-2.3-6.1-4-3.2-3.2-4.9-6.8-6.1-9.9-1.3-3.1-2-6-2.5-8.3-.6-2.3-.8-4.2-1-5.5.1-1.3.1-2 .1-2z" class="st7"/>
    <path id="path45" fill="none" stroke="#6d6d6d" stroke-miterlimit="10" d="M476.6 575.6s-7.9-31.6 2.2-55.8c10.1-24.3 16.9-36.5 36.7-46s80.1-21.7 92.9 7.2c12.7 29 26.7 76.9 4 129.2s-58.1 104.5-102.8 119.1-59.2 10.8-59.2 10.8-26.1-9.6-1.2-18.9 65.9-68 68.6-93.8" class="st8"/>
    <path id="path47" fill="none" stroke="#6d6d6d" stroke-miterlimit="10" d="M372.5 558.8s23.2.8 27.5-3.4c7 3.1 17.1 3.5 17.1 3.5s.7 54.5 12.5 71.4c-1.9 17.5-3.3 41-3.3 41s-.2 13.6 6.2-5.5m22.7-66.9s-8.5-43.2-12.7-51.7-11.5-14.3-22.5-14.9" class="st8"/>
  </g>
  <path id="path49" fill="#a7cc0d" d="M3.903 12.873s.206-1.2358 1.1993-1.9102c.4563-.949 1.2237-2.827 3.6024-3.57.1454-.2544.097-.4765.7956-.525.6987-.0445 1.248.0445 2.1485-.412.1413-.23.1696-.8198 1.7446-.3028.5048-.1575 1.1066-.198 1.1066-.198s.0565-.5088.5613-.428c.505.0808 1.2762.2383 1.575.7512.299.513.4.937.4.937l.8358.315.966.2705s.388-1.5306 1.991-1.034c.255.1455.731.2464 1.006.0647.275-.1817 1.45.8925 1.45.8925s.251.977-.193 1.167l-.323.076.259.359s.154.173-.246.4-.767.387-1.47 1.143c-.703.755-1.502 1.086-1.502 1.086s-.803.331-1.385.735c-.581.4-1.304.703-1.797.791-.755.436-1.139.569-1.401 1.393-.262.824-.594 1.724-1.47 1.95-.876.222-1.639.585-1.639.585s-.335.238-.711.565c-.375.327-1.296.662-1.296.662l-1.426-1.114-.198-.137s-.133-.683-.634-1.022c-.497-.339-2.447-1.688-2.447-1.688l-.755-.799-.743-1.006z" class="st12"/>
  <path id="path51" fill="#fff" d="M14.189 7.2837l-.5008-.218-.323-.2585-.6826-.0485-.7148.0807-.1535.307s-.2342.517.3474.6865c.5815.169.7955.21.7955.21l.5816-.227.6502-.533z" class="st13"/>
  <path id="path53" fill="#566d05" d="M14.189 7.2837l-.5048-.214-.323-.2545.008.0037-.6826-.045h.004l-.7148.081.016-.012-.113.23-.0282.056c-.0122.02-.0162.036-.0243.056-.012.04-.0202.081-.0282.121-.004.04-.004.08 0 .121.004.02.004.04.013.06.004.02.012.04.02.056l.012.028c.004.008.012.016.017.024.012.016.02.032.037.048.017.012.029.032.045.04l.049.036c.016.012.036.02.057.028l.028.016.028.012c.041.016.077.028.121.04l.247.068c.081.024.166.045.246.065.081.02.166.044.25.06h-.008l.586-.222h-.004l.65-.509zl-.642.533-.5817.2303h-.008c-.0848-.0162-.1696-.0363-.2504-.0566-.085-.02-.166-.0444-.251-.0646l-.246-.0687c-.041-.012-.081-.024-.125-.04l-.033-.012-.029-.016c-.02-.012-.041-.02-.057-.032l-.053-.04c-.02-.012-.033-.032-.049-.044-.016-.016-.028-.032-.04-.052-.004-.008-.013-.016-.021-.028l-.016-.032c-.013-.02-.017-.04-.025-.064-.008-.02-.008-.044-.012-.064-.008-.044-.004-.088 0-.133.004-.044.016-.089.028-.129.008-.02.016-.045.024-.061l.028-.056.117-.23.004-.008h.008l.715-.076.682.056h.004l.004.004.319.258.501.23zM3.959 12.873l-.198-.044c.2303-.982.84-1.592 1.2157-1.963.4684-.9775 1.276-2.294 2.4554-3.0412.719-.4564 1.236-.4846 1.256-.4846l.009.202-.004-.101.004.101c-.004 0-.497.0282-1.171.4643-1.139.727-1.918 2.0152-2.374 2.9643l-.008.0162-.012.012c-.355.3514-.953.941-1.171 1.874z" class="st14"/>
  <path id="path55" fill="#566d05" d="M7.582 12.122s0 .0525.004.1454c.004.0888.0162.218.0404.3675.012.076.0323.153.0566.234.0242.081.0565.161.105.238.0202.04.0484.072.0767.105.0323.032.0565.056.097.093.0767.068.1534.137.2342.202.153.141.306.278.448.416.141.133.266.262.375.379.214.226.347.391.347.391s-.178-.113-.428-.299c-.126-.093-.267-.206-.42-.332-.15-.121-.307-.258-.465-.395-.077-.069-.154-.142-.23-.21-.037-.033-.081-.081-.117-.122-.033-.049-.065-.093-.085-.141-.053-.097-.073-.194-.093-.287-.016-.093-.024-.182-.024-.263 0-.162.02-.291.036-.384.024-.089.04-.141.04-.141z" class="st15 st14" opacity=".75"/>
  <path id="path57" fill="#566d05" d="M16.455 13.616s-.113.0606-.2867.1898c-.1737.1292-.42.327-.61.622-.02.0362-.0403.0767-.0645.117-.016.0405-.0363.0808-.0525.1252-.012.0445-.0282.089-.0404.1333-.013.0525-.029.101-.041.1535-.061.218-.13.4402-.23.6623-.101.223-.218.453-.38.667-.162.21-.36.412-.606.558-.061.032-.13.065-.194.097l-.202.069-.21.041-.178.028c-.226.049-.461.097-.687.158s-.445.121-.651.178c-.206.061-.404.113-.582.166-.36.105-.663.19-.877.247l-.335.089s.109-.064.307-.165.481-.242.824-.396c.174-.076.363-.157.565-.238.202-.08.416-.161.646-.234.226-.072.464-.149.723-.202l.189-.036.158-.036.149-.056.145-.072c.19-.109.355-.266.497-.444.141-.181.262-.375.367-.577.101-.202.189-.404.266-.598.02-.052.037-.101.057-.149.02-.052.045-.109.069-.157.028-.048.057-.097.085-.141.032-.045.061-.085.093-.125.129-.158.274-.271.404-.36.133-.089.254-.15.355-.198.101-.048.186-.073.242-.093.048-.008.08-.016.08-.016zM8.628 7.9985s-.0162-.0566-.0283-.1575c-.012-.101-.0242-.2504.008-.428.0162-.089.0445-.19.097-.2868.0525-.101.1414-.198.2625-.2585.0323-.012.0606-.0282.093-.0363l.101-.02c.0685-.0122.113-.0122.1735-.0163.113-.003.2262-.012.3433-.016l.3392-.012c.109-.008.218-.008.323-.016.21-.016.4-.036.5615-.077.0848-.02.1575-.04.226-.056.0688-.016.1294-.028.1778-.04.101-.02.1575-.028.1575-.028s-.0484.033-.1373.081c-.0444.024-.097.057-.1615.089-.0646.033-.1293.069-.214.105-.1616.077-.3676.134-.5856.17-.109.016-.2222.033-.3352.041-.113.008-.2302.016-.3433.02-.113.004-.226.004-.339.008-.052.004-.117 0-.161.004l-.064.004c-.02.004-.036.012-.056.016-.072.029-.141.077-.189.146-.048.069-.089.141-.117.218-.06.15-.089.291-.109.388-.012.105-.02.161-.02.161z" class="st14"/>
  <path id="path59" fill="#566d05" d="M10.946 7.3887c.093-.1494.1938-.2908.315-.424.0323-.0323.0606-.0647.109-.097l.008-.0036c-.008.004 0-.003 0-.003l.0122-.008.012-.012c.008-.012.0162-.024.0243-.04.0162-.028.0283-.064.0364-.101.004-.016.008-.036.012-.056.004-.016.008-.04.008-.052v.016c0-.036 0-.064.004-.097.004-.032.008-.06.016-.088.012-.061.032-.121.064-.178.028-.056.068-.109.121-.157.048-.048.109-.08.169-.109.044-.02.105-.044.157-.06.052-.016.105-.032.161-.048.052-.016.109-.028.161-.036.056-.012.109-.02.169-.024l-.085.041c.044-.037.048-.028.064-.041.012-.003.024-.008.036-.008.02-.003.04-.003.056-.008.032 0 .064 0 .093.004.056.009.105.016.157.033.097.028.189.056.278.097.089.036.173.08.258.121.044.024.084.044.125.064l.125.073c.165.097.319.202.468.319.145.117.291.243.412.384-.323-.194-.65-.363-.981-.513l-.25-.109c-.085-.036-.17-.069-.255-.097-.085-.028-.169-.06-.25-.077-.041-.012-.081-.016-.117-.02-.016 0-.037-.004-.049 0h-.012c.008-.004 0 .008.036-.024l-.085.04c-.044.004-.097.012-.145.02-.049.008-.097.02-.146.028-.049.012-.097.025-.145.041-.048.017-.089.029-.141.049-.073.029-.134.073-.178.146-.02.036-.041.073-.057.117-.008.02-.012.045-.016.065-.004.021-.008.049-.012.061v.016c-.004.029-.012.049-.02.073-.008.024-.016.049-.024.069-.02.045-.045.089-.077.133-.017.02-.037.041-.057.061-.012.008-.029.024-.037.028l-.032.016c-.028.012-.065.041-.097.065-.141.089-.271.206-.408.319z" class="st14"/>
  <path id="path61" fill="#566d05" d="M13.422 6.165s.093-.101.2706-.1898c.0888-.0485.198-.0888.327-.113.0647-.0122.1334-.0203.202-.0203.0606 0 .1293 0 .194.003.2624.02.529.097.7026.218.0848.056.1494.121.1817.169.02.024.028.048.036.06.008.012.012.02.012.02s-.028-.016-.081-.041c-.049-.025-.125-.045-.21-.069-.178-.041-.412-.069-.659-.085l-.182-.012c-.057-.004-.109-.004-.166-.004-.109.003-.214.012-.307.024-.194.02-.323.036-.323.036z" class="st14"/>
  <path id="path63" fill="#566d05" d="M14.468 5.9186s.004-.0566.0364-.1535c.02-.048.0444-.105.0928-.165.0485-.056.1212-.121.2222-.145.0484-.012.109-.016.1494-.016.0485 0 .097 0 .1454.004.097.004.202.012.307.029.105.016.214.033.327.061.0283.009.0566.017.089.029.016.004.0322.012.0483.02l.0364.017c.048.021.105.045.153.073.105.053.206.113.299.182.097.065.181.15.258.234.076.085.137.19.173.283.04.089.068.178.097.259.105.323.121.553.121.553s-.105-.202-.267-.488c-.041-.073-.085-.15-.134-.23-.049-.077-.102-.141-.17-.21-.069-.064-.15-.121-.235-.182-.084-.056-.177-.109-.274-.153-.049-.024-.093-.049-.146-.073l-.037-.016c-.008-.004-.016-.008-.029-.012-.02-.008-.045-.016-.069-.024-.097-.028-.198-.057-.299-.081-.101-.02-.193-.044-.286-.061l-.134-.024c-.049-.008-.077-.012-.113-.012-.134.004-.239.105-.295.178-.049.077-.073.129-.073.129z" class="st14"/>
  <path id="path65" fill="#566d05" d="M16.115 6.9727s.1817.0202.4442.0808c.1333.0282.2827.0646.4443.109.1615.0445.331.093.5008.1454.1696.052.3352.109.4927.165.1575.052.3028.109.428.153.1252.044.2302.089.303.117.0726.028.117.048.117.048s-.0444.003-.125.008c-.081.003-.194 0-.3313-.016-.1373-.012-.2908-.037-.4563-.073-.0808-.02-.1697-.037-.2545-.061-.085-.024-.17-.049-.259-.077-.17-.053-.339-.117-.493-.182-.153-.065-.299-.13-.416-.194-.246-.117-.396-.226-.396-.226zm-.654 3.1863s-.0727.0202-.206.0606c-.1332.0363-.331.093-.5896.1494-.2544.0566-.5654.117-.9288.1616-.3635.0404-.7795.0807-1.2358-.012-.0566-.0163-.113-.0324-.1737-.0486-.056-.0202-.113-.0526-.169-.0768-.113-.0606-.202-.1252-.307-.202-.101-.0766-.198-.1614-.282-.2543-.044-.045-.085-.089-.129-.126-.04-.033-.084-.061-.133-.081-.101-.041-.226-.061-.351-.077-.125-.016-.258-.033-.387-.033-.137-.008-.258 0-.396.003-.133.008-.27.02-.408.036-.545.064-1.11.177-1.672.319-.141.036-.282.072-.42.117-.068.02-.137.044-.202.068-.032.012-.068.024-.088.037l-.02.008-.004.003c.004-.004-.016.008.008-.004l-.012.008c-.016.012-.036.024-.028.024-.008.008-.028.049-.02.097.004.052.024.109.049.166.029.056.061.113.101.157l.073.081c.024.032.057.072.077.101.174.254.327.509.485.763.077.129.154.254.226.384l.057.101c.016.028.032.056.053.085.036.057.077.113.121.17.344.436.848.727 1.373.731.255 0 .538-.044.804-.069.267-.029.525-.057.775-.093.501-.073.961-.198 1.385-.335.852-.275 1.579-.457 2.088-.566.254-.053.46-.085.598-.101s.214-.024.214-.024-.072.016-.21.04c-.137.028-.335.077-.589.141-.505.129-1.212.359-2.052.662-.42.153-.892.303-1.405.387-.255.044-.517.081-.784.117-.27.032-.529.081-.836.085-.299 0-.602-.077-.872-.218-.275-.141-.513-.347-.707-.589-.048-.061-.093-.126-.137-.19-.02-.032-.045-.069-.065-.105l-.052-.089c-.077-.125-.153-.255-.226-.38-.153-.25-.311-.509-.476-.743-.0203-.032-.037-.049-.057-.077l-.0322-.036c-.016-.016-.032-.032-.0443-.052-.0567-.069-.101-.142-.1374-.218-.036-.077-.065-.162-.073-.263-.008-.097.008-.214.105-.315.028-.032.04-.036.056-.048l.012-.008c.024-.016.012-.008.02-.012l.008-.004.0328-.016c.045-.025.077-.033.117-.049.073-.028.146-.049.218-.073.146-.044.287-.08.432-.117.574-.141 1.151-.242 1.713-.302.1415-.012.2828-.024.42-.028.137-.004.2868-.008.42.004.1415.008.2707.024.404.044.133.024.2665.044.4038.105.069.028.133.073.186.121.052.048.097.097.137.141.0808.089.169.17.258.242.049.036.089.072.138.105.048.032.093.072.141.093.0487.024.093.052.1416.072.0526.016.101.032.153.049.206.052.416.072.618.076.101.004.198.004.295 0 .097 0 .19-.008.279-.012.359-.024.674-.0688.928-.113.509-.093.8-.1616.8-.1616zm7.1926-1.1833s.0323.016.093.0485c.0564.0363.1453.0848.23.1898.0405.0525.085.117.089.21.004.093-.0526.1817-.1253.2464-.1413.121-.303.23-.4805.3553-.1777.1252-.3716.2545-.5533.408-.0444.0403-.089.0767-.1293.121-.016.0203-.0403.0405-.0524.0647l-.0566.0767c-.0888.114-.1857.206-.2827.303-.198.19-.412.38-.642.554-.2343.174-.4766.339-.7553.469-.1454.065-.2908.097-.408.15-.129.053-.2543.109-.3755.174-.2463.129-.4805.267-.7027.416-.109.077-.218.149-.327.222-.109.077-.2343.142-.3474.194-.2302.105-.4563.182-.6663.242-.21.065-.404.105-.5816.138-.1737.029-.327.053-.4523.061-.1252.012-.2262.012-.2948.012h-.105s.1454-.016.3917-.064c.2464-.048.5937-.145.9935-.299.198-.076.412-.169.626-.278.109-.057.206-.117.307-.194.105-.081.21-.157.323-.238.222-.158.4604-.315.7188-.452.1293-.068.2625-.133.3998-.19.1454-.06.2827-.097.4-.149.2462-.109.4845-.266.7066-.428.222-.165.4402-.335.634-.517.097-.089.194-.181.2706-.266l.0646-.077c.0243-.028.0485-.053.0727-.077.048-.049.101-.089.153-.129.206-.153.412-.27.597-.379.185-.109.363-.206.5-.299.064-.044.109-.105.113-.165.004-.064-.024-.125-.057-.173-.069-.101-.146-.166-.194-.21-.065-.045-.097-.065-.097-.065zM20.0124 7.736s.0727-.0203.1777-.0038c.029.0037.057.012.089.0242s.065.0283.097.0647c.033.033.065.101.049.166-.012.065-.048.101-.076.134-.06.057-.129.089-.19.113-.06.021-.121.037-.173.041-.101.016-.173 0-.173 0l.037-.036c.025-.02.057-.048.097-.076.041-.032.085-.06.134-.097.045-.032.097-.068.129-.097.016-.016.025-.028.025-.028s.008.008.004-.008c-.012-.028-.052-.064-.089-.097-.076-.048-.133-.096-.133-.096z" class="st14"/>
  <ellipse id="ellipse67" cx="-5.7753" cy="13.354" fill="#343534" rx=".5129" ry=".2464" transform="rotate(-83.399)" class="st16"/>
  <path id="path69" fill="#566d05" d="M11.511 8.8385s-.0727.016-.198.0323c-.125.012-.3068.0282-.529.0082-.109-.0082-.23-.0242-.3553-.0565-.0606-.0162-.1252-.0363-.1898-.0647-.061-.0242-.122-.0525-.182-.0727-.121-.048-.247-.076-.376-.088-.13-.012-.263.004-.4.033-.137.024-.287.053-.428.073-.142.02-.279.037-.408.053-.263.041-.509.085-.711.142-.101.029-.194.061-.275.089-.081.032-.15.061-.202.093-.057.029-.097.053-.125.073-.029.016-.045.029-.045.029l.036-.036c.024-.024.056-.06.109-.097.048-.04.113-.084.194-.129.04-.02.08-.044.125-.068.044-.02.093-.04.145-.065.101-.04.214-.08.335-.113.121-.036.25-.064.383-.093.133-.024.27-.052.412-.072s.27-.048.42-.077c.145-.028.302-.04.456-.024.153.017.294.065.428.122.133.056.234.121.347.157.113.041.222.065.327.089.206.04.388.057.513.069.117-.004.19 0 .19 0z" class="st15 st14" opacity=".75"/>
  <path id="path71" fill="#566d05" d="M14.447 7.332s-.097-.012-.2625-.0444c-.0808-.016-.1817-.0364-.2948-.0727-.0565-.017-.117-.037-.1817-.077-.0606-.037-.113-.089-.1656-.129-.105-.089-.2343-.138-.3877-.158-.1535-.016-.3312-.02-.5048-.024-.174 0-.356.008-.513.056-.085.028-.126.06-.166.125-.041.068-.069.149-.085.23-.033.165-.004.343.105.428.028.02.052.036.101.06.04.02.08.04.121.056.081.036.161.064.246.089.165.048.327.076.48.072.153-.004.295-.045.412-.105.246-.138.444-.275.573-.376.133-.101.206-.161.206-.161s-.061.076-.178.193c-.122.117-.295.283-.542.448-.129.085-.291.145-.464.157-.174.016-.36-.004-.541-.053-.089-.024-.182-.053-.271-.089-.093-.04-.17-.061-.275-.137-.097-.077-.154-.186-.178-.295-.025-.109-.025-.222-.004-.327.02-.105.056-.206.117-.303.016-.024.032-.044.052-.073.024-.025.052-.053.068-.061.056-.041.101-.057.153-.073.206-.065.4-.057.581-.049.185.008.351.024.525.053.169.028.335.109.444.218.056.052.097.101.145.137.045.036.101.061.154.085.105.044.202.08.278.105.157.06.246.089.246.089z" class="st14"/>
  <path id="path73" fill="#697d21" d="M4.6985 12.982v-.0606c0-.0404 0-.097.012-.1696.0163-.1414.0688-.3352.1657-.529.097-.194.218-.3474.315-.4524.097-.105.1656-.1615.1656-.1615s-.113.339-.2948.706c-.093.186-.1858.347-.2504.468-.0687.117-.113.198-.113.198z" class="st15 st17" opacity=".75"/>
  <path id="path75" fill="#566d05" d="M18.712 8.1802c.0323-.2423.105-.4806.214-.6987.0566-.109.1212-.214.198-.311.0363-.0484.0807-.0968.125-.1413.0405-.0485.093-.0848.1374-.1252.0485-.0363.101-.0727.1535-.109.052-.0282.101-.0646.161-.0888.056-.0283.117-.0526.177-.0727.06-.0242.121-.0364.186-.0526.064-.013.125-.021.189-.025.064 0 .129 0 .194.008.064.008.129.024.19.044.064.02.121.044.185.084V6.69c.129.0647.275.117.416.1374.073.012.141.012.206 0 .06-.0084.129-.0405.214-.0647.081-.024.17-.0404.262-.0362.093.0036.181.0282.262.0606.161.065.295.162.424.243.133.085.27.17.4.271.129.105.254.226.343.388.04.081.077.166.097.25.02.085.028.166.04.247.016.166.02.339-.04.521-.033.089-.085.182-.166.251s-.182.109-.279.121c-.097.016-.19.009-.263.004l-.234-.012c-.315-.016-.622-.024-.933-.024-.311.004-.622.02-.925.053-.291.041-.582.13-.856.263-.279.125-.541.295-.86.412-.319.105-.63.153-.945.202-.315.044-.63.08-.945.101-.158.012-.319.016-.477.02-.081 0-.162 0-.243-.004l-.238-.02c-.291-.012-.598.053-.892.145-.295.093-.598.202-.913.255-.63.113-1.276.073-1.886-.077.311.053.622.077.937.073.311-.003.622-.036.925-.109.303-.072.589-.185.888-.29.303-.105.614-.19.953-.186l.234.012c.077 0 .153 0 .23-.004.154-.003.311-.016.464-.032.311-.032.618-.068.925-.117.303-.052.618-.109.892-.206.271-.105.541-.274.832-.412.291-.141.606-.246.937-.29.319-.04.638-.052.957-.056.319-.003.634.012.949.029l.234.012c.084.004.145.009.206 0 .121-.02.198-.08.242-.198.044-.117.048-.266.036-.412-.008-.072-.016-.149-.033-.218-.011-.064-.035-.129-.068-.19-.125-.242-.391-.412-.65-.585-.133-.089-.254-.178-.384-.234-.129-.061-.25-.069-.395-.028-.069.016-.1417.048-.238.06-.093.012-.178.004-.263-.012-.17-.032-.319-.093-.469-.174h-.004l-.004-.003c-.036-.024-.093-.052-.141-.068-.053-.02-.109-.032-.162-.045-.056-.008-.113-.012-.1693-.016-.056 0-.113.004-.1695.012-.0565.009-.113.02-.1695.037s-.109.0367-.165.057c-.053.02-.109.052-.162.0767-.048.0288-.101.061-.149.093-.044.0368-.097.069-.137.113-.0446.041-.085.081-.125.1258-.081.089-.15.186-.21.291-.117.222-.21.449-.259.687zm-5.7347 8.8726s-.1817.097-.4483.2423c-.1332.073-.2867.162-.4442.263-.0767.049-.1575.105-.2342.166-.0768.057-.1495.121-.214.19l-.109.109c-.0405.037-.081.077-.1213.109-.0808.069-.1656.126-.2504.178-.17.105-.336.182-.477.238-.142.061-.263.105-.344.138-.085.032-.129.053-.129.053s.036-.036.109-.089c.072-.052.181-.125.311-.206.129-.08.278-.177.428-.286.072-.057.149-.117.222-.178.036-.032.068-.064.105-.097l.105-.109c.076-.08.157-.149.246-.21.085-.064.173-.113.258-.161.173-.093.343-.161.488-.214.291-.105.497-.133.497-.133z" class="st14"/>
  <path id="path77" fill="#755130" d="M8.5068 17.404c-.0323-.161-.097-.355-.218-.553-.1212-.198-.299-.396-.529-.565-.2263-.166-.4767-.336-.7392-.517-.2625-.182-.541-.372-.8238-.57-.2827-.202-.5654-.416-.832-.658-.1332-.121-.2544-.251-.3715-.388-.117-.145-.2302-.287-.3433-.436-.226-.295-.4523-.59-.6744-.876-.113-.146-.222-.291-.3433-.428-.0283-.0363-.0606-.0687-.093-.105-.016-.016-.0322-.0324-.0483-.0525l-.0445-.0445c-.0323-.0322-.0525-.0606-.0767-.093-.0242-.032-.0485-.0685-.0727-.1008-.189-.2827-.355-.5775-.529-.848-.088-.1374-.165-.2667-.274-.392-.064-.0645-.129-.1008-.198-.1412-.064-.0363-.133-.0687-.198-.097-.153-.065-.299-.109-.444-.142l-.012.101c.134.0404.271.0888.408.1495.121.0565.255.1292.339.218.089.109.166.2464.247.3797.158.2746.311.5734.505.8723.024.0363.053.0727.077.113.028.0364.061.0808.093.109l.048.0486c.012.017.029.029.041.045l.085.097c.113.137.222.279.331.424.222.291.445.59.671.885.113.146.234.295.351.436.126.146.255.283.396.408.279.251.574.461.86.663.578.396 1.143.719 1.6 1.03.222.154.404.332.529.513.13.182.202.364.243.517.04.154.053.283.057.368.004.089-.004.133-.004.133s.012-.044.016-.133c.008-.077.012-.206-.024-.367z" class="st7"/>
</svg>
