<svg xmlns="http://www.w3.org/2000/svg" viewBox="0 0 900 600" id="svg2">
  <style id="style4">
    .st0{display:none;} .st1{display:inline;fill:#E3E5E5;} .st2{display:inline;opacity:0.5;} .st3{fill:#6E7F78;} .st4{fill:#70857D;} .st5{fill:#7A8C85;} .st6{fill:#E05D4F;} .st7{fill:#9DA8A4;} .st8{fill:#A2B5AF;} .st9{fill:#B3DB0E;} .st10{fill:#90CCD6;} .st11{fill:#9FD8E2;} .st12{opacity:0.2;fill:#FFFFFF;} .st13{fill:#FFFFFF;} .st14{fill:#A8E513;} .st15{fill:#A7CC0D;} .st16{display:inline;} .st17{fill:url(#SVGID_1_);} .st18{display:inline;fill:#FFFFFF;} .st21{display:inline;fill:none;stroke:#DEE2E2;stroke-miterlimit:10;} .st22{display:inline;opacity:0.65;fill:#444747;}   .st25{display:inline;opacity:0.65;fill:#383F3F;}  .st27{fill:#A0182F;} .st28{fill:#CC1A27;} .st29{fill:#30080D;} .st30{fill:#0D0B0C;} .st31{fill:#098572;} .st32{fill:#C6C12A;} .st33{fill:#56321A;} .st34{fill:#9E1F2D;} .st35{fill:#DE342C;} .st36{fill:#303133;} .st37{fill:#30B59B;} .st38{fill:#FFC800;} .st39{fill:#86745B;} .st40{fill:#7CBAC1;} .st41{fill:#2A2E35;} .st42{display:inline;fill:#B1B2B2;} .st43{display:inline;fill:#90A09F;} .st44{display:inline;fill:#B7978F;} .st45{fill:#9FA526;} .st46{fill:#CC5F4E;} .st47{fill:#9E3D2D;} .st48{fill:#C14F34;} .st49{fill:#B7C62C;} .st50{fill:#BB8B5A;} .st51{fill:#825F3E;} .st52{fill:#AF452F;} .st53{fill:#252830;} .st54{fill:none;stroke:#9FA526;stroke-miterlimit:10;} .st55{fill:#F0EAD1;} .st56{fill:#B1B72E;} .st57{fill:#E5E0CA;} .st58{fill:#454716;} .st59{display:inline;fill:#21304C;} 
  </style>
  <path class="st0 st1" d="M0 0h900v600H0z" id="Laag_2"/>
  <g xmlns="http://www.w3.org/2000/svg" id="Background">
    <ellipse class="st3" cx="493.9" cy="255.9" rx="55.7" ry="43.6" id="ellipse8"/>

    <ellipse class="st5" cx="589" cy="241.2" rx="62.2" ry="43.6" id="ellipse12"/>
    <ellipse class="st5" cx="736.7" cy="241.2" rx="62.2" ry="43.6" id="ellipse14"/>
    <ellipse class="st4" cx="192.6" cy="247.4" rx="49.4" ry="39.4" id="ellipse16"/>
    <circle class="st6" cx="229" cy="129" r="69" id="circle18"/>
    <path class="st7" d="M226.5 241.2s33.8-61.3 42-72.9c8.2-11.6 15.3-28.4 33.4 0 18.1 28.4 41.6 72.9 41.6 72.9h-117z" id="path20"/>
    <path class="st8" d="M179.5 241.2s30.4-48.9 37.9-58.1c7.4-9.2 13.8-22.7 30.1 0s37.5 58.1 37.5 58.1H179.5z" id="path22"/>
    <path class="st9" d="M809.2 247.2c0 8.2-6.8 15-15 15H127c-8.2 0-15-6.8-15-15v-6.9c0-8.2 6.8-15 15-15h667.2c8.2 0 15 6.8 15 15v6.9z" id="path24"/>
    <path class="st10" d="M839.9 252.3v-.3H81.3v.3c-9.1 0-16.4 8.4-16.4 18.9S72.3 290 81.3 290v.3H151c5.1.8 8.9 4.6 8.9 9.1s-3.8 8.3-8.9 9.1h-32.9v.3c-9.1 0-16.4 7.3-16.4 16.4s7.3 16.4 16.4 16.4v.3H803v-.3c9.1 0 16.4-7.3 16.4-16.4s-7.3-16.4-16.4-16.4v-.3h-32.9c-5.1-.8-8.9-4.6-8.9-9.1s3.8-8.3 8.9-9.1h69.7v-.3c9.1 0 16.4-8.4 16.4-18.9s-7.2-18.8-16.3-18.8z" id="path26"/>
    <path class="st12" d="M542 299.1v-.2H209.6v.2c-4.4 0-8 4.4-8 9.8s3.6 9.8 8 9.8v.2H542v-.2c4.4 0 8-4.4 8-9.8s-3.6-9.8-8-9.8zM726 278v-.2h-39v.2c-4.4 0-8 4.4-8 9.8s3.6 9.8 8 9.8v.2h39v-.2c4.4 0 8-4.4 8-9.8s-3.6-9.8-8-9.8z" id="path32"/>
    <path class="st13" d="M218 86.1c-5.3 0-10.2 1.9-14 5-2.5-16.2-16.4-28.6-33.3-28.6-16.8 0-30.7 12.3-33.3 28.3-3.8-3-8.5-4.8-13.7-4.8-12.1 0-21.9 9.8-21.9 21.9s9.8 21.9 21.9 21.9H215v-.2c1 .1 2 .2 3 .2 12.1 0 21.9-9.8 21.9-21.9s-9.8-21.8-21.9-21.8zm578.9 69.8c-3.8 0-7.3 1.4-10 3.6-1.8-11.6-11.8-20.5-23.9-20.5-12.1 0-22.1 8.8-23.9 20.4-2.7-2.2-6.1-3.4-9.8-3.4-8.7 0-15.8 7.1-15.8 15.8 0 8.7 7.1 15.8 15.8 15.8h65.6v-.2c.7.1 1.4.2 2.2.2 8.7 0 15.8-7.1 15.8-15.8-.2-8.8-7.3-15.9-16-15.9zm-169.7-10.5c-3.4 0-6.4 1.2-8.8 3.3-1.6-10.6-10.4-18.8-21-18.8s-19.3 8.1-21 18.6c-2.4-2-5.4-3.2-8.6-3.2-7.6 0-13.8 6.4-13.8 14.4s6.2 14.4 13.8 14.4h57.5v-.1c.6.1 1.2.1 1.9.1 7.6 0 13.8-6.4 13.8-14.4 0-7.9-6.1-14.3-13.8-14.3zM331 169.5c-2.2 0-4.3.8-5.9 2.1-1-6.8-6.9-12.1-14.1-12.1-7.1 0-13 5.2-14 12-1.6-1.3-3.6-2-5.8-2-5.1 0-9.3 4.1-9.3 9.3s4.1 9.3 9.3 9.3h38.5v-.1c.4.1.8.1 1.3.1 5.1 0 9.3-4.1 9.3-9.3s-4.2-9.3-9.3-9.3z" id="path34"/>
    <path class="st15" d="M788.3 252.4c0 5.2-6.8 9.4-15 9.4H146.6c-8.2 0-15-4.2-15-9.4s6.8-9.4 15-9.4h626.7c8.3 0 15 4.3 15 9.4z" id="path44"/>
  </g>


  <g xmlns="http://www.w3.org/2000/svg" id="Toori_Birds">
    <path class="st34" d="M645.6 228.3c0 1.1-.9 2-2 2h-14c-1.1 0-2-.9-2-2v-3.2c0-1.1.9-2 2-2h14c1.1 0 2 .9 2 2v3.2z" id="path94"/>
    <path class="st35" d="M644.6 290.5c-3.5-16-2.6-34.4-2.6-34.4v-25.9h-11.4v25.9s.9 18.4-2.6 34.4c-3.1 13.9-2.9 37.1-2.9 37.1h22.4c.1 0 .2-23.1-2.9-37.1z" id="path96"/>
    <path class="st29" d="M646.3 301.5h-20c-1.3 12.6-1.2 26.1-1.2 26.1h22.4c.1 0 .1-13.5-1.2-26.1z" id="path98"/>
    <path class="st35" d="M726.7 290.5c-3.4-16-2.5-34.4-2.5-34.4v-25.9h-11v25.9s.9 18.4-2.5 34.4c-3 13.9-2.8 37.1-2.8 37.1h21.8c-.2 0 0-23.1-3-37.1z" id="path100"/>
    <path class="st29" d="M728.3 301.5h-19.4c-1.3 12.6-1.2 26.1-1.2 26.1h21.8s.1-13.5-1.2-26.1z" id="path102"/>
    <path class="st34" d="M726.9 228.3c0 1.1-.9 2-2 2h-14c-1.1 0-2-.9-2-2v-3.2c0-1.1.9-2 2-2h14c1.1 0 2 .9 2 2v3.2z" id="path104"/>
    <path class="st36" d="M736 221.2c-39.9 7.7-79.9 7.7-119.8 0 .5-4.4.8-6.6 1.4-11.1 39 7.6 78 7.6 117.1 0 .4 4.5.7 6.7 1.3 11.1z" id="path106"/>
    <path class="st37" d="M743.3 212.1c-45.8 7.7-91.6 7.7-137.4 0 .6-4.4.9-6.6 1.6-11.1 44.8 7.6 89.5 7.6 134.3 0l1.5 11.1z" id="path108"/>
    <path class="st34" d="M717.4 252.2c0 1.1-.9 2-2 2h-75.5c-1.1 0-2-.9-2-2v-6.8c0-1.1.9-2 2-2h75.5c1.1 0 2 .9 2 2v6.8z" id="path110"/>
    <path class="st38" d="M687 243.6c0 1.1-.9 2-2 2h-12.2c-1.1 0-2-.9-2-2v-16.5c0-1.1.9-2 2-2H685c1.1 0 2 .9 2 2v16.5z" id="path112"/>
    <path class="st39" d="M684.6 242c0 1.1-.9 2-2 2H675c-1.1 0-2-.9-2-2v-13.1c0-1.1.9-2 2-2h7.6c1.1 0 2 .9 2 2V242z" id="path114"/>
    <path class="st40" d="M647.7 330.7h-22.3c-1.4 0-2.6-1.2-2.6-2.6v-.9c0-1.4 1.2-2.6 2.6-2.6h22.3c1.4 0 2.6 1.2 2.6 2.6v.9c0 1.4-1.2 2.6-2.6 2.6zm81.4 0h-22.3c-1.4 0-2.6-1.2-2.6-2.6v-.9c0-1.4 1.2-2.6 2.6-2.6h22.3c1.4 0 2.6 1.2 2.6 2.6v.9c-.1 1.4-1.2 2.6-2.6 2.6z" id="path116"/>
    <path class="st41" d="M145.7 188.4c-4.6-1.6-7.3-.8-10.3 3-.4.4-1 .5-1.4.1-.4-.4-.5-1.2 0-1.7 3.5-4.5 6.7-5.4 12.1-3.6.6.2 1 .9.9 1.5-.2.6-.8.9-1.3.7z" id="path118"/>
    <path class="st41" d="M157.3 185c-4.6-1.6-7.3-.8-10.3 3-.4.4-1 .5-1.4.1-.4-.4-.5-1.2 0-1.7 3.5-4.5 6.7-5.4 12.1-3.6.6.2 1 .9.9 1.5-.2.6-.7.9-1.3.7zm490.1-5.6c-4.6-1.6-7.3-.8-10.3 3-.4.4-1 .5-1.4.1-.4-.4-.5-1.2 0-1.7 3.5-4.5 6.7-5.4 12.1-3.6.6.2 1 .9.9 1.5-.2.6-.8.9-1.3.7z" id="path120"/>
    <path class="st41" d="M659 176c-4.6-1.6-7.3-.8-10.3 3-.4.4-1 .5-1.4.1-.4-.4-.5-1.2 0-1.7 3.5-4.5 6.7-5.4 12.1-3.6.6.2 1 .9.9 1.5-.2.6-.7.9-1.3.7zm-480.7 20.4c-3.1-3.8-5.8-4.5-10.4-2.8-.5.2-1.1 0-1.2-.6-.1-.6.2-1.3.9-1.5 5.4-2 8.5-1.1 12.1 3.3.4.5.4 1.3 0 1.7-.5.4-1.1.3-1.4-.1z" id="path122"/>
    <path class="st41" d="M190 199.5c-3.1-3.8-5.8-4.5-10.4-2.8-.5.2-1.1 0-1.2-.6-.1-.6.2-1.3.9-1.5 5.4-2 8.5-1.1 12.1 3.3.4.5.4 1.3 0 1.7-.5.5-1.1.4-1.4-.1zm498.2-13.1c-3.1-3.8-5.8-4.5-10.4-2.8-.5.2-1.1 0-1.2-.6-.1-.6.2-1.3.9-1.5 5.4-2 8.5-1.1 12.1 3.3.4.5.4 1.3 0 1.7-.4.4-1 .3-1.4-.1z" id="path124"/>
    <path class="st41" d="M699.9 189.6c-3.1-3.8-5.8-4.5-10.4-2.8-.5.2-1.1 0-1.2-.6-.1-.6.2-1.3.9-1.5 5.4-2 8.5-1.1 12.1 3.3.4.5.4 1.3 0 1.7-.4.4-1 .3-1.4-.1zm-521.4-30.1c-7.2-3.7-11.7-3.1-17.6 2.4-.7.6-1.7.6-2.3-.1-.6-.8-.4-2.1.4-2.8 6.9-6.4 12.2-7.2 20.5-2.8 1 .5 1.5 1.7 1.1 2.6-.3.9-1.2 1.2-2.1.7z" id="path126"/>
    <path class="st41" d="M198.3 156.8c-7.2-3.7-11.7-3.1-17.6 2.4-.7.6-1.7.6-2.3-.1-.6-.8-.4-2.1.4-2.8 6.9-6.4 12.2-7.2 20.5-2.8 1 .5 1.5 1.7 1.1 2.6-.3.8-1.2 1.1-2.1.7z" id="path128"/>
  </g>

  <g xmlns="http://www.w3.org/2000/svg" id="Crabigator">
    <path class="st45" d="M377.5 185.6s-7.7-6.6-10.1 2.9c-1.9 7.6 10.1-2.9 10.1-2.9z" id="path148"/>
    <path class="st56" d="M468.6 230.3s18.8 8.4 35.3 1.7 4.9 4.1 4.9 4.1-21.5 14.5-42 9.3c-20.4-5.3 1.8-15.1 1.8-15.1z" id="path192"/>
    <path class="st48" d="M370.6 230.9s-3.9 5.3-4.2 9.6-2.3 9.6 1.2 7.3 7.7-2.3 7.7-2.3 1.6-14.3-4.7-14.6z" id="path194"/>
    <path class="st50" d="M407.2 201.9s21.1-10 39.7 1.3 21 22.7 22.7 29.5c1.7 6.8 1.6 15.2-9.3 15.3s-45.9-4.2-52.5-5.5c-6.7-1.3 1.6-19.4 1.6-19.4s5.1-10.6-2.2-21.2z" id="path196"/>
    <path class="st49" d="M407 201.8s-6.9-12-20.6-14c-.7595-.1917-2.0535-1.5545-2.116-1.5176-.095.056 1.4324 1.8036 2.3812 3.6572.2074.4052-.6033.0933-2.4492-.2333-1.0035-.1775-2.3498-.3908-3.3897-.5487-1.5014-.228-2.4012-.4778-3.4434-.697-1.518-.3194-2.256-.2932-3.0393-.6146-3.4402-1.412-1.8693-2.0282-5.6438-.646 0 0-4.9 4.5-10.4 1.6s-12.2-1-13.5 2.6c-1.3 3.6 4.3 10.9 5.6 12 1.3 1.1 9.4 9.7 28.7 13.5 1.4 2.7 1.9 5.8 1.9 5.8l13.7 13 18.4-12.3zm-32.4275-13.8397s4.5007-3.8254 8.3196-2.5695c1.555.5113 2.6588 2.7016 3.8234 4.7428.1032.181.142-.0183-.4878-.057" id="path198" fill="#b7c62c"/>
    <path class="st47" d="M372.4 227.2s-3.5 2.7-1.3 5.7 1.6 11.3 1.3 12.8c-.3 1.6-.7 6.4 4.8 4s15.3-13.1 16.1-17.8c.9-4.7 0-7.7-1.9-9.1-1.9-1.4-6-5.9-10.9-2.6-4.9 3.3-8.1 7-8.1 7z" id="path200"/>
    <path class="st57" d="M393.2 214.4s-.2 6.1.7 16.2c-11.9-4.6-13.3-10.5-13.3-10.5l-1.4-3.3c0 .1 9.9.9 14-2.4z" id="path202"/>
    <path class="st47" d="M446.4 240.1s-3.1.3-5.1 3.5c-2 3.1 1.1 4.5 2.6 3.6 1.5-.9 3.5-2.6 3.5-2.6s.5-3.7-1-4.5zm-11.7-2.4s-3.4.3-5.5 3.7c-2.1 3.3 1.2 4.7 2.8 3.8s3.8-2.8 3.8-2.8.6-3.9-1.1-4.7z" id="path204"/>
    <path class="st47" d="M426.1 233.1s2.8 4.6 4.6 5.6c1.7 1.1 2 2.6.7 4.1s-6.3 3.7-8.9 4.1 3.6-13.8 3.6-13.8z" id="path206"/>
    <path class="st48" d="M419 250.4s8.9-5.9 8-14.8c-.9-8.9-8.7-3.9-10.2-1.1s-7.8 16.7-7.8 16.7-2.8 5.2 2.2 3.3 7.8-4.1 7.8-4.1zm20.7-8.2s-1.1-4.1-2.6-4.3c-1.5-.2-5.4-1.5-4.1 4.8 1.3 6.3 8.2 11.1 8.2 11.1s4.1 2.2 1.7-2.5-2.8-7.4-3.2-9.1zm13.5.7s-1.1-3.2-2.7-3.3-5.6-1.2-4.3 3.7 8.6 8.5 8.6 8.5 4.3 1.7 1.8-1.9-2.9-5.6-3.4-7z" id="path208"/>
    <path class="st51" d="M416.2 226.6s-3.9-21.6-9-24.6c.7 3.3 3.3 17.4 2.2 21.3-1.2 3.8 6.8 3.3 6.8 3.3z" id="path210"/>
    <path class="st46" d="M388 238.3s-3.9 5.4-4.2 9.7c-.3 4.3-2.3 9.7 1.2 7.4 3.5-2.3 7.7-2.3 7.7-2.3s1.5-14.5-4.7-14.8z" id="path212"/>
    <path class="st47" d="M402.6 226s2.7-3.7 5.4-4.4c2.7-.7 4.5-.9 6 .1s3.3 4.1 1.8 6.7c-1.5 2.6-5.4 7-5.4 7s-7.6-6.3-7.8-9.4z" id="path214"/>
    <path class="st48" d="M389.7 234.5s-3.5 2.7-1.3 5.8c2.2 3 1.6 11.4 1.3 13-.3 1.6-.7 6.5 4.8 4.1 5.5-2.5 15.2-13.3 16.1-18.1s0-7.8-1.9-9.3c-1.9-1.4-5.9-5.9-10.9-2.6-4.9 3.4-8.1 7.1-8.1 7.1z" id="path216"/>
    <path class="st45" d="M395.4 197s.3.1.8.4c.5.3 1.2.6 2 1.2l1.2.9c.4.3.9.7 1.3 1.1.9.8 1.7 1.8 2.3 3 .3.6.5 1.2.6 1.9.1.7.1 1.4-.1 2l-.3.9c-.2.3-.3.5-.5.7-.4.5-.8.8-1.1 1.1-.4.3-.8.5-1.1.7-.3.2-.6.3-.9.4-.5.2-.8.3-.8.3s.3-.2.7-.5c.2-.1.5-.4.8-.6.3-.2.6-.5.9-.8.3-.3.6-.7.9-1.1.1-.2.2-.4.4-.7.1-.2.2-.5.2-.7.1-.5.1-1.1 0-1.6s-.3-1.1-.6-1.6l-.9-1.5c-.4-.5-.7-.9-1.1-1.3l-2.2-2.2c-.7-.6-1.3-1.1-1.7-1.5-.6-.3-.8-.5-.8-.5zm-21-8.9s.1-.2.5-.5c.3-.3.8-.7 1.4-1.2.3-.2.6-.4 1-.7l1.2-.6c.4-.2.9-.3 1.4-.4.2-.1.5-.1.8-.1.3 0 .5-.1.8 0l.8.1c.3.1.5.2.8.3.5.1.9.5 1.3.8.4.3.7.7 1 1 .3.3.5.7.7 1 .2.3.4.6.4.9.1.3.2.5.3.7.1.4.2.6.2.6s-.1-.2-.4-.6c-.1-.2-.2-.4-.4-.7-.1-.3-.4-.5-.6-.8-.2-.3-.4-.6-.7-.9-.3-.2-.6-.6-.9-.8-.4-.2-.7-.5-1.1-.6-.2-.1-.4-.2-.6-.2l-.7-.1c-.2-.1-.4 0-.7 0-.2 0-.4 0-.7.1-.4.1-.9.1-1.3.3-.8.2-1.6.6-2.2.9-1.5.9-2.3 1.5-2.3 1.5z" id="path218"/>
    <ellipse transform="rotate(-82 380.806 189.68)" class="st13" cx="380.8" cy="189.7" rx="1.7" ry="2.6" id="ellipse220"/>
    <ellipse transform="rotate(-82 351.833 191.703)" class="st45" cx="351.8" cy="191.7" rx="1" ry="1.8" id="ellipse222"/>
    <path class="st45" d="M350.1 191.5s0-.4.3-.8c.1-.2.4-.5.7-.7.3-.2.7-.3 1.1-.4.4 0 .8 0 1.1.1.3.1.6.3.8.5.2.2.3.3.4.5.1.1.1.2.1.2h-.2c-.2 0-.4-.1-.6-.1-.1 0-.2 0-.4-.1h-1.2c-.3 0-.5.1-.8.2-.2.1-.5.2-.7.3-.3.1-.6.3-.6.3zm-4.6 4.8s.9-.1 2.4-.1 3.7-.1 6.3.2c1.3.1 2.7.3 4.2.7 1.5.3 3 .9 4.5 1.4 3.1 1 6.5 1.8 9.9 2.3 1.7.3 3.4.6 5.1.7.8.1 1.7.1 2.5.1s1.6-.2 2.4-.3c3.2-.5 6.3-.6 9-.2 1.3.2 2.5.6 3.4 1.2.9.6 1.5 1.4 1.7 2.2.2.8.1 1.4.1 1.8-.1.4-.1.6-.1.6s0-.2.1-.6c0-.4 0-1-.2-1.7s-.8-1.4-1.7-1.9c-.9-.5-2-.8-3.3-.9-2.5-.3-5.6 0-8.8.5-.8.1-1.6.3-2.5.4-.9.1-1.7 0-2.6 0-1.7-.1-3.5-.3-5.2-.6-3.4-.6-6.8-1.4-10-2.5-1.6-.5-3-1.2-4.4-1.5-1.4-.4-2.8-.6-4.1-.8-2.6-.4-4.7-.5-6.2-.6-1.7-.4-2.5-.4-2.5-.4z" id="path224"/>
    <circle class="st58" cx="380.8" cy="189.7" r=".9" id="circle226"/>
  </g>
</svg>
